Perun-Italic.ufo
<glyph name="exclam" format="2">
	<unicode hex="0021"/>
	<advance width="220"/>
	<outline>
		<contour>
			<point name="n00" x="150" y="0" type="line"/>
			<point name="n01" x="172" y="95" type="line"/>
			<point x="72" y="95" type="line"/>
			<point name="n03" x="50" y="0" type="line"/>
		</contour>
		<contour>
			<point name="n04" x="300" y="722" type="line"/>
			<point x="217" y="722" type="line"/>
			<point x="89" y="169" type="line"/>
			<point x="172" y="169" type="line"/>
		</contour>
	</outline>
</glyph>
<glyph name="quotedbl" format="2">
	<unicode hex="0022"/>
	<advance width="451"/>
	<outline>
		<contour>
			<point x="343" y="722" type="line"/>
			<point name="n01" x="237" y="722" type="line"/>
			<point x="193" y="434" type="line"/>
			<point name="n03" x="253" y="434" type="line"/>
		</contour>
		<contour>
			<point x="549" y="722" type="line"/>
			<point x="443" y="722" type="line"/>
			<point x="399" y="434" type="line"/>
			<point x="459" y="434" type="line"/>
		</contour>
	</outline>
</glyph>
<glyph name="numbersign" format="2">
  <advance width="745"/>
  <unicode hex="0023"/>
  <outline>
    <contour>
      <point x="814" y="513" type="line"/>
      <point x="673" y="513" type="line"/>
      <point x="786" y="722" type="line"/>
      <point x="712" y="722" type="line"/>
      <point x="599" y="513" type="line"/>
      <point x="468" y="513" type="line"/>
      <point x="582" y="722" type="line"/>
      <point x="507" y="722" type="line"/>
      <point x="394" y="513" type="line"/>
      <point x="253" y="513" type="line"/>
      <point x="217" y="444" type="line"/>
      <point x="358" y="444" type="line"/>
      <point x="284" y="308" type="line"/>
      <point x="142" y="308" type="line"/>
      <point x="105" y="239" type="line"/>
      <point x="247" y="239" type="line"/>
      <point x="120" y="0" type="line"/>
      <point x="194" y="0" type="line"/>
      <point x="321" y="239" type="line"/>
      <point x="451" y="239" type="line"/>
      <point x="325" y="0" type="line"/>
      <point x="399" y="0" type="line"/>
      <point x="525" y="239" type="line"/>
      <point x="666" y="239" type="line"/>
      <point x="703" y="308" type="line"/>
      <point x="562" y="308" type="line"/>
      <point x="636" y="444" type="line"/>
      <point x="778" y="444" type="line"/>
    </contour>
    <contour>
      <point x="563" y="444" type="line"/>
      <point x="489" y="308" type="line"/>
      <point x="357" y="308" type="line"/>
      <point x="432" y="444" type="line"/>
    </contour>
  </outline>
</glyph>
<glyph name="dollar" format="2">
	<unicode hex="0024"/>
	<advance width="558"/>
	<outline>
		<contour>
			<point x="353" y="420" type="curve" smooth="yes"/>
			<point x="291" y="435"/>
			<point x="261" y="440"/>
			<point x="261" y="482" type="curve" smooth="yes"/>
			<point x="261" y="596"/>
			<point x="320" y="627"/>
			<point x="424" y="627" type="curve" smooth="yes"/>
			<point x="475" y="627"/>
			<point x="522" y="612"/>
			<point x="522" y="575" type="curve" smooth="yes"/>
			<point x="522" y="561"/>
			<point x="520" y="544"/>
			<point name="n12" x="515" y="524" type="curve"/>
			<point x="534.039" y="524"/>
			<point x="593.391" y="524"/>
			<point name="n15" x="616" y="524" type="curve"/>
			<point x="620" y="543"/>
			<point x="623" y="562"/>
			<point x="623" y="580" type="curve" smooth="yes"/>
			<point x="623" y="692"/>
			<point x="542" y="715"/>
			<point x="447" y="715" type="curve" smooth="yes"/>
			<point x="293" y="715"/>
			<point x="158" y="635"/>
			<point x="158" y="465" type="curve" smooth="yes"/>
			<point x="158" y="367"/>
			<point x="237" y="344"/>
			<point x="330" y="321" type="curve" smooth="yes"/>
			<point x="337.923" y="319.019"/>
			<point x="369.663" y="311.084"/>
			<point x="378" y="309" type="curve" smooth="yes"/>
			<point x="440" y="293"/>
			<point x="472" y="284"/>
			<point x="472" y="235" type="curve" smooth="yes"/>
			<point x="472" y="114"/>
			<point x="406" y="72"/>
			<point x="295" y="72" type="curve" smooth="yes"/>
			<point x="232" y="72"/>
			<point x="178" y="100"/>
			<point x="178" y="158" type="curve" smooth="yes"/>
			<point x="178" y="172"/>
			<point x="180" y="189"/>
			<point x="184" y="208" type="curve"/>
			<point x="164.233" y="208"/>
			<point x="104.258" y="208"/>
			<point x="83" y="208" type="curve"/>
			<point x="77" y="183"/>
			<point x="74" y="159"/>
			<point x="74" y="138" type="curve" smooth="yes"/>
			<point x="74" y="11"/>
			<point x="172" y="-16"/>
			<point x="280" y="-16" type="curve" smooth="yes"/>
			<point x="449" y="-16"/>
			<point x="578" y="85"/>
			<point x="578" y="265" type="curve" smooth="yes"/>
			<point x="578" y="370"/>
			<point x="501" y="383"/>
			<point x="401" y="408" type="curve" smooth="yes"/>
			<point x="393.197" y="409.951"/>
			<point x="361.364" y="417.909"/>
		</contour>
		<contour>
			<point x="491" y="795" type="line"/>
			<point x="440" y="795" type="line"/>
			<point x="232" y="-105" type="line"/>
			<point x="283" y="-105" type="line"/>
		</contour>
	</outline>
</glyph>
<glyph name="percent" format="2">
	<unicode hex="0025"/>
	<advance width="927"/>
	<outline>
		<contour>
			<point x="166" y="483" type="curve" smooth="yes"/>
			<point x="166" y="389"/>
			<point x="223" y="343"/>
			<point x="308" y="343" type="curve" smooth="yes"/>
			<point x="443" y="343"/>
			<point x="537" y="462"/>
			<point x="537" y="584" type="curve" smooth="yes"/>
			<point x="537" y="672"/>
			<point x="487" y="726"/>
			<point x="395" y="726" type="curve" smooth="yes"/>
			<point x="259" y="726"/>
			<point x="166" y="604"/>
		</contour>
		<contour>
			<point x="318" y="407" type="curve" smooth="yes"/>
			<point x="269" y="407"/>
			<point x="250" y="434"/>
			<point x="250" y="484" type="curve" smooth="yes"/>
			<point x="250" y="555"/>
			<point x="288" y="657"/>
			<point x="383" y="657" type="curve" smooth="yes"/>
			<point x="431" y="657"/>
			<point x="450" y="630"/>
			<point x="450" y="580" type="curve" smooth="yes"/>
			<point x="450" y="508"/>
			<point x="413" y="407"/>
		</contour>
		<contour>
			<point name="n24" x="203" y="-14" type="line"/>
			<point x="302" y="-14" type="line"/>
			<point name="n26" x="901" y="736" type="line"/>
			<point x="802" y="736" type="line"/>
		</contour>
		<contour>
			<point x="557" y="136" type="curve" smooth="yes"/>
			<point x="557" y="46"/>
			<point x="607" y="-4"/>
			<point x="697" y="-4" type="curve" smooth="yes"/>
			<point x="835" y="-4"/>
			<point x="930" y="114"/>
			<point x="930" y="239" type="curve" smooth="yes"/>
			<point x="930" y="336"/>
			<point x="873" y="380"/>
			<point x="789" y="380" type="curve" smooth="yes"/>
			<point x="650" y="380"/>
			<point x="557" y="258"/>
		</contour>
		<contour>
			<point x="709" y="60" type="curve" smooth="yes"/>
			<point x="660" y="60"/>
			<point x="641" y="86"/>
			<point x="641" y="137" type="curve" smooth="yes"/>
			<point x="641" y="208"/>
			<point x="678" y="311"/>
			<point x="775" y="311" type="curve" smooth="yes"/>
			<point x="824" y="311"/>
			<point x="843" y="285"/>
			<point x="843" y="234" type="curve" smooth="yes"/>
			<point x="843" y="163"/>
			<point x="806" y="60"/>
		</contour>
	</outline>
	<guideline x="0" y="543" angle="0"/>
</glyph>
<glyph name="quotesingle" format="2">
	<unicode hex="0027"/>
	<advance width="226"/>
	<outline>
		<contour>
			<point name="n00" x="323" y="722" type="line"/>
			<point name="n01" x="217" y="722" type="line"/>
			<point name="n02" x="173" y="434" type="line"/>
			<point name="n03" x="233" y="434" type="line"/>
		</contour>
	</outline>
</glyph>
<glyph name="parenleft" format="2">
	<unicode hex="0028"/>
	<advance width="359"/>
	<outline>
		<contour>
			<point name="n00" x="238" y="-132" type="line"/>
			<point x="231" y="-73"/>
			<point x="227" y="-15"/>
			<point x="227" y="41" type="curve" smooth="yes"/>
			<point x="227" y="298"/>
			<point x="308" y="515"/>
			<point name="n06" x="438" y="736" type="curve"/>
			<point x="374" y="736" type="line"/>
			<point x="233" y="555"/>
			<point x="137" y="335"/>
			<point x="137" y="103" type="curve" smooth="yes"/>
			<point x="137" y="21"/>
			<point x="149" y="-56"/>
			<point name="n13" x="173" y="-132" type="curve"/>
		</contour>
	</outline>
</glyph>
<glyph name="parenright" format="2">
	<unicode hex="0029"/>
	<advance width="359"/>
	<outline>
		<contour>
			<point x="362" y="501" type="curve" smooth="yes"/>
			<point x="362" y="581"/>
			<point x="350" y="660"/>
			<point x="326" y="736" type="curve"/>
			<point x="261" y="736" type="line"/>
			<point x="269" y="678"/>
			<point x="272" y="622"/>
			<point x="272" y="572" type="curve" smooth="yes"/>
			<point x="272" y="310"/>
			<point x="190" y="88"/>
			<point x="61" y="-132" type="curve"/>
			<point x="125" y="-132" type="line"/>
			<point x="265" y="48"/>
			<point x="362" y="270"/>
		</contour>
	</outline>
</glyph>
<glyph name="asterisk" format="2">
	<unicode hex="002A"/>
	<advance width="656"/>
	<outline>
		<contour>
			<point name="n00" x="642" y="488" type="line"/>
			<point name="n01" x="661" y="570" type="line"/>
			<point x="491" y="549" type="line"/>
			<point x="623" y="683" type="line"/>
			<point name="n04" x="560" y="722" type="line"/>
			<point x="462" y="576" type="line"/>
			<point x="432" y="722" type="line"/>
			<point x="350" y="683" type="line"/>
			<point x="420" y="549" type="line"/>
			<point x="260" y="570" type="line"/>
			<point x="241" y="488" type="line"/>
			<point x="411" y="509" type="line"/>
			<point x="279" y="375" type="line"/>
			<point x="342" y="335" type="line"/>
			<point x="440" y="482" type="line"/>
			<point x="470" y="335" type="line"/>
			<point x="552" y="375" type="line"/>
			<point x="482" y="509" type="line"/>
		</contour>
	</outline>
</glyph>
<glyph name="plus" format="2">
	<unicode hex="002B"/>
	<advance width="700"/>
	<outline>
		<contour>
			<point name="n00" x="712" y="269" type="line"/>
			<point name="n01" x="726" y="331" type="line"/>
			<point x="457" y="331" type="line"/>
			<point x="520" y="600" type="line"/>
			<point x="458" y="600" type="line"/>
			<point x="395" y="331" type="line"/>
			<point x="126" y="331" type="line"/>
			<point x="112" y="269" type="line"/>
			<point x="381" y="269" type="line"/>
			<point name="n09" x="319" y="0" type="line"/>
			<point x="381" y="0" type="line"/>
			<point x="443" y="269" type="line"/>
		</contour>
	</outline>
</glyph>
<glyph name="comma" format="2">
  <advance width="275"/>
  <unicode hex="002C"/>
  <outline>
    <contour>
      <point x="256" y="123" type="line"/>
      <point x="136" y="123" type="line"/>
      <point x="19" y="-127" type="line"/>
      <point x="89" y="-127" type="line"/>
    </contour>
  </outline>
</glyph>
<glyph name="hyphen" format="2">
	<unicode hex="002D"/>
	<advance width="319"/>
	<outline>
		<contour>
			<point name="n00" x="327" y="203" type="line"/>
			<point name="n01" x="346" y="285" type="line"/>
			<point x="106" y="285" type="line"/>
			<point name="n03" x="87" y="203" type="line"/>
		</contour>
	</outline>
</glyph>
<glyph name="period" format="2">
	<unicode hex="002E"/>
	<advance width="275"/>
	<outline>
		<contour>
			<point name="n00" x="206" y="0" type="line"/>
			<point name="n01" x="234" y="123" type="line"/>
			<point x="126" y="123" type="line"/>
			<point name="n03" x="98" y="0" type="line"/>
		</contour>
	</outline>
</glyph>
<glyph name="slash" format="2">
	<unicode hex="002F"/>
	<advance width="396"/>
	<outline>
		<contour>
			<point name="n00" x="521" y="736" type="line"/>
			<point x="452" y="736" type="line"/>
			<point x="34" y="-52" type="line"/>
			<point x="103" y="-52" type="line"/>
		</contour>
	</outline>
</glyph>
<glyph name="zero" format="2">
	<unicode hex="0030"/>
	<advance width="558"/>
	<outline>
		<contour>
			<point x="628" y="534" type="curve" smooth="yes"/>
			<point x="628" y="652"/>
			<point x="560" y="736"/>
			<point x="449" y="736" type="curve" smooth="yes"/>
			<point x="420" y="736"/>
			<point x="393" y="731"/>
			<point x="368" y="721" type="curve"/>
			<point x="368" y="636" type="line"/>
			<point x="392" y="654"/>
			<point x="418" y="657"/>
			<point x="444" y="657" type="curve" smooth="yes"/>
			<point x="503" y="657"/>
			<point x="533" y="617"/>
			<point x="533" y="486" type="curve" smooth="yes"/>
			<point x="533" y="345"/>
			<point x="456" y="150"/>
			<point x="368" y="88" type="curve"/>
			<point x="368" y="3" type="line"/>
			<point x="517" y="51"/>
			<point x="628" y="279"/>
		</contour>
		<contour>
			<point x="108" y="190" type="curve" smooth="yes"/>
			<point x="108" y="72"/>
			<point x="176" y="-12"/>
			<point x="287" y="-12" type="curve" smooth="yes"/>
			<point x="316" y="-12"/>
			<point x="343" y="-7"/>
			<point x="368" y="3" type="curve"/>
			<point x="368" y="88" type="line"/>
			<point x="344" y="70"/>
			<point x="318" y="67"/>
			<point x="292" y="67" type="curve" smooth="yes"/>
			<point x="233" y="67"/>
			<point x="203" y="107"/>
			<point x="203" y="238" type="curve" smooth="yes"/>
			<point x="203" y="379"/>
			<point x="280" y="574"/>
			<point x="368" y="636" type="curve"/>
			<point x="368" y="721" type="line"/>
			<point x="219" y="673"/>
			<point x="108" y="445"/>
		</contour>
	</outline>
	<guideline x="0" y="769" angle="0"/>
</glyph>
<glyph name="one" format="2">
	<unicode hex="0031"/>
	<advance width="424"/>
	<outline>
		<contour>
			<point name="n00" x="327" y="0" type="line"/>
			<point name="n01" x="494" y="722" type="line"/>
			<point x="394" y="722" type="line"/>
			<point x="370" y="696"/>
			<point x="276" y="633"/>
			<point x="217" y="602" type="curve"/>
			<point name="n06" x="198" y="519" type="line"/>
			<point x="272" y="548"/>
			<point x="330" y="576"/>
			<point x="373" y="602" type="curve"/>
			<point x="234" y="0" type="line"/>
		</contour>
	</outline>
</glyph>
<glyph name="two" format="2">
	<unicode hex="0032"/>
	<advance width="558"/>
	<outline>
		<contour>
			<point x="59" y="0" type="line"/>
			<point name="n01" x="494" y="0" type="line"/>
			<point name="n02" x="512" y="78" type="line"/>
			<point x="187" y="78" type="line"/>
			<point x="388" y="236" type="line" smooth="yes"/>
			<point x="553" y="366"/>
			<point x="625" y="453"/>
			<point x="625" y="579" type="curve" smooth="yes"/>
			<point x="625" y="665"/>
			<point x="567" y="736"/>
			<point name="n10" x="443" y="736" type="curve" smooth="yes"/>
			<point x="320" y="736"/>
			<point x="231" y="666"/>
			<point x="188" y="526" type="curve"/>
			<point x="290" y="526" type="line"/>
			<point x="317" y="604"/>
			<point x="357" y="653"/>
			<point name="n17" x="440" y="653" type="curve" smooth="yes"/>
			<point x="500" y="653"/>
			<point x="524" y="628"/>
			<point x="524" y="580" type="curve" smooth="yes"/>
			<point x="524" y="466"/>
			<point x="457" y="401"/>
			<point x="338" y="304" type="curve" smooth="yes"/>
			<point x="80" y="93" type="line"/>
		</contour>
	</outline>
</glyph>
<glyph name="three" format="2">
	<unicode hex="0033"/>
	<advance width="558"/>
	<outline>
		<contour>
			<point name="n00" x="90" y="192" type="line"/>
			<point x="86" y="174"/>
			<point x="84" y="158"/>
			<point x="84" y="142" type="curve" smooth="yes"/>
			<point x="84" y="46"/>
			<point x="158" y="-12"/>
			<point x="269" y="-12" type="curve" smooth="yes"/>
			<point x="418" y="-12"/>
			<point x="564" y="91"/>
			<point x="564" y="236" type="curve" smooth="yes"/>
			<point x="564" y="320"/>
			<point x="514" y="356"/>
			<point x="460" y="379" type="curve"/>
			<point x="549" y="421"/>
			<point x="632" y="481"/>
			<point x="632" y="583" type="curve" smooth="yes"/>
			<point x="632" y="681"/>
			<point x="557" y="736"/>
			<point name="n18" x="449" y="736" type="curve" smooth="yes"/>
			<point x="319" y="736"/>
			<point x="229" y="655"/>
			<point x="184" y="534" type="curve"/>
			<point x="286" y="534" type="line"/>
			<point x="320" y="617"/>
			<point x="372" y="659"/>
			<point name="n25" x="440" y="659" type="curve" smooth="yes"/>
			<point x="492" y="659"/>
			<point x="531" y="634"/>
			<point x="531" y="584" type="curve" smooth="yes"/>
			<point x="531" y="461"/>
			<point x="424" y="416"/>
			<point x="317" y="416" type="curve" smooth="yes"/>
			<point name="n32" x="308" y="416" type="line"/>
			<point x="290" y="336" type="line"/>
			<point name="n34" x="298" y="336" type="line" smooth="yes"/>
			<point x="409" y="336"/>
			<point x="463" y="300"/>
			<point x="463" y="228" type="curve" smooth="yes"/>
			<point x="463" y="140"/>
			<point x="383" y="65"/>
			<point x="289" y="65" type="curve" smooth="yes"/>
			<point x="230" y="65"/>
			<point x="191" y="94"/>
			<point x="191" y="152" type="curve" smooth="yes"/>
			<point x="191" y="164"/>
			<point x="193" y="178"/>
			<point name="n46" x="196" y="192" type="curve"/>
		</contour>
	</outline>
</glyph>
<glyph name="four" format="2">
  <advance width="558"/>
  <unicode hex="0034"/>
  <outline>
    <contour>
      <point x="570" y="176" type="line"/>
      <point x="589" y="259" type="line"/>
      <point x="500" y="259" type="line"/>
      <point x="607" y="722" type="line"/>
      <point x="497" y="722" type="line"/>
      <point x="95" y="281" type="line"/>
      <point x="71" y="176" type="line"/>
      <point x="388" y="176" type="line"/>
      <point x="347" y="0" type="line"/>
      <point x="440" y="0" type="line"/>
      <point x="481" y="176" type="line"/>
    </contour>
    <contour>
      <point x="407" y="259" type="line"/>
      <point x="170" y="259" type="line"/>
      <point x="488" y="612" type="line"/>
    </contour>
  </outline>
</glyph>
<glyph name="five" format="2">
	<unicode hex="0035"/>
	<advance width="558"/>
	<outline>
		<contour>
			<point name="n00" x="94" y="176" type="line"/>
			<point x="90" y="159"/>
			<point x="88" y="143"/>
			<point x="88" y="128" type="curve" smooth="yes"/>
			<point x="88" y="32"/>
			<point x="170" y="-12"/>
			<point x="287" y="-12" type="curve" smooth="yes"/>
			<point x="449" y="-12"/>
			<point x="570" y="129"/>
			<point x="570" y="319" type="curve" smooth="yes"/>
			<point x="570" y="407"/>
			<point x="522" y="480"/>
			<point name="n12" x="415" y="480" type="curve" smooth="yes"/>
			<point x="346" y="480"/>
			<point x="307" y="450"/>
			<point x="270" y="412" type="curve"/>
			<point x="323" y="639" type="line"/>
			<point name="n17" x="608" y="639" type="line"/>
			<point name="n18" x="627" y="722" type="line"/>
			<point x="244" y="722" type="line"/>
			<point x="147" y="302" type="line"/>
			<point x="224" y="302" type="line"/>
			<point x="271" y="371"/>
			<point x="323" y="406"/>
			<point name="n24" x="383" y="406" type="curve" smooth="yes"/>
			<point x="440" y="406"/>
			<point x="469" y="374"/>
			<point x="469" y="308" type="curve" smooth="yes"/>
			<point x="469" y="212"/>
			<point x="408" y="68"/>
			<point x="285" y="68" type="curve" smooth="yes"/>
			<point x="233" y="68"/>
			<point x="195" y="93"/>
			<point x="195" y="146" type="curve" smooth="yes"/>
			<point x="195" y="155"/>
			<point x="196" y="165"/>
			<point name="n36" x="199" y="176" type="curve"/>
		</contour>
	</outline>
</glyph>
<glyph name="six" format="2">
	<unicode hex="0036"/>
	<advance width="558"/>
	<outline>
		<contour>
			<point x="95" y="155" type="curve" smooth="yes"/>
			<point x="95" y="38"/>
			<point x="175" y="-12"/>
			<point x="279" y="-12" type="curve" smooth="yes"/>
			<point x="455" y="-12"/>
			<point x="572" y="132"/>
			<point x="572" y="285" type="curve" smooth="yes"/>
			<point x="572" y="392"/>
			<point x="513" y="446"/>
			<point name="n09" x="397" y="446" type="curve" smooth="yes"/>
			<point x="337" y="446"/>
			<point x="271" y="403"/>
			<point x="227" y="354" type="curve"/>
			<point x="259" y="491"/>
			<point x="308" y="659"/>
			<point x="451" y="659" type="curve" smooth="yes"/>
			<point x="499" y="659"/>
			<point x="524" y="623"/>
			<point x="524" y="578" type="curve" smooth="yes"/>
			<point x="524" y="568"/>
			<point x="523" y="559"/>
			<point x="521" y="549" type="curve"/>
			<point x="619" y="549" type="line"/>
			<point x="623" y="566"/>
			<point x="625" y="581"/>
			<point x="625" y="596" type="curve" smooth="yes"/>
			<point x="625" y="681"/>
			<point x="564" y="736"/>
			<point x="462" y="736" type="curve" smooth="yes"/>
			<point x="202" y="736"/>
			<point x="95" y="377"/>
		</contour>
		<contour>
			<point x="199" y="168" type="curve" smooth="yes"/>
			<point x="199" y="261"/>
			<point x="256" y="369"/>
			<point name="n34" x="373" y="369" type="curve" smooth="yes"/>
			<point x="439" y="369"/>
			<point x="468" y="334"/>
			<point x="468" y="267" type="curve" smooth="yes"/>
			<point x="468" y="175"/>
			<point x="412" y="65"/>
			<point x="295" y="65" type="curve" smooth="yes"/>
			<point x="230" y="65"/>
			<point x="199" y="99"/>
		</contour>
	</outline>
</glyph>
<glyph name="seven" format="2">
	<unicode hex="0037"/>
	<advance width="558"/>
	<outline>
		<contour>
			<point x="646" y="622" type="line"/>
			<point x="669" y="722" type="line"/>
			<point name="n02" x="224" y="722" type="line"/>
			<point name="n03" x="205" y="642" type="line"/>
			<point x="560" y="642" type="line"/>
			<point name="n05" x="157" y="0" type="line"/>
			<point x="267" y="0" type="line"/>
		</contour>
	</outline>
</glyph>
<glyph name="eight" format="2">
	<unicode hex="0038"/>
	<advance width="558"/>
	<outline>
		<contour>
			<point x="77" y="144" type="curve" smooth="yes"/>
			<point x="77" y="35"/>
			<point x="163" y="-12"/>
			<point x="272" y="-12" type="curve" smooth="yes"/>
			<point x="428" y="-12"/>
			<point x="565" y="84"/>
			<point x="565" y="238" type="curve" smooth="yes"/>
			<point x="565" y="328"/>
			<point x="517" y="365"/>
			<point x="462" y="384" type="curve"/>
			<point x="550" y="425"/>
			<point x="629" y="498"/>
			<point x="629" y="592" type="curve" smooth="yes"/>
			<point x="629" y="688"/>
			<point x="547" y="736"/>
			<point x="449" y="736" type="curve" smooth="yes"/>
			<point x="321" y="736"/>
			<point x="185" y="655"/>
			<point x="185" y="519" type="curve" smooth="yes"/>
			<point x="185" y="449"/>
			<point x="221" y="404"/>
			<point x="265" y="383" type="curve"/>
			<point x="165" y="337"/>
			<point x="77" y="254"/>
		</contour>
		<contour>
			<point name="n24" x="373" y="420" type="curve" smooth="yes"/>
			<point x="315" y="420"/>
			<point x="275" y="455"/>
			<point x="275" y="517" type="curve" smooth="yes"/>
			<point x="275" y="598"/>
			<point x="343" y="659"/>
			<point x="431" y="659" type="curve" smooth="yes"/>
			<point x="491" y="659"/>
			<point x="528" y="630"/>
			<point x="528" y="571" type="curve" smooth="yes"/>
			<point x="528" y="490"/>
			<point x="457" y="420"/>
		</contour>
		<contour>
			<point x="178" y="167" type="curve" smooth="yes"/>
			<point x="178" y="262"/>
			<point x="254" y="343"/>
			<point name="n39" x="355" y="343" type="curve" smooth="yes"/>
			<point x="424" y="343"/>
			<point x="464" y="305"/>
			<point x="464" y="235" type="curve" smooth="yes"/>
			<point x="464" y="142"/>
			<point x="394" y="65"/>
			<point x="288" y="65" type="curve" smooth="yes"/>
			<point x="216" y="65"/>
			<point x="178" y="99"/>
		</contour>
	</outline>
</glyph>
<glyph name="nine" format="2">
	<unicode hex="0039"/>
	<advance width="558"/>
	<outline>
		<contour>
			<point x="202" y="172" type="curve"/>
			<point x="107" y="172" type="line"/>
			<point x="105" y="157"/>
			<point x="105" y="143"/>
			<point x="105" y="130" type="curve" smooth="yes"/>
			<point x="105" y="36"/>
			<point x="147" y="-12"/>
			<point x="247" y="-12" type="curve" smooth="yes"/>
			<point x="522" y="-12"/>
			<point x="631" y="354"/>
			<point x="631" y="577" type="curve" smooth="yes"/>
			<point x="631" y="674"/>
			<point x="589" y="736"/>
			<point x="442" y="736" type="curve" smooth="yes"/>
			<point x="266" y="736"/>
			<point x="156" y="598"/>
			<point x="156" y="443" type="curve" smooth="yes"/>
			<point x="156" y="341"/>
			<point x="203" y="276"/>
			<point x="313" y="276" type="curve" smooth="yes"/>
			<point x="394" y="276"/>
			<point x="457" y="311"/>
			<point x="503" y="370" type="curve"/>
			<point x="477" y="266"/>
			<point x="422" y="67"/>
			<point x="285" y="67" type="curve" smooth="yes"/>
			<point x="224" y="67"/>
			<point x="199" y="89"/>
			<point x="199" y="138" type="curve" smooth="yes"/>
			<point x="199" y="148"/>
			<point x="200" y="160"/>
		</contour>
		<contour>
			<point x="354" y="355" type="curve" smooth="yes"/>
			<point x="285" y="355"/>
			<point x="257" y="388"/>
			<point x="257" y="445" type="curve" smooth="yes"/>
			<point x="257" y="550"/>
			<point x="307" y="660"/>
			<point x="433" y="660" type="curve" smooth="yes"/>
			<point x="502" y="660"/>
			<point x="530" y="628"/>
			<point x="530" y="571" type="curve" smooth="yes"/>
			<point x="530" y="467"/>
			<point x="479" y="355"/>
		</contour>
	</outline>
</glyph>
<glyph name="colon" format="2">
  <advance width="275"/>
  <unicode hex="003A"/>
  <outline>
    <contour>
      <point x="293" y="377" type="line"/>
      <point x="321" y="500" type="line"/>
      <point x="213" y="500" type="line"/>
      <point x="185" y="377" type="line"/>
    </contour>
    <contour>
      <point x="206" y="0" type="line"/>
      <point x="234" y="123" type="line"/>
      <point x="126" y="123" type="line"/>
      <point x="98" y="0" type="line"/>
    </contour>
  </outline>
</glyph>
<glyph name="semicolon" format="2">
	<unicode hex="003B"/>
	<advance width="275"/>
	<outline>
		<contour>
			<point name="n00" x="293" y="377" type="line"/>
			<point name="n01" x="321" y="500" type="line"/>
			<point x="213" y="500" type="line"/>
			<point x="185" y="377" type="line"/>
		</contour>
		<contour>
			<point x="256" y="123" type="line"/>
			<point x="136" y="123" type="line"/>
			<point name="n06" x="19" y="-127" type="line"/>
			<point x="89" y="-127" type="line"/>
		</contour>
	</outline>
</glyph>
<glyph name="less" format="2">
	<unicode hex="003C"/>
	<advance width="700"/>
	<outline>
		<contour>
			<point name="n00" x="659" y="39" type="line"/>
			<point x="673" y="101" type="line"/>
			<point x="183" y="300" type="line"/>
			<point x="765" y="499" type="line"/>
			<point name="n04" x="780" y="561" type="line"/>
			<point x="126" y="331" type="line"/>
			<point name="n06" x="112" y="269" type="line"/>
		</contour>
	</outline>
</glyph>
<glyph name="equal" format="2">
	<unicode hex="003D"/>
	<advance width="700"/>
	<outline>
		<contour>
			<point name="n00" x="733" y="360" type="line"/>
			<point name="n01" x="747" y="422" type="line"/>
			<point x="147" y="422" type="line"/>
			<point x="133" y="360" type="line"/>
		</contour>
		<contour>
			<point name="n04" x="691" y="178" type="line"/>
			<point name="n05" x="705" y="240" type="line"/>
			<point x="105" y="240" type="line"/>
			<point x="91" y="178" type="line"/>
		</contour>
	</outline>
</glyph>
<glyph name="greater" format="2">
	<unicode hex="003E"/>
	<advance width="700"/>
	<outline>
		<contour>
			<point x="712" y="269" type="line"/>
			<point name="n01" x="726" y="331" type="line"/>
			<point x="180" y="561" type="line"/>
			<point name="n03" x="165" y="499" type="line"/>
			<point x="655" y="300" type="line"/>
			<point x="73" y="101" type="line"/>
			<point name="n06" x="59" y="39" type="line"/>
		</contour>
	</outline>
</glyph>
<glyph name="question" format="2">
  <advance width="516"/>
  <unicode hex="003F"/>
  <outline>
    <contour>
      <point x="239" y="263" type="curve"/>
      <point x="216" y="165" type="line"/>
      <point x="296" y="165" type="line"/>
      <point x="309" y="226" type="line" smooth="yes"/>
      <point x="323" y="292"/>
      <point x="392" y="342"/>
      <point x="455" y="385" type="curve" smooth="yes"/>
      <point x="526" y="434"/>
      <point x="592" y="491"/>
      <point x="592" y="581" type="curve" smooth="yes"/>
      <point x="592" y="683"/>
      <point x="505" y="736"/>
      <point x="402" y="736" type="curve" smooth="yes"/>
      <point x="308" y="736"/>
      <point x="229" y="692"/>
      <point x="164" y="605" type="curve"/>
      <point x="228" y="557" type="line"/>
      <point x="267" y="616"/>
      <point x="311" y="656"/>
      <point x="385" y="656" type="curve" smooth="yes"/>
      <point x="456" y="656"/>
      <point x="491" y="619"/>
      <point x="491" y="577" type="curve" smooth="yes"/>
      <point x="491" y="491"/>
      <point x="428" y="447"/>
      <point x="365" y="403" type="curve" smooth="yes"/>
      <point x="310" y="366"/>
      <point x="256" y="329"/>
    </contour>
    <contour>
      <point x="268" y="0" type="line"/>
      <point x="290" y="95" type="line"/>
      <point x="190" y="95" type="line"/>
      <point x="168" y="0" type="line"/>
    </contour>
  </outline>
</glyph>
<glyph name="at" format="2">
	<unicode hex="0040"/>
	<advance width="1000"/>
	<outline>
		<contour>
			<point x="110" y="150" type="curve" smooth="yes"/>
			<point x="110" y="-52"/>
			<point x="235" y="-178"/>
			<point name="n03" x="478" y="-178" type="curve" smooth="yes"/>
			<point x="559" y="-178"/>
			<point x="575" y="-175"/>
			<point x="646" y="-152" type="curve"/>
			<point x="665" y="-69" type="line"/>
			<point x="592" y="-88"/>
			<point x="577" y="-88"/>
			<point name="n10" x="490" y="-88" type="curve" smooth="yes"/>
			<point x="300" y="-88"/>
			<point x="208" y="5"/>
			<point x="208" y="166" type="curve" smooth="yes"/>
			<point x="208" y="423"/>
			<point x="375" y="626"/>
			<point name="n16" x="644" y="626" type="curve" smooth="yes"/>
			<point x="828" y="626"/>
			<point x="926" y="559"/>
			<point x="926" y="419" type="curve" smooth="yes"/>
			<point x="926" y="319"/>
			<point x="876" y="105"/>
			<point x="770" y="105" type="curve" smooth="yes"/>
			<point x="745" y="105"/>
			<point x="723" y="117"/>
			<point x="721" y="149" type="curve"/>
			<point x="799" y="485" type="line"/>
			<point x="709" y="485" type="line"/>
			<point x="695" y="427" type="line"/>
			<point x="668" y="470"/>
			<point x="651" y="492"/>
			<point x="570" y="492" type="curve" smooth="yes"/>
			<point x="425" y="492"/>
			<point x="330" y="322"/>
			<point x="330" y="190" type="curve" smooth="yes"/>
			<point x="330" y="101"/>
			<point x="373" y="26"/>
			<point name="n37" x="462" y="26" type="curve" smooth="yes"/>
			<point x="544" y="26"/>
			<point x="589" y="60"/>
			<point x="633" y="116" type="curve"/>
			<point x="647" y="53"/>
			<point x="684" y="21"/>
			<point x="747" y="21" type="curve" smooth="yes"/>
			<point x="920" y="21"/>
			<point x="1024" y="262"/>
			<point x="1024" y="426" type="curve" smooth="yes"/>
			<point x="1024" y="613"/>
			<point x="886" y="716"/>
			<point name="n49" x="656" y="716" type="curve" smooth="yes"/>
			<point x="340" y="716"/>
			<point x="110" y="457"/>
		</contour>
		<contour>
			<point x="424" y="192" type="curve" smooth="yes"/>
			<point x="424" y="281"/>
			<point x="472" y="423"/>
			<point x="580" y="423" type="curve" smooth="yes"/>
			<point x="638" y="423"/>
			<point x="661" y="381"/>
			<point x="661" y="326" type="curve" smooth="yes"/>
			<point x="661" y="239"/>
			<point x="603" y="95"/>
			<point name="n61" x="499" y="95" type="curve" smooth="yes"/>
			<point x="451" y="95"/>
			<point x="424" y="126"/>
		</contour>
	</outline>
</glyph>
<glyph name="A" format="2">
	<unicode hex="0041"/>
	<advance width="750"/>
	<outline>
		<contour>
			<point name="n00" x="735" y="0" type="line"/>
			<point name="n01" x="595" y="722" type="line"/>
			<point x="485" y="722" type="line"/>
			<point x="15" y="0" type="line"/>
			<point x="118" y="0" type="line"/>
			<point x="242" y="193" type="line"/>
			<point name="n06" x="596" y="193" type="line"/>
			<point x="629" y="0" type="line"/>
		</contour>
		<contour>
			<point name="n08" x="573" y="278" type="line"/>
			<point x="300" y="278" type="line"/>
			<point x="512" y="611" type="line"/>
		</contour>
	</outline>
</glyph>
<glyph name="B" format="2">
	<unicode hex="0042"/>
	<advance width="643"/>
	<outline>
		<contour>
			<point x="61" y="0" type="line"/>
			<point name="n01" x="377" y="0" type="line" smooth="yes"/>
			<point x="507" y="0"/>
			<point x="644" y="110"/>
			<point x="644" y="241" type="curve" smooth="yes"/>
			<point x="644" y="322"/>
			<point x="591" y="363"/>
			<point x="534" y="385" type="curve"/>
			<point x="535" y="390" type="line"/>
			<point x="629" y="416"/>
			<point x="698" y="485"/>
			<point x="698" y="578" type="curve" smooth="yes"/>
			<point x="698" y="677"/>
			<point x="621" y="722"/>
			<point name="n14" x="518" y="722" type="curve" smooth="yes"/>
			<point x="228" y="722" type="line"/>
		</contour>
		<contour>
			<point name="n16" x="259" y="420" type="line"/>
			<point x="309" y="635" type="line"/>
			<point name="n18" x="468" y="635" type="line" smooth="yes"/>
			<point x="557" y="635"/>
			<point x="597" y="608"/>
			<point x="597" y="557" type="curve" smooth="yes"/>
			<point x="597" y="454"/>
			<point x="505" y="420"/>
			<point x="416" y="420" type="curve" smooth="yes"/>
		</contour>
		<contour>
			<point x="182" y="87" type="line"/>
			<point name="n26" x="240" y="337" type="line"/>
			<point x="392" y="337" type="line" smooth="yes"/>
			<point x="482" y="337"/>
			<point x="550" y="313"/>
			<point x="550" y="236" type="curve" smooth="yes"/>
			<point x="550" y="135"/>
			<point x="432" y="87"/>
			<point name="n33" x="339" y="87" type="curve" smooth="yes"/>
		</contour>
	</outline>
</glyph>
<glyph name="C" format="2">
	<unicode hex="0043"/>
	<advance width="660"/>
	<outline>
		<contour>
			<point x="114" y="217" type="curve" smooth="yes"/>
			<point x="114" y="78"/>
			<point x="180" y="-12"/>
			<point x="344" y="-12" type="curve" smooth="yes"/>
			<point x="489" y="-12"/>
			<point x="625" y="60"/>
			<point x="656" y="195" type="curve"/>
			<point x="555" y="195" type="line"/>
			<point x="536" y="111"/>
			<point x="470" y="69"/>
			<point x="370" y="69" type="curve" smooth="yes"/>
			<point x="254" y="69"/>
			<point x="215" y="124"/>
			<point x="215" y="217" type="curve" smooth="yes"/>
			<point x="215" y="389"/>
			<point x="298" y="655"/>
			<point x="503" y="655" type="curve" smooth="yes"/>
			<point x="587" y="655"/>
			<point x="633" y="631"/>
			<point x="633" y="567" type="curve" smooth="yes"/>
			<point x="633" y="558"/>
			<point x="632" y="544"/>
			<point x="628" y="529" type="curve"/>
			<point x="728" y="529" type="line"/>
			<point x="732" y="548"/>
			<point x="734" y="564"/>
			<point x="734" y="581" type="curve" smooth="yes"/>
			<point x="734" y="684"/>
			<point x="651" y="736"/>
			<point x="530" y="736" type="curve" smooth="yes"/>
			<point x="251" y="736"/>
			<point x="114" y="458"/>
		</contour>
	</outline>
</glyph>
<glyph name="H" format="2">
  <advance width="703"/>
  <unicode hex="0048"/>
  <anchor x="340" y="-60" name="bottom"/>
  <anchor x="505" y="800" name="top"/>
  <outline>
    <contour>
      <point x="626" y="0" type="line"/>
      <point x="793" y="722" type="line"/>
      <point x="692" y="722" type="line"/>
      <point x="620" y="413" type="line"/>
      <point x="273" y="413" type="line"/>
      <point x="345" y="722" type="line"/>
      <point x="244" y="722" type="line"/>
      <point x="77" y="0" type="line"/>
      <point x="178" y="0" type="line"/>
      <point x="253" y="326" type="line"/>
      <point x="600" y="326" type="line"/>
      <point x="525" y="0" type="line"/>
    </contour>
  </outline>
</glyph>
<glyph name="J" format="2">
  <advance width="539"/>
  <unicode hex="004A"/>
  <anchor x="598" y="800" name="top"/>
  <outline>
    <contour>
      <point x="95" y="194" type="line"/>
      <point x="91" y="175"/>
      <point x="89" y="157"/>
      <point x="89" y="140" type="curve" smooth="yes"/>
      <point x="89" y="47"/>
      <point x="152" y="-14"/>
      <point x="257" y="-14" type="curve" smooth="yes"/>
      <point x="389" y="-14"/>
      <point x="499" y="81"/>
      <point x="530" y="215" type="curve" smooth="yes"/>
      <point x="647" y="722" type="line"/>
      <point x="546" y="722" type="line"/>
      <point x="429" y="215" type="line" smooth="yes"/>
      <point x="411" y="135"/>
      <point x="355" y="74"/>
      <point x="274" y="74" type="curve" smooth="yes"/>
      <point x="220" y="74"/>
      <point x="190" y="101"/>
      <point x="190" y="155" type="curve" smooth="yes"/>
      <point x="190" y="166"/>
      <point x="191" y="180"/>
      <point x="194" y="194" type="curve"/>
    </contour>
  </outline>
</glyph>
<glyph name="K" format="2">
  <advance width="635"/>
  <unicode hex="004B"/>
  <anchor x="315" y="-60" name="bottom"/>
  <anchor x="455" y="800" name="top"/>
  <outline>
    <contour>
      <point x="613" y="0" type="line"/>
      <point x="361" y="399" type="line"/>
      <point x="750" y="722" type="line"/>
      <point x="616" y="722" type="line"/>
      <point x="261" y="435" type="line"/>
      <point x="328" y="722" type="line"/>
      <point x="227" y="722" type="line"/>
      <point x="60" y="0" type="line"/>
      <point x="161" y="0" type="line"/>
      <point x="249" y="381" type="line"/>
      <point x="485" y="0" type="line"/>
    </contour>
  </outline>
</glyph>
<glyph name="L" format="2">
  <advance width="495"/>
  <unicode hex="004C"/>
  <anchor x="241" y="-60" name="bottom"/>
  <anchor x="423" y="363" name="dotCN"/>
  <anchor x="290" y="800" name="top"/>
  <outline>
    <contour>
      <point x="480" y="0" type="line"/>
      <point x="500" y="87" type="line"/>
      <point x="181" y="87" type="line"/>
      <point x="328" y="722" type="line"/>
      <point x="227" y="722" type="line"/>
      <point x="60" y="0" type="line"/>
    </contour>
  </outline>
</glyph>
<glyph name="N" format="2">
  <advance width="683"/>
  <unicode hex="004E"/>
  <anchor x="345" y="-60" name="bottom"/>
  <anchor x="524" y="800" name="top"/>
  <outline>
    <contour>
      <point x="623" y="0" type="line"/>
      <point x="790" y="722" type="line"/>
      <point x="689" y="722" type="line"/>
      <point x="552" y="130" type="line"/>
      <point x="370" y="722" type="line"/>
      <point x="227" y="722" type="line"/>
      <point x="60" y="0" type="line"/>
      <point x="161" y="0" type="line"/>
      <point x="298" y="592" type="line"/>
      <point x="479" y="0" type="line"/>
    </contour>
  </outline>
</glyph>
<glyph name="O" format="2">
  <advance width="754"/>
  <unicode hex="004F"/>
  <anchor x="360" y="-60" name="bottom"/>
  <anchor x="373" y="10" name="bottomUC"/>
  <anchor x="557" y="800" name="top"/>
  <outline>
    <contour>
      <point x="463" y="80" type="line"/>
      <point x="441" y="73"/>
      <point x="418" y="70"/>
      <point x="393" y="70" type="curve" smooth="yes"/>
      <point x="272" y="70"/>
      <point x="225" y="148"/>
      <point x="225" y="254" type="curve" smooth="yes"/>
      <point x="225" y="416"/>
      <point x="296" y="605"/>
      <point x="463" y="646" type="curve"/>
      <point x="463" y="727" type="line"/>
      <point x="246" y="682"/>
      <point x="122" y="468"/>
      <point x="122" y="250" type="curve" smooth="yes"/>
      <point x="122" y="96"/>
      <point x="202" y="-12"/>
      <point x="372" y="-12" type="curve" smooth="yes"/>
      <point x="404" y="-12"/>
      <point x="434" y="-8"/>
      <point x="463" y="-1" type="curve"/>
    </contour>
    <contour>
      <point x="463" y="646" type="line"/>
      <point x="485" y="653"/>
      <point x="508" y="656"/>
      <point x="533" y="656" type="curve" smooth="yes"/>
      <point x="654" y="656"/>
      <point x="701" y="578"/>
      <point x="701" y="472" type="curve" smooth="yes"/>
      <point x="701" y="310"/>
      <point x="630" y="121"/>
      <point x="463" y="80" type="curve"/>
      <point x="463" y="-1" type="line"/>
      <point x="680" y="44"/>
      <point x="804" y="258"/>
      <point x="804" y="476" type="curve" smooth="yes"/>
      <point x="804" y="630"/>
      <point x="724" y="738"/>
      <point x="554" y="738" type="curve" smooth="yes"/>
      <point x="522" y="738"/>
      <point x="492" y="734"/>
      <point x="463" y="727" type="curve"/>
    </contour>
  </outline>
  <guideline angle="90" x="463" y="0"/>
</glyph>
<glyph name="Q" format="2">
  <advance width="805"/>
  <unicode hex="0051"/>
  <anchor x="563" y="800" name="top"/>
  <outline>
    <contour>
      <point x="121" y="262" type="curve" smooth="yes"/>
      <point x="121" y="105"/>
      <point x="192" y="-12"/>
      <point x="364" y="-12" type="curve" smooth="yes"/>
      <point x="407" y="-12"/>
      <point x="436" y="-9"/>
      <point x="465" y="-6" type="curve" smooth="yes"/>
      <point x="496" y="-3"/>
      <point x="527" y="0"/>
      <point x="577" y="0" type="curve" smooth="yes"/>
      <point x="756" y="0" type="line"/>
      <point x="777" y="87" type="line"/>
      <point x="719" y="87"/>
      <point x="666" y="84"/>
      <point x="612" y="72" type="curve"/>
      <point x="728" y="167"/>
      <point x="805" y="334"/>
      <point x="805" y="483" type="curve" smooth="yes"/>
      <point x="805" y="633"/>
      <point x="726" y="734"/>
      <point x="552" y="734" type="curve" smooth="yes"/>
      <point x="284" y="734"/>
      <point x="121" y="498"/>
    </contour>
    <contour>
      <point x="224" y="254" type="curve" smooth="yes"/>
      <point x="224" y="439"/>
      <point x="314" y="652"/>
      <point x="531" y="652" type="curve" smooth="yes"/>
      <point x="653" y="652"/>
      <point x="702" y="584"/>
      <point x="702" y="482" type="curve" smooth="yes"/>
      <point x="702" y="302"/>
      <point x="600" y="70"/>
      <point x="390" y="70" type="curve" smooth="yes"/>
      <point x="271" y="70"/>
      <point x="224" y="145"/>
    </contour>
  </outline>
</glyph>
<glyph name="R" format="2">
  <advance width="617"/>
  <unicode hex="0052"/>
  <anchor x="298" y="-60" name="bottom"/>
  <anchor x="428" y="800" name="top"/>
  <outline>
    <contour>
      <point x="59" y="0" type="line"/>
      <point x="160" y="0" type="line"/>
      <point x="236" y="326" type="line"/>
      <point x="355" y="326" type="line" smooth="yes"/>
      <point x="451" y="326"/>
      <point x="474" y="300"/>
      <point x="474" y="209" type="curve" smooth="yes"/>
      <point x="474" y="145"/>
      <point x="463" y="101"/>
      <point x="463" y="41" type="curve" smooth="yes"/>
      <point x="463" y="32"/>
      <point x="463" y="14"/>
      <point x="465" y="0" type="curve"/>
      <point x="568" y="0" type="line"/>
      <point x="565" y="16"/>
      <point x="564" y="36"/>
      <point x="564" y="59" type="curve" smooth="yes"/>
      <point x="564" y="135"/>
      <point x="575" y="201"/>
      <point x="575" y="274" type="curve" smooth="yes"/>
      <point x="575" y="321"/>
      <point x="550" y="353"/>
      <point x="498" y="368" type="curve"/>
      <point x="603" y="401"/>
      <point x="676" y="469"/>
      <point x="676" y="577" type="curve" smooth="yes"/>
      <point x="676" y="684"/>
      <point x="602" y="722"/>
      <point x="455" y="722" type="curve" smooth="yes"/>
      <point x="226" y="722" type="line"/>
    </contour>
    <contour>
      <point x="256" y="414" type="line"/>
      <point x="306" y="634" type="line"/>
      <point x="431" y="634" type="line" smooth="yes"/>
      <point x="513" y="634"/>
      <point x="573" y="618"/>
      <point x="573" y="555" type="curve" smooth="yes"/>
      <point x="573" y="443"/>
      <point x="476" y="414"/>
      <point x="381" y="414" type="curve" smooth="yes"/>
    </contour>
  </outline>
</glyph>
<glyph name="U" format="2">
  <advance width="697"/>
  <unicode hex="0055"/>
  <anchor x="348" y="10" name="bottomUC"/>
  <anchor x="519" y="800" name="top"/>
  <outline>
    <contour>
      <point x="115" y="180" type="curve" smooth="yes"/>
      <point x="115" y="49"/>
      <point x="180" y="-12"/>
      <point x="353" y="-12" type="curve" smooth="yes"/>
      <point x="563" y="-12"/>
      <point x="654" y="78"/>
      <point x="710" y="322" type="curve" smooth="yes"/>
      <point x="803" y="722" type="line"/>
      <point x="702" y="722" type="line"/>
      <point x="609" y="322" type="line" smooth="yes"/>
      <point x="574" y="171"/>
      <point x="512" y="76"/>
      <point x="363" y="76" type="curve" smooth="yes"/>
      <point x="257" y="76"/>
      <point x="218" y="123"/>
      <point x="218" y="207" type="curve" smooth="yes"/>
      <point x="218" y="240"/>
      <point x="224" y="279"/>
      <point x="234" y="322" type="curve" smooth="yes"/>
      <point x="327" y="722" type="line"/>
      <point x="226" y="722" type="line"/>
      <point x="134" y="322" type="line" smooth="yes"/>
      <point x="121" y="267"/>
      <point x="115" y="220"/>
    </contour>
  </outline>
</glyph>
<glyph name="W" format="2">
	<unicode hex="0057"/>
	<advance width="972"/>
	<outline>
		<contour>
			<point name="n00" x="1124" y="722" type="line"/>
			<point x="1018" y="722" type="line"/>
			<point x="733" y="150" type="line"/>
			<point name="n03" x="713" y="722" type="line"/>
			<point x="593" y="722" type="line"/>
			<point x="309" y="150" type="line"/>
			<point name="n06" x="288" y="722" type="line"/>
			<point name="n07" x="182" y="722" type="line"/>
			<point name="n08" x="229" y="0" type="line"/>
			<point x="319" y="0" type="line"/>
			<point name="n10" x="625" y="602" type="line"/>
			<point x="653" y="0" type="line"/>
			<point x="743" y="0" type="line"/>
		</contour>
	</outline>
</glyph>
<glyph name="Y" format="2">
  <advance width="666"/>
  <unicode hex="0059"/>
  <anchor x="510" y="800" name="top"/>
  <outline>
    <contour>
      <point x="818" y="722" type="line"/>
      <point x="704" y="722" type="line"/>
      <point x="426" y="375" type="line"/>
      <point x="305" y="722" type="line"/>
      <point x="182" y="722" type="line"/>
      <point x="348" y="287" type="line"/>
      <point x="282" y="0" type="line"/>
      <point x="383" y="0" type="line"/>
      <point x="449" y="287" type="line"/>
    </contour>
  </outline>
</glyph>
<glyph name="bracketleft" format="2">
  <advance width="396"/>
  <unicode hex="005B"/>
  <outline>
    <contour>
      <point x="246" y="-198" type="line"/>
      <point x="258" y="-147" type="line"/>
      <point x="158" y="-147" type="line"/>
      <point x="347" y="671" type="line"/>
      <point x="447" y="671" type="line"/>
      <point x="459" y="722" type="line"/>
      <point x="273" y="722" type="line"/>
      <point x="60" y="-198" type="line"/>
    </contour>
  </outline>
</glyph>
<glyph name="backslash" format="2">
	<unicode hex="005C"/>
	<advance width="396"/>
	<outline>
		<contour>
			<point name="n00" x="339" y="-52" type="line"/>
			<point name="n01" x="285" y="736" type="line"/>
			<point name="n02" x="216" y="736" type="line"/>
			<point x="270" y="-52" type="line"/>
		</contour>
	</outline>
</glyph>
<glyph name="bracketright" format="2">
  <advance width="396"/>
  <unicode hex="005D"/>
  <outline>
    <contour>
      <point x="246" y="-198" type="line"/>
      <point x="459" y="722" type="line"/>
      <point x="273" y="722" type="line"/>
      <point x="261" y="671" type="line"/>
      <point x="360" y="671" type="line"/>
      <point x="171" y="-147" type="line"/>
      <point x="72" y="-147" type="line"/>
      <point x="60" y="-198" type="line"/>
    </contour>
  </outline>
</glyph>
<glyph name="asciicircum" format="2">
	<unicode hex="005E"/>
	<advance width="622"/>
	<outline>
		<contour>
			<point name="n00" x="574" y="10" type="line"/>
			<point x="483" y="610" type="line"/>
			<point name="n02" x="421" y="610" type="line"/>
			<point name="n03" x="52" y="10" type="line"/>
			<point x="114" y="10" type="line"/>
			<point name="n05" x="437" y="546" type="line"/>
			<point x="512" y="10" type="line"/>
		</contour>
	</outline>
</glyph>
<glyph name="underscore" format="2">
	<unicode hex="005F"/>
	<advance width="500"/>
	<outline>
		<contour>
			<point name="n00" x="470" y="-129" type="line"/>
			<point name="n01" x="483" y="-74" type="line"/>
			<point x="-17" y="-74" type="line"/>
			<point x="-30" y="-129" type="line"/>
		</contour>
	</outline>
</glyph>
<glyph name="grave" format="2">
	<unicode hex="0060"/>
	<advance width="229"/>
	<outline>
		<contour>
			<point name="n00" x="315" y="600" type="line"/>
			<point name="n01" x="254" y="771" type="line"/>
			<point name="n02" x="153" y="771" type="line"/>
			<point name="n03" x="254" y="600" type="line"/>
		</contour>
	</outline>
</glyph>
<glyph name="a" format="2">
	<unicode hex="0061"/>
	<advance width="561"/>
	<outline>
		<contour>
			<point x="88" y="177" type="curve" smooth="yes"/>
			<point x="88" y="66"/>
			<point x="149" y="-12"/>
			<point x="269" y="-12" type="curve" smooth="yes"/>
			<point x="329" y="-12"/>
			<point x="401" y="29"/>
			<point x="434" y="58" type="curve"/>
			<point name="n07" x="421" y="0" type="line"/>
			<point x="511" y="0" type="line"/>
			<point name="n09" x="626" y="500" type="line"/>
			<point x="532" y="479" type="line"/>
			<point x="521" y="435" type="line"/>
			<point x="498" y="479"/>
			<point x="459" y="512"/>
			<point x="384" y="512" type="curve" smooth="yes"/>
			<point x="209" y="512"/>
			<point x="88" y="332"/>
		</contour>
		<contour>
			<point x="182" y="189" type="curve" smooth="yes"/>
			<point x="182" y="291"/>
			<point x="252" y="448"/>
			<point x="368" y="448" type="curve" smooth="yes"/>
			<point x="445" y="448"/>
			<point x="487" y="405"/>
			<point x="487" y="315" type="curve" smooth="yes"/>
			<point x="487" y="205"/>
			<point x="424" y="57"/>
			<point x="297" y="57" type="curve" smooth="yes"/>
			<point x="216" y="57"/>
			<point x="182" y="117"/>
		</contour>
	</outline>
	<anchor name="top" x="357" y="600"/>
</glyph>
<glyph name="d" format="2">
	<unicode hex="0064"/>
	<advance width="561"/>
	<outline>
		<contour>
			<point x="189" y="248" type="curve" smooth="yes"/>
			<point x="212" y="346"/>
			<point x="271" y="449"/>
			<point name="n03" x="368" y="449" type="curve" smooth="yes"/>
			<point x="467" y="449"/>
			<point x="508" y="376"/>
			<point x="477" y="242" type="curve" smooth="yes"/>
			<point x="451" y="129"/>
			<point x="386" y="55"/>
			<point name="n09" x="289" y="55" type="curve" smooth="yes"/>
			<point x="197" y="55"/>
			<point x="167" y="152"/>
		</contour>
		<contour>
			<point name="n12" x="511" y="0" type="line"/>
			<point name="n13" x="678" y="722" type="line"/>
			<point x="588" y="722" type="line"/>
			<point x="521" y="435" type="line"/>
			<point x="498" y="479"/>
			<point x="459" y="513"/>
			<point name="n18" x="381" y="513" type="curve" smooth="yes"/>
			<point x="265" y="513"/>
			<point x="137" y="421"/>
			<point x="97" y="247" type="curve" smooth="yes"/>
			<point x="64" y="103"/>
			<point x="122" y="-13"/>
			<point name="n24" x="269" y="-13" type="curve" smooth="yes"/>
			<point x="329" y="-13"/>
			<point x="401" y="28"/>
			<point x="434" y="57" type="curve"/>
			<point x="421" y="0" type="line"/>
		</contour>
	</outline>
</glyph>
<glyph name="e" format="2">
  <advance width="571"/>
  <unicode hex="0065"/>
  <anchor x="273" y="-60" name="bottom"/>
  <anchor x="411" y="580" name="top"/>
  <outline>
    <contour>
      <point x="108" y="172" type="curve" smooth="yes"/>
      <point x="108" y="58"/>
      <point x="161" y="-12"/>
      <point x="289" y="-12" type="curve" smooth="yes"/>
      <point x="415" y="-12"/>
      <point x="507" y="57"/>
      <point x="552" y="162" type="curve"/>
      <point x="455" y="162" type="line"/>
      <point x="435" y="100"/>
      <point x="382" y="53"/>
      <point x="311" y="53" type="curve" smooth="yes"/>
      <point x="238" y="53"/>
      <point x="202" y="103"/>
      <point x="202" y="174" type="curve" smooth="yes"/>
      <point x="202" y="194"/>
      <point x="205" y="214"/>
      <point x="210" y="236" type="curve"/>
      <point x="569" y="236" type="line"/>
      <point x="580" y="271"/>
      <point x="588" y="310"/>
      <point x="588" y="348" type="curve" smooth="yes"/>
      <point x="588" y="452"/>
      <point x="526" y="512"/>
      <point x="413" y="512" type="curve" smooth="yes"/>
      <point x="218" y="512"/>
      <point x="108" y="334"/>
    </contour>
    <contour>
      <point x="226" y="301" type="line"/>
      <point x="251" y="399"/>
      <point x="317" y="447"/>
      <point x="394" y="447" type="curve" smooth="yes"/>
      <point x="472" y="447"/>
      <point x="494" y="397"/>
      <point x="494" y="346" type="curve" smooth="yes"/>
      <point x="494" y="331"/>
      <point x="492" y="315"/>
      <point x="489" y="301" type="curve"/>
    </contour>
  </outline>
</glyph>
<glyph name="g" format="2">
  <advance width="617"/>
  <unicode hex="0067"/>
  <anchor x="399" y="580" name="top"/>
  <outline>
    <contour>
      <point x="110" y="182" type="curve" smooth="yes"/>
      <point x="110" y="75"/>
      <point x="164" y="14"/>
      <point x="277" y="14" type="curve" smooth="yes"/>
      <point x="365" y="14"/>
      <point x="418" y="51"/>
      <point x="463" y="94" type="curve"/>
      <point x="423" y="-78"/>
      <point x="365" y="-136"/>
      <point x="276" y="-136" type="curve" smooth="yes"/>
      <point x="216" y="-136"/>
      <point x="168" y="-110"/>
      <point x="168" y="-61" type="curve" smooth="yes"/>
      <point x="168" y="-55"/>
      <point x="169" y="-48"/>
      <point x="171" y="-40" type="curve"/>
      <point x="78" y="-40" type="line"/>
      <point x="75" y="-53"/>
      <point x="74" y="-63"/>
      <point x="74" y="-73" type="curve" smooth="yes"/>
      <point x="74" y="-155"/>
      <point x="144" y="-200"/>
      <point x="245" y="-200" type="curve" smooth="yes"/>
      <point x="394" y="-200"/>
      <point x="505" y="-103"/>
      <point x="536" y="29" type="curve" smooth="yes"/>
      <point x="644" y="500" type="line"/>
      <point x="554" y="500" type="line"/>
      <point x="542" y="444" type="line"/>
      <point x="525" y="482"/>
      <point x="469" y="512"/>
      <point x="397" y="512" type="curve" smooth="yes"/>
      <point x="224" y="512"/>
      <point x="110" y="338"/>
    </contour>
    <contour>
      <point x="204" y="203" type="curve" smooth="yes"/>
      <point x="204" y="306"/>
      <point x="262" y="448"/>
      <point x="390" y="448" type="curve" smooth="yes"/>
      <point x="473" y="448"/>
      <point x="509" y="409"/>
      <point x="509" y="328" type="curve" smooth="yes"/>
      <point x="509" y="220"/>
      <point x="444" y="78"/>
      <point x="312" y="78" type="curve" smooth="yes"/>
      <point x="235" y="78"/>
      <point x="204" y="127"/>
    </contour>
  </outline>
</glyph>
<glyph name="h" format="2">
  <advance width="610"/>
  <unicode hex="0068"/>
  <anchor x="305" y="-60" name="bottom"/>
  <anchor x="312" y="800" name="top"/>
  <outline>
    <contour>
      <point x="93" y="0" type="line"/>
      <point x="183" y="0" type="line"/>
      <point x="252" y="301" type="line" smooth="yes"/>
      <point x="274" y="396"/>
      <point x="364" y="445"/>
      <point x="430" y="445" type="curve" smooth="yes"/>
      <point x="487" y="445"/>
      <point x="513" y="408"/>
      <point x="513" y="354" type="curve" smooth="yes"/>
      <point x="513" y="343"/>
      <point x="511" y="329"/>
      <point x="508" y="314" type="curve" smooth="yes"/>
      <point x="437" y="0" type="line"/>
      <point x="527" y="0" type="line"/>
      <point x="596" y="310" type="line" smooth="yes"/>
      <point x="603" y="340"/>
      <point x="607" y="367"/>
      <point x="607" y="391" type="curve" smooth="yes"/>
      <point x="607" y="474"/>
      <point x="560" y="512"/>
      <point x="471" y="512" type="curve" smooth="yes"/>
      <point x="389" y="512"/>
      <point x="324" y="479"/>
      <point x="284" y="437" type="curve"/>
      <point x="350" y="722" type="line"/>
      <point x="260" y="722" type="line"/>
    </contour>
  </outline>
</glyph>
<glyph name="i" format="2">
  <advance width="284"/>
  <unicode hex="0069"/>
  <anchor x="131" y="-60" name="bottom"/>
  <anchor x="140" y="10" name="bottomUC"/>
  <outline>
    <contour>
      <point x="183" y="0" type="line"/>
      <point x="298" y="500" type="line"/>
      <point x="208" y="500" type="line"/>
      <point x="93" y="0" type="line"/>
    </contour>
    <contour>
      <point x="336" y="630" type="line"/>
      <point x="358" y="722" type="line"/>
      <point x="252" y="722" type="line"/>
      <point x="230" y="630" type="line"/>
    </contour>
  </outline>
</glyph>
<glyph name="j" format="2">
  <advance width="235"/>
  <unicode hex="006A"/>
  <outline>
    <contour>
      <point x="-35" y="-200" type="line"/>
      <point x="9" y="-200" type="line" smooth="yes"/>
      <point x="79" y="-200"/>
      <point x="139" y="-161"/>
      <point x="159" y="-74" type="curve" smooth="yes"/>
      <point x="291" y="500" type="line"/>
      <point x="201" y="500" type="line"/>
      <point x="76" y="-44" type="line" smooth="yes"/>
      <point x="64" y="-96"/>
      <point x="44" y="-135"/>
      <point x="-10" y="-135" type="curve" smooth="yes"/>
      <point x="-22" y="-135" type="line"/>
    </contour>
    <contour>
      <point x="224" y="630" type="line"/>
      <point x="330" y="630" type="line"/>
      <point x="352" y="722" type="line"/>
      <point x="246" y="722" type="line"/>
    </contour>
  </outline>
</glyph>
<glyph name="k" format="2">
	<unicode hex="006B"/>
	<advance width="479"/>
	<outline>
		<contour>
			<point name="n00" x="459" y="0" type="line"/>
			<point x="308" y="282" type="line"/>
			<point name="n02" x="558" y="500" type="line"/>
			<point x="445" y="500" type="line"/>
			<point x="207" y="292" type="line"/>
			<point name="n05" x="307" y="722" type="line"/>
			<point x="217" y="722" type="line"/>
			<point x="50" y="0" type="line"/>
			<point x="140" y="0" type="line"/>
			<point x="202" y="267" type="line"/>
			<point x="340" y="0" type="line"/>
		</contour>
	</outline>
</glyph>
<glyph name="l" format="2">
	<unicode hex="006C"/>
	<advance width="230"/>
	<outline>
		<contour>
			<point name="n00" x="160" y="0" type="line"/>
			<point name="n01" x="327" y="722" type="line"/>
			<point x="237" y="722" type="line"/>
			<point name="n03" x="70" y="0" type="line"/>
		</contour>
	</outline>
</glyph>
<glyph name="n" format="2">
	<unicode hex="006E"/>
	<advance width="534"/>
	<outline>
		<contour>
			<point name="n00" x="377" y="453" type="line"/>
			<point x="444" y="453"/>
			<point x="486" y="398"/>
			<point x="471" y="331" type="curve" smooth="yes"/>
			<point name="n04" x="395" y="0" type="line"/>
			<point x="484" y="0" type="line"/>
			<point x="560" y="329" type="line" smooth="yes"/>
			<point x="588" y="452"/>
			<point x="538" y="513"/>
			<point name="n09" x="410" y="513" type="curve" smooth="yes"/>
			<point x="310" y="513"/>
			<point x="286" y="473"/>
			<point x="240" y="436" type="curve"/>
			<point name="n13" x="254" y="500" type="line"/>
			<point x="164" y="500" type="line"/>
			<point x="49" y="0" type="line"/>
			<point x="139" y="0" type="line"/>
			<point x="214" y="323" type="line" smooth="yes"/>
			<point x="231" y="398"/>
			<point name="hr02" x="302" y="453"/>
			<point x="376" y="453" type="curve"/>
		</contour>
	</outline>
</glyph>
<glyph name="o" format="2">
  <advance width="618"/>
  <unicode hex="006F"/>
  <anchor x="296" y="-60" name="bottom"/>
  <anchor x="439" y="580" name="top"/>
  <outline>
    <contour>
      <point x="109" y="181" type="curve" smooth="yes"/>
      <point x="109" y="57"/>
      <point x="182" y="-12"/>
      <point x="307" y="-12" type="curve" smooth="yes"/>
      <point x="497" y="-12"/>
      <point x="630" y="148"/>
      <point x="630" y="328" type="curve" smooth="yes"/>
      <point x="630" y="442"/>
      <point x="559" y="512"/>
      <point x="434" y="512" type="curve" smooth="yes"/>
      <point x="245" y="512"/>
      <point x="109" y="351"/>
    </contour>
    <contour>
      <point x="207" y="187" type="curve" smooth="yes"/>
      <point x="207" y="302"/>
      <point x="290" y="447"/>
      <point x="415" y="447" type="curve" smooth="yes"/>
      <point x="496" y="447"/>
      <point x="532" y="386"/>
      <point x="532" y="310" type="curve" smooth="yes"/>
      <point x="532" y="195"/>
      <point x="451" y="53"/>
      <point x="325" y="53" type="curve" smooth="yes"/>
      <point x="243" y="53"/>
      <point x="207" y="112"/>
    </contour>
  </outline>
</glyph>
<glyph name="p" format="2">
  <advance width="625"/>
  <unicode hex="0070"/>
  <anchor x="326" y="-60" name="bottom"/>
  <anchor x="445" y="580" name="top"/>
  <outline>
    <contour>
      <point x="51" y="-200" type="line"/>
      <point x="141" y="-200" type="line"/>
      <point x="200" y="58" type="line"/>
      <point x="219" y="13"/>
      <point x="270" y="-12"/>
      <point x="339" y="-12" type="curve" smooth="yes"/>
      <point x="525" y="-12"/>
      <point x="638" y="169"/>
      <point x="638" y="332" type="curve" smooth="yes"/>
      <point x="638" y="449"/>
      <point x="581" y="512"/>
      <point x="477" y="512" type="curve" smooth="yes"/>
      <point x="402" y="512"/>
      <point x="332" y="479"/>
      <point x="285" y="421" type="curve"/>
      <point x="301" y="500" type="line"/>
      <point x="212" y="500" type="line"/>
    </contour>
    <contour>
      <point x="232" y="178" type="curve" smooth="yes"/>
      <point x="232" y="293"/>
      <point x="295" y="448"/>
      <point x="437" y="448" type="curve" smooth="yes"/>
      <point x="508" y="448"/>
      <point x="544" y="409"/>
      <point x="544" y="326" type="curve" smooth="yes"/>
      <point x="544" y="212"/>
      <point x="476" y="52"/>
      <point x="337" y="52" type="curve" smooth="yes"/>
      <point x="257" y="52"/>
      <point x="232" y="105"/>
    </contour>
  </outline>
</glyph>
<glyph name="q" format="2">
  <advance width="629"/>
  <unicode hex="0071"/>
  <anchor x="271" y="-60" name="bottom"/>
  <anchor x="422" y="580" name="top"/>
  <outline>
    <contour>
      <point x="107" y="155" type="curve" smooth="yes"/>
      <point x="107" y="53"/>
      <point x="161" y="-13"/>
      <point x="288" y="-13" type="curve" smooth="yes"/>
      <point x="338" y="-13"/>
      <point x="396" y="11"/>
      <point x="461" y="53" type="curve"/>
      <point x="403" y="-200" type="line"/>
      <point x="495" y="-200" type="line"/>
      <point x="656" y="500" type="line"/>
      <point x="567" y="500" type="line"/>
      <point x="552" y="435" type="line"/>
      <point x="516" y="491"/>
      <point x="474" y="513"/>
      <point x="402" y="513" type="curve" smooth="yes"/>
      <point x="214" y="513"/>
      <point x="107" y="334"/>
    </contour>
    <contour>
      <point x="205" y="181" type="curve" smooth="yes"/>
      <point x="205" y="293"/>
      <point x="276" y="448"/>
      <point x="407" y="448" type="curve" smooth="yes"/>
      <point x="483" y="448"/>
      <point x="516" y="397"/>
      <point x="516" y="321" type="curve" smooth="yes"/>
      <point x="516" y="209"/>
      <point x="446" y="52"/>
      <point x="315" y="52" type="curve" smooth="yes"/>
      <point x="237" y="52"/>
      <point x="205" y="106"/>
    </contour>
  </outline>
</glyph>
<glyph name="r" format="2">
  <advance width="397"/>
  <unicode hex="0072"/>
  <anchor x="128" y="-60" name="bottom"/>
  <anchor x="352" y="580" name="top"/>
  <outline>
    <contour>
      <point x="93" y="0" type="line"/>
      <point x="183" y="0" type="line"/>
      <point x="248" y="280" type="line" smooth="yes"/>
      <point x="269" y="373"/>
      <point x="341" y="420"/>
      <point x="462" y="420" type="curve"/>
      <point x="480" y="500" type="line"/>
      <point x="360" y="500"/>
      <point x="322" y="481"/>
      <point x="283" y="432" type="curve"/>
      <point x="298" y="500" type="line"/>
      <point x="208" y="500" type="line"/>
    </contour>
  </outline>
</glyph>
<glyph name="t" format="2">
  <advance width="370"/>
  <unicode hex="0074"/>
  <anchor x="223" y="-60" name="bottom"/>
  <anchor x="210" y="10" name="cedillaC"/>
  <anchor x="451" y="816" name="leftTM"/>
  <anchor x="323" y="700" name="top"/>
  <outline>
    <contour>
      <point x="250" y="129" type="curve" smooth="yes"/>
      <point x="320" y="435" type="line"/>
      <point x="430" y="435" type="line"/>
      <point x="445" y="500" type="line"/>
      <point x="335" y="500" type="line"/>
      <point x="367" y="636" type="line"/>
      <point x="268" y="599" type="line"/>
      <point x="245" y="500" type="line"/>
      <point x="155" y="500" type="line"/>
      <point x="140" y="435" type="line"/>
      <point x="230" y="435" type="line"/>
      <point x="160" y="129" type="line" smooth="yes"/>
      <point x="154" y="104"/>
      <point x="151" y="82"/>
      <point x="151" y="64" type="curve" smooth="yes"/>
      <point x="151" y="12"/>
      <point x="176" y="-14"/>
      <point x="247" y="-14" type="curve" smooth="yes"/>
      <point x="270" y="-14"/>
      <point x="301" y="-11"/>
      <point x="330" y="-2" type="curve"/>
      <point x="344" y="60" type="line"/>
      <point x="324" y="54"/>
      <point x="302" y="51"/>
      <point x="288" y="51" type="curve" smooth="yes"/>
      <point x="255" y="51"/>
      <point x="245" y="67"/>
      <point x="245" y="92" type="curve" smooth="yes"/>
      <point x="245" y="103"/>
      <point x="247" y="115"/>
    </contour>
  </outline>
</glyph>
<glyph name="v" format="2">
	<unicode hex="0076"/>
	<advance width="535"/>
	<outline>
		<contour>
			<point name="n00" x="635" y="500" type="line"/>
			<point x="540" y="500" type="line"/>
			<point x="298" y="110" type="line"/>
			<point x="235" y="500" type="line"/>
			<point x="130" y="500" type="line"/>
			<point name="n05" x="222" y="0" type="line"/>
			<point x="314" y="0" type="line"/>
		</contour>
	</outline>
</glyph>
<glyph name="w" format="2">
	<unicode hex="0077"/>
	<advance width="814"/>
	<outline>
		<contour>
			<point name="n00" x="914" y="500" type="line"/>
			<point x="818" y="500" type="line"/>
			<point x="610" y="110" type="line"/>
			<point x="582" y="500" type="line"/>
			<point x="462" y="500" type="line"/>
			<point x="254" y="110" type="line"/>
			<point name="n06" x="226" y="500" type="line"/>
			<point name="n07" x="130" y="500" type="line"/>
			<point name="n08" x="184" y="0" type="line"/>
			<point x="274" y="0" type="line"/>
			<point x="503" y="415" type="line"/>
			<point x="540" y="0" type="line"/>
			<point x="630" y="0" type="line"/>
		</contour>
	</outline>
</glyph>
<glyph name="x" format="2">
	<unicode hex="0078"/>
	<advance width="537"/>
	<outline>
		<contour>
			<point name="n00" x="522" y="0" type="line"/>
			<point x="383" y="259" type="line"/>
			<point name="n02" x="624" y="500" type="line"/>
			<point x="519" y="500" type="line"/>
			<point x="350" y="321" type="line"/>
			<point x="259" y="500" type="line"/>
			<point x="145" y="500" type="line"/>
			<point x="274" y="259" type="line"/>
			<point x="15" y="0" type="line"/>
			<point x="120" y="0" type="line"/>
			<point x="307" y="197" type="line"/>
			<point x="408" y="0" type="line"/>
		</contour>
	</outline>
</glyph>
<glyph name="y" format="2">
	<unicode hex="0079"/>
	<advance width="535"/>
	<outline>
		<contour>
			<point x="195" y="-56" type="line" smooth="yes"/>
			<point x="138" y="-152"/>
			<point x="110" y="-200"/>
			<point x="110" y="-200" type="curve"/>
			<point x="202" y="-200" type="line"/>
			<point x="345" y="35"/>
			<point x="491" y="267"/>
			<point name="n07" x="636" y="501" type="curve"/>
			<point x="539" y="501" type="line"/>
			<point x="306" y="124" type="line"/>
			<point x="236" y="501" type="line"/>
			<point x="131" y="501" type="line"/>
			<point x="229" y="1" type="line"/>
		</contour>
	</outline>
</glyph>
<glyph name="z" format="2">
	<unicode hex="007A"/>
	<advance width="448"/>
	<outline>
		<contour>
			<point name="n00" x="408" y="0" type="line"/>
			<point name="n01" x="424" y="70" type="line"/>
			<point x="156" y="70" type="line"/>
			<point x="504" y="417" type="line"/>
			<point x="523" y="500" type="line"/>
			<point name="n05" x="175" y="500" type="line"/>
			<point name="n06" x="159" y="430" type="line"/>
			<point x="405" y="430" type="line"/>
			<point x="59" y="83" type="line"/>
			<point x="40" y="0" type="line"/>
		</contour>
	</outline>
</glyph>
<glyph name="braceleft" format="2">
	<unicode hex="007B"/>
	<advance width="487"/>
	<outline>
		<contour>
			<point name="n00" x="353" y="-240" type="line"/>
			<point name="n01" x="370" y="-166" type="line"/>
			<point x="275" y="-166"/>
			<point x="261" y="-117"/>
			<point x="282" y="-26" type="curve" smooth="yes"/>
			<point x="287" y="-3"/>
			<point x="296" y="20"/>
			<point x="301" y="43" type="curve" smooth="yes"/>
			<point x="327" y="156"/>
			<point x="311" y="202"/>
			<point x="264" y="260" type="curve"/>
			<point x="338" y="320"/>
			<point x="375" y="364"/>
			<point x="401" y="478" type="curve" smooth="yes"/>
			<point x="406" y="500"/>
			<point x="409" y="523"/>
			<point x="414" y="545" type="curve" smooth="yes"/>
			<point x="435" y="635"/>
			<point x="470" y="686"/>
			<point name="n19" x="566" y="686" type="curve"/>
			<point name="n20" x="583" y="760" type="line"/>
			<point x="485" y="760"/>
			<point x="429" y="747"/>
			<point x="380" y="679" type="curve" smooth="yes"/>
			<point x="330" y="610"/>
			<point x="321" y="497"/>
			<point x="290" y="411" type="curve" smooth="yes"/>
			<point x="267" y="346"/>
			<point x="215" y="311"/>
			<point name="n29" x="148" y="296" type="curve"/>
			<point name="n30" x="131" y="223" type="line"/>
			<point x="228" y="203"/>
			<point x="230" y="131"/>
			<point x="208" y="34" type="curve" smooth="yes"/>
			<point x="203" y="13" type="line" smooth="yes"/>
			<point x="189" y="-46"/>
			<point x="177" y="-118"/>
			<point x="186" y="-159" type="curve" smooth="yes"/>
			<point x="201" y="-228"/>
			<point x="254" y="-240"/>
			<point x="352" y="-240" type="curve"/>
		</contour>
	</outline>
</glyph>
<glyph name="bar" format="2">
	<unicode hex="007C"/>
	<advance width="344"/>
	<outline>
		<contour>
			<point x="138" y="-258" type="line"/>
			<point name="n01" x="382" y="796" type="line"/>
			<point x="331" y="796" type="line"/>
			<point name="n03" x="87" y="-258" type="line"/>
		</contour>
	</outline>
</glyph>
<glyph name="braceright" format="2">
	<unicode hex="007D"/>
	<advance width="487"/>
	<outline>
		<contour>
			<point x="460" y="224" type="line"/>
			<point name="n01" x="477" y="297" type="line"/>
			<point x="382" y="316"/>
			<point x="375" y="384"/>
			<point x="397" y="478" type="curve" smooth="yes"/>
			<point x="406" y="515" type="line" smooth="yes"/>
			<point x="451" y="712"/>
			<point x="410" y="759"/>
			<point name="n08" x="255" y="759" type="curve"/>
			<point name="n09" x="238" y="685" type="line"/>
			<point x="333" y="685"/>
			<point x="347" y="634"/>
			<point x="326" y="545" type="curve" smooth="yes"/>
			<point x="321" y="523"/>
			<point x="312" y="499"/>
			<point x="307" y="477" type="curve" smooth="yes"/>
			<point x="281" y="364"/>
			<point x="297" y="317"/>
			<point x="344" y="259" type="curve"/>
			<point x="269" y="198"/>
			<point x="232" y="153"/>
			<point x="206" y="40" type="curve" smooth="yes"/>
			<point x="201" y="17"/>
			<point x="198" y="-6"/>
			<point x="193" y="-29" type="curve" smooth="yes"/>
			<point x="172" y="-120"/>
			<point x="137" y="-170"/>
			<point name="n27" x="42" y="-170" type="curve"/>
			<point name="n28" x="25" y="-244" type="line"/>
			<point x="123" y="-244"/>
			<point x="179" y="-231"/>
			<point x="228" y="-163" type="curve" smooth="yes"/>
			<point x="277" y="-94"/>
			<point x="287" y="18"/>
			<point x="318" y="104" type="curve" smooth="yes"/>
			<point x="341" y="169"/>
			<point x="393" y="205"/>
			<point name="n37" x="460" y="220" type="curve"/>
		</contour>
	</outline>
</glyph>
<glyph name="asciitilde" format="2">
	<unicode hex="007E"/>
	<advance width="633"/>
	<outline>
		<contour>
			<point x="656" y="315" type="curve"/>
			<point x="568" y="315" type="line"/>
			<point x="539" y="287"/>
			<point x="510" y="273"/>
			<point name="n04" x="483" y="273" type="curve" smooth="yes"/>
			<point x="468" y="273"/>
			<point name="hr01" x="349" y="313"/>
			<point name="n07" x="277" y="313" type="curve" smooth="yes"/>
			<point x="214" y="313"/>
			<point x="117" y="248"/>
			<point x="95" y="195" type="curve"/>
			<point x="186" y="195" type="line"/>
			<point x="216" y="224"/>
			<point x="244" y="238"/>
			<point name="n14" x="271" y="238" type="curve" smooth="yes"/>
			<point x="288" y="238"/>
			<point name="hr02" x="402" y="198"/>
			<point name="n17" x="473" y="198" type="curve" smooth="yes"/>
			<point x="537" y="198"/>
			<point x="634" y="263"/>
		</contour>
	</outline>
</glyph>
<glyph name="exclamdown" format="2">
	<unicode hex="00A1"/>
	<advance width="200"/>
	<outline>
		<contour>
			<point name="n00" x="104" y="-198" type="line"/>
			<point x="226" y="331" type="line"/>
			<point x="143" y="331" type="line"/>
			<point name="n03" x="21" y="-198" type="line"/>
		</contour>
		<contour>
			<point name="n04" x="244" y="405" type="line"/>
			<point name="n05" x="265" y="500" type="line"/>
			<point x="165" y="500" type="line"/>
			<point x="144" y="405" type="line"/>
		</contour>
	</outline>
</glyph>
<glyph name="cent" format="2">
  <advance width="558"/>
  <unicode hex="00A2"/>
  <outline>
    <contour>
      <point x="102" y="-126" type="line"/>
      <point x="147" y="-139" type="line"/>
      <point x="566" y="612" type="line"/>
      <point x="520" y="625" type="line"/>
    </contour>
    <contour>
      <point x="115" y="145" type="curve" smooth="yes"/>
      <point x="115" y="52"/>
      <point x="162" y="-12"/>
      <point x="288" y="-12" type="curve" smooth="yes"/>
      <point x="408" y="-12"/>
      <point x="505" y="71"/>
      <point x="528" y="169" type="curve"/>
      <point x="439" y="169" type="line"/>
      <point x="424" y="104"/>
      <point x="370" y="57"/>
      <point x="300" y="57" type="curve" smooth="yes"/>
      <point x="227" y="57"/>
      <point x="205" y="107"/>
      <point x="205" y="167" type="curve" smooth="yes"/>
      <point x="205" y="268"/>
      <point x="266" y="444"/>
      <point x="384" y="444" type="curve" smooth="yes"/>
      <point x="433" y="444"/>
      <point x="483" y="433"/>
      <point x="483" y="380" type="curve" smooth="yes"/>
      <point x="483" y="370"/>
      <point x="481" y="357"/>
      <point x="479" y="345" type="curve"/>
      <point x="564" y="345" type="line"/>
      <point x="567" y="361"/>
      <point x="569" y="375"/>
      <point x="569" y="390" type="curve" smooth="yes"/>
      <point x="569" y="492"/>
      <point x="479" y="513"/>
      <point x="411" y="513" type="curve" smooth="yes"/>
      <point x="205" y="513"/>
      <point x="115" y="320"/>
    </contour>
  </outline>
</glyph>
<glyph name="currency" format="2">
  <advance width="619"/>
  <unicode hex="00A4"/>
  <outline>
    <contour>
      <point x="363" y="216" type="curve" smooth="yes"/>
      <point x="494" y="216"/>
      <point x="626" y="344"/>
      <point x="626" y="473" type="curve" smooth="yes"/>
      <point x="626" y="569"/>
      <point x="554" y="639"/>
      <point x="457" y="639" type="curve" smooth="yes"/>
      <point x="327" y="639"/>
      <point x="192" y="515"/>
      <point x="192" y="383" type="curve" smooth="yes"/>
      <point x="192" y="283"/>
      <point x="269" y="216"/>
    </contour>
    <contour>
      <point x="373" y="273" type="curve" smooth="yes"/>
      <point x="303" y="273"/>
      <point x="252" y="324"/>
      <point x="252" y="394" type="curve" smooth="yes"/>
      <point x="252" y="492"/>
      <point x="349" y="582"/>
      <point x="444" y="582" type="curve" smooth="yes"/>
      <point x="517" y="582"/>
      <point x="566" y="528"/>
      <point x="566" y="461" type="curve" smooth="yes"/>
      <point x="566" y="365"/>
      <point x="469" y="273"/>
    </contour>
    <contour>
      <point x="329" y="583" type="line"/>
      <point x="240" y="700" type="line"/>
      <point x="193" y="664" type="line"/>
      <point x="285" y="547" type="line"/>
    </contour>
    <contour>
      <point x="492" y="275" type="line"/>
      <point x="580" y="160" type="line"/>
      <point x="625" y="196" type="line"/>
      <point x="537" y="311" type="line"/>
    </contour>
    <contour>
      <point x="225" y="308" type="line"/>
      <point x="85" y="196" type="line"/>
      <point x="113" y="160" type="line"/>
      <point x="254" y="272" type="line"/>
    </contour>
    <contour>
      <point x="593" y="551" type="line"/>
      <point x="733" y="664" type="line"/>
      <point x="706" y="700" type="line"/>
      <point x="563" y="585" type="line"/>
    </contour>
  </outline>
  <guideline angle="90" x="203" y="0"/>
</glyph>
<glyph name="yen" format="2">
	<unicode hex="00A5"/>
	<advance width="558"/>
	<outline>
		<contour>
			<point name="n00" x="723" y="722" type="line"/>
			<point x="618" y="722" type="line"/>
			<point x="365" y="365" type="line"/>
			<point x="276" y="722" type="line"/>
			<point x="171" y="722" type="line"/>
			<point x="232" y="508" type="line"/>
			<point name="n06" x="131" y="508" type="line"/>
			<point name="n07" x="120" y="457" type="line"/>
			<point x="246" y="457" type="line"/>
			<point x="276" y="338" type="line"/>
			<point name="n10" x="92" y="338" type="line"/>
			<point name="n11" x="80" y="287" type="line"/>
			<point x="295" y="287" type="line"/>
			<point name="n13" x="229" y="0" type="line"/>
			<point x="331" y="0" type="line"/>
			<point x="397" y="287" type="line"/>
			<point x="612" y="287" type="line"/>
			<point x="624" y="338" type="line"/>
			<point x="442" y="338" type="line"/>
			<point x="528" y="457" type="line"/>
			<point x="652" y="457" type="line"/>
			<point x="663" y="508" type="line"/>
			<point x="564" y="508" type="line"/>
		</contour>
	</outline>
</glyph>
<glyph name="dieresis" format="2">
  <advance width="289"/>
  <unicode hex="00A8"/>
  <anchor x="295" y="600" name="_top"/>
  <outline>
    <contour>
      <point x="235" y="630" type="line"/>
      <point x="257" y="722" type="line"/>
      <point x="167" y="722" type="line"/>
      <point x="145" y="630" type="line"/>
    </contour>
    <contour>
      <point x="435" y="630" type="line"/>
      <point x="457" y="722" type="line"/>
      <point x="367" y="722" type="line"/>
      <point x="345" y="630" type="line"/>
    </contour>
  </outline>
</glyph>
<glyph name="copyright" format="2">
  <advance width="867"/>
  <unicode hex="00A9"/>
  <outline>
    <contour>
      <point x="292" y="267" type="curve" smooth="yes"/>
      <point x="292" y="182"/>
      <point x="347" y="120"/>
      <point x="460" y="120" type="curve" smooth="yes"/>
      <point x="577" y="120"/>
      <point x="656" y="187"/>
      <point x="691" y="277" type="curve"/>
      <point x="610" y="277" type="line"/>
      <point x="593" y="221"/>
      <point x="545" y="189"/>
      <point x="474" y="189" type="curve" smooth="yes"/>
      <point x="409" y="189"/>
      <point x="376" y="202"/>
      <point x="376" y="274" type="curve" smooth="yes"/>
      <point x="376" y="370"/>
      <point x="435" y="539"/>
      <point x="542" y="539" type="curve" smooth="yes"/>
      <point x="610" y="539"/>
      <point x="644" y="515"/>
      <point x="644" y="469" type="curve" smooth="yes"/>
      <point x="644" y="460"/>
      <point x="643" y="451"/>
      <point x="641" y="441" type="curve"/>
      <point x="723" y="441" type="line"/>
      <point x="726" y="454"/>
      <point x="728" y="468"/>
      <point x="728" y="481" type="curve" smooth="yes"/>
      <point x="728" y="544"/>
      <point x="684" y="594"/>
      <point x="578" y="594" type="curve" smooth="yes"/>
      <point x="387" y="594"/>
      <point x="292" y="433"/>
    </contour>
    <contour>
      <point x="132" y="284" type="curve" smooth="yes"/>
      <point x="132" y="108"/>
      <point x="251" y="-12"/>
      <point x="429" y="-12" type="curve" smooth="yes"/>
      <point x="679" y="-12"/>
      <point x="901" y="163"/>
      <point x="901" y="438" type="curve" smooth="yes"/>
      <point x="901" y="611"/>
      <point x="780" y="734"/>
      <point x="594" y="734" type="curve" smooth="yes"/>
      <point x="352" y="734"/>
      <point x="132" y="524"/>
    </contour>
    <contour>
      <point x="188" y="285" type="curve" smooth="yes"/>
      <point x="188" y="488"/>
      <point x="382" y="679"/>
      <point x="587" y="679" type="curve" smooth="yes"/>
      <point x="741" y="679"/>
      <point x="845" y="571"/>
      <point x="845" y="420" type="curve" smooth="yes"/>
      <point x="845" y="207"/>
      <point x="641" y="36"/>
      <point x="443" y="36" type="curve" smooth="yes"/>
      <point x="287" y="36"/>
      <point x="188" y="141"/>
    </contour>
  </outline>
</glyph>
<glyph name="ordfeminine" format="2">
  <advance width="448"/>
  <unicode hex="00AA"/>
  <outline>
    <component base="a" xScale="0.725" yScale="0.725" xOffset="76" yOffset="349"/>
    <contour>
      <point x="465" y="243" type="line"/>
      <point x="474" y="280" type="line"/>
      <point x="125" y="280" type="line"/>
      <point x="116" y="243" type="line"/>
    </contour>
  </outline>
</glyph>
<glyph name="guillemotleft" format="2">
	<unicode hex="00AB"/>
	<advance width="557"/>
	<outline>
		<contour>
			<point name="n00" x="302" y="57" type="line"/>
			<point x="227" y="252" type="line"/>
			<point x="392" y="447" type="line"/>
			<point name="n03" x="314" y="447" type="line"/>
			<point name="n04" x="132" y="252" type="line"/>
			<point x="224" y="57" type="line"/>
		</contour>
		<contour>
			<point x="497" y="57" type="line"/>
			<point x="422" y="252" type="line"/>
			<point name="n08" x="587" y="447" type="line"/>
			<point x="509" y="447" type="line"/>
			<point x="327" y="252" type="line"/>
			<point x="419" y="57" type="line"/>
		</contour>
	</outline>
</glyph>
<glyph name="uni00AD" format="2">
	<unicode hex="00AD"/>
	<advance width="307"/>
	<outline>
		<contour>
			<point name="n00" x="332" y="269" type="line"/>
			<point name="n01" x="346" y="331" type="line"/>
			<point x="116" y="331" type="line"/>
			<point name="n03" x="102" y="269" type="line"/>
		</contour>
	</outline>
</glyph>
<glyph name="macron" format="2">
	<unicode hex="00AF"/>
	<advance width="289"/>
	<outline>
		<contour>
			<point name="n00" x="435" y="630" type="line"/>
			<point name="n01" x="451" y="699" type="line"/>
			<point x="161" y="699" type="line"/>
			<point name="n03" x="145" y="630" type="line"/>
		</contour>
	</outline>
</glyph>
<glyph name="degree" format="2">
  <advance width="319"/>
  <unicode hex="00B0"/>
  <outline>
    <contour>
      <point x="322" y="720" type="curve" smooth="yes"/>
      <point x="250" y="720"/>
      <point x="188" y="659"/>
      <point x="188" y="589" type="curve" smooth="yes"/>
      <point x="188" y="536"/>
      <point x="223" y="500"/>
      <point x="279" y="500" type="curve" smooth="yes"/>
      <point x="351" y="500"/>
      <point x="414" y="560"/>
      <point x="414" y="629" type="curve" smooth="yes"/>
      <point x="414" y="682"/>
      <point x="378" y="720"/>
    </contour>
    <contour>
      <point x="285" y="540" type="curve" smooth="yes"/>
      <point x="252" y="540"/>
      <point x="229" y="564"/>
      <point x="229" y="595" type="curve" smooth="yes"/>
      <point x="229" y="639"/>
      <point x="273" y="680"/>
      <point x="317" y="680" type="curve" smooth="yes"/>
      <point x="350" y="680"/>
      <point x="373" y="657"/>
      <point x="373" y="626" type="curve" smooth="yes"/>
      <point x="373" y="583"/>
      <point x="329" y="540"/>
    </contour>
  </outline>
</glyph>
<glyph name="threesuperior" format="2">
	<unicode hex="00B3"/>
	<advance width="371"/>
	<outline>
		<contour>
			<point x="376" y="547" type="line"/>
			<point x="424" y="564"/>
			<point x="463" y="585"/>
			<point x="475" y="639" type="curve" smooth="yes"/>
			<point x="491" y="708"/>
			<point x="433" y="736"/>
			<point name="n06" x="356" y="736" type="curve" smooth="yes"/>
			<point x="280" y="736"/>
			<point x="208" y="701"/>
			<point x="191" y="626" type="curve"/>
			<point x="255" y="626" type="line"/>
			<point x="268" y="659"/>
			<point x="295" y="677"/>
			<point x="339" y="680" type="curve"/>
			<point name="n14" x="342" y="680" type="line" smooth="yes"/>
			<point x="368" y="680"/>
			<point x="406" y="667"/>
			<point x="399" y="635" type="curve" smooth="yes"/>
			<point x="387" y="581"/>
			<point x="342" y="569"/>
			<point name="n20" x="285" y="569" type="curve"/>
			<point name="n21" x="273" y="516" type="line"/>
			<point x="338" y="516"/>
			<point x="383" y="505"/>
			<point x="369" y="445" type="curve" smooth="yes"/>
			<point x="363" y="421"/>
			<point x="300" y="399"/>
			<point name="n27" x="275" y="399" type="curve" smooth="yes"/>
			<point x="229" y="399"/>
			<point x="198" y="422"/>
			<point name="n30" x="203" y="461" type="curve"/>
			<point name="n31" x="137" y="461" type="line"/>
			<point x="123" y="384"/>
			<point x="177" y="340"/>
			<point name="n34" x="259" y="340" type="curve" smooth="yes"/>
			<point x="328" y="340"/>
			<point x="423" y="382"/>
			<point x="438" y="449" type="curve" smooth="yes"/>
			<point x="452" y="511"/>
			<point x="423" y="533"/>
			<point x="375" y="547" type="curve"/>
		</contour>
	</outline>
</glyph>
<glyph name="acute" format="2">
	<unicode hex="00B4"/>
	<advance width="161"/>
	<outline>
		<contour>
			<point name="n00" x="307" y="722" type="line"/>
			<point name="n01" x="207" y="722" type="line"/>
			<point name="n02" x="98" y="512" type="line"/>
			<point name="n03" x="168" y="512" type="line"/>
		</contour>
	</outline>
</glyph>
<glyph name="paragraph" format="2">
	<unicode hex="00B6"/>
	<advance width="559"/>
	<outline>
		<contour>
			<point name="n00" x="658" y="683" type="line"/>
			<point name="n01" x="667" y="722" type="line"/>
			<point x="417" y="722" type="line" smooth="yes"/>
			<point x="331" y="722"/>
			<point x="200" y="647"/>
			<point x="171" y="523" type="curve" smooth="yes"/>
			<point x="144" y="404"/>
			<point x="229" y="352"/>
			<point x="330" y="352" type="curve"/>
			<point x="212" y="-160" type="line"/>
			<point x="262" y="-160" type="line"/>
			<point x="457" y="683" type="line"/>
			<point x="547" y="683" type="line"/>
			<point x="352" y="-160" type="line"/>
			<point x="402" y="-160" type="line"/>
			<point x="597" y="683" type="line"/>
		</contour>
	</outline>
</glyph>
<glyph name="periodcentered" format="2">
	<unicode hex="00B7"/>
	<advance width="275"/>
	<outline>
		<contour>
			<point name="n00" x="256" y="278" type="line"/>
			<point name="n01" x="285" y="401" type="line"/>
			<point x="177" y="401" type="line"/>
			<point name="n03" x="148" y="278" type="line"/>
		</contour>
	</outline>
</glyph>
<glyph name="cedilla" format="2">
	<unicode hex="00B8"/>
	<advance width="250"/>
	<outline>
		<contour>
			<point x="259" y="-158" type="line"/>
			<point x="276" y="-86"/>
			<point x="233" y="-50"/>
			<point name="n03" x="133" y="-50" type="curve"/>
			<point name="n04" x="145" y="0" type="line"/>
			<point x="105" y="0" type="line"/>
			<point x="82" y="-100" type="line"/>
			<point name="n07" x="116" y="-100" type="line" smooth="yes"/>
			<point x="153" y="-100"/>
			<point x="198" y="-119"/>
			<point x="189" y="-159" type="curve" smooth="yes"/>
			<point x="183" y="-184"/>
			<point x="155" y="-196"/>
			<point x="108" y="-196" type="curve"/>
			<point x="107.133" y="-196"/>
			<point x="103.422" y="-196"/>
			<point name="n16" x="102" y="-196" type="curve"/>
			<point x="72" y="-196"/>
			<point x="40" y="-192"/>
			<point x="6" y="-184" type="curve"/>
			<point name="n20" x="-6" y="-234" type="line"/>
			<point x="32" y="-240"/>
			<point x="63" y="-243"/>
			<point name="n23" x="88" y="-243" type="curve" smooth="yes"/>
			<point x="152" y="-243"/>
			<point x="247" y="-217"/>
			<point name="n26" x="261" y="-158" type="curve"/>
		</contour>
	</outline>
</glyph>
<glyph name="onesuperior" format="2">
  <advance width="290"/>
  <unicode hex="00B9"/>
  <outline>
    <contour>
      <point x="298" y="352" type="line"/>
      <point x="386" y="731" type="line"/>
      <point x="324" y="731" type="line"/>
      <point x="286" y="707" type="line" smooth="yes"/>
      <point x="261" y="691"/>
      <point x="236" y="682"/>
      <point x="212" y="674" type="curve"/>
      <point x="199" y="619" type="line"/>
      <point x="229" y="624"/>
      <point x="265" y="640"/>
      <point x="307" y="667" type="curve"/>
      <point x="234" y="352" type="line"/>
    </contour>
  </outline>
</glyph>
<glyph name="ordmasculine" format="2">
  <advance width="418"/>
  <unicode hex="00BA"/>
  <outline>
    <contour>
      <point x="149" y="476" type="curve" smooth="yes"/>
      <point x="149" y="390"/>
      <point x="198" y="340"/>
      <point x="284" y="340" type="curve" smooth="yes"/>
      <point x="417" y="340"/>
      <point x="507" y="457"/>
      <point x="507" y="575" type="curve" smooth="yes"/>
      <point x="507" y="661"/>
      <point x="459" y="710"/>
      <point x="373" y="710" type="curve" smooth="yes"/>
      <point x="241" y="710"/>
      <point x="149" y="594"/>
    </contour>
    <contour>
      <point x="215" y="479" type="curve" smooth="yes"/>
      <point x="215" y="559"/>
      <point x="271" y="664"/>
      <point x="359" y="664" type="curve" smooth="yes"/>
      <point x="415" y="664"/>
      <point x="438" y="622"/>
      <point x="438" y="570" type="curve" smooth="yes"/>
      <point x="438" y="490"/>
      <point x="385" y="386"/>
      <point x="296" y="386" type="curve" smooth="yes"/>
      <point x="240" y="386"/>
      <point x="215" y="427"/>
    </contour>
    <contour>
      <point x="442" y="242" type="line"/>
      <point x="450" y="279" type="line"/>
      <point x="97" y="279" type="line"/>
      <point x="89" y="242" type="line"/>
    </contour>
  </outline>
</glyph>
<glyph name="guillemotright" format="2">
  <advance width="557"/>
  <unicode hex="00BB"/>
  <outline>
    <contour>
      <point x="347" y="252" type="line"/>
      <point x="255" y="447" type="line"/>
      <point x="177" y="447" type="line"/>
      <point x="251" y="252" type="line"/>
      <point x="87" y="57" type="line"/>
      <point x="165" y="57" type="line"/>
    </contour>
    <contour>
      <point x="542" y="252" type="line"/>
      <point x="450" y="447" type="line"/>
      <point x="372" y="447" type="line"/>
      <point x="446" y="252" type="line"/>
      <point x="282" y="57" type="line"/>
      <point x="360" y="57" type="line"/>
    </contour>
  </outline>
</glyph>
<glyph name="onehalf" format="2">
	<unicode hex="00BD"/>
	<advance width="799"/>
	<outline>
		<contour>
			<point x="527" y="272" type="curve"/>
			<point x="599" y="272" type="line"/>
			<point x="613" y="312"/>
			<point x="638" y="332"/>
			<point name="n04" x="673" y="332" type="curve" smooth="yes"/>
			<point x="723" y="332"/>
			<point x="740" y="314"/>
			<point x="729" y="266" type="curve" smooth="yes"/>
			<point x="720" y="226"/>
			<point x="704" y="214"/>
			<point x="467" y="62" type="curve"/>
			<point x="453" y="-1" type="line"/>
			<point name="n12" x="746" y="-1" type="line"/>
			<point name="n13" x="759" y="57" type="line"/>
			<point x="557" y="57" type="line"/>
			<point x="773" y="200"/>
			<point x="791" y="212"/>
			<point x="805" y="273" type="curve" smooth="yes"/>
			<point x="819" y="332"/>
			<point x="797" y="391"/>
			<point name="n20" x="689" y="391" type="curve" smooth="yes"/>
			<point x="614" y="391"/>
			<point x="547" y="341"/>
		</contour>
		<contour>
			<point name="n23" x="783" y="736" type="line"/>
			<point x="714" y="736" type="line"/>
			<point name="n25" x="115" y="-14" type="line"/>
			<point x="184" y="-14" type="line"/>
		</contour>
		<contour>
			<point name="n27" x="297" y="352" type="line"/>
			<point x="356" y="731" type="line"/>
			<point x="324" y="731" type="line"/>
			<point x="285" y="707" type="line" smooth="yes"/>
			<point x="261" y="692"/>
			<point x="237" y="681"/>
			<point x="212" y="674" type="curve"/>
			<point x="199" y="619" type="line"/>
			<point x="229" y="624"/>
			<point x="265" y="640"/>
			<point x="307" y="667" type="curve"/>
			<point name="n38" x="234" y="352" type="line"/>
		</contour>
	</outline>
</glyph>
<glyph name="questiondown" format="2">
	<unicode hex="00BF"/>
	<advance width="516"/>
	<outline>
		<contour>
			<point x="151" y="-20" type="line"/>
			<point x="179" y="101"/>
			<point x="366" y="126"/>
			<point x="391" y="234" type="curve" smooth="yes"/>
			<point x="414" y="334" type="line"/>
			<point x="334" y="334" type="line"/>
			<point x="315" y="250" type="line" smooth="yes"/>
			<point x="305" y="205"/>
			<point x="211" y="158"/>
			<point x="153" y="117" type="curve" smooth="yes"/>
			<point x="113" y="89"/>
			<point x="64" y="41"/>
			<point x="51" y="-17" type="curve" smooth="yes"/>
			<point x="25" y="-128"/>
			<point x="117" y="-198"/>
			<point name="n15" x="235" y="-198" type="curve" smooth="yes"/>
			<point x="330" y="-198"/>
			<point x="411" y="-154"/>
			<point x="476" y="-67" type="curve"/>
			<point x="419" y="-25" type="line"/>
			<point x="373" y="-86"/>
			<point x="329" y="-100"/>
			<point x="257" y="-104" type="curve"/>
			<point name="n23" x="254" y="-104" type="line" smooth="yes"/>
			<point x="194" y="-104"/>
			<point x="139" y="-77"/>
			<point x="152" y="-20" type="curve"/>
		</contour>
		<contour>
			<point name="n27" x="442" y="405" type="line"/>
			<point name="n28" x="463" y="500" type="line"/>
			<point x="363" y="500" type="line"/>
			<point x="342" y="405" type="line"/>
		</contour>
	</outline>
</glyph>
<glyph name="Agrave" format="2">
	<unicode hex="00C0"/>
	<advance width="750"/>
	<outline>
		<contour>
			<point name="n00" x="573" y="278" type="line"/>
			<point x="300" y="278" type="line"/>
			<point x="512" y="611" type="line"/>
		</contour>
		<contour>
			<point name="n03" x="735" y="0" type="line"/>
			<point name="n04" x="595" y="722" type="line"/>
			<point x="485" y="722" type="line"/>
			<point x="15" y="0" type="line"/>
			<point x="118" y="0" type="line"/>
			<point x="242" y="193" type="line"/>
			<point name="n09" x="596" y="193" type="line"/>
			<point x="629" y="0" type="line"/>
		</contour>
		<contour>
			<point x="606" y="822" type="line"/>
			<point x="545" y="993" type="line"/>
			<point x="444" y="993" type="line"/>
			<point x="545" y="822" type="line"/>
		</contour>
	</outline>
</glyph>
<glyph name="Eacute" format="2">
	<unicode hex="00C9"/>
	<advance width="606"/>
	<outline>
		<contour>
			<point name="n00" x="537" y="0" type="line"/>
			<point name="n01" x="557" y="87" type="line"/>
			<point x="201" y="87" type="line"/>
			<point name="n03" x="256" y="326" type="line"/>
			<point x="592" y="326" type="line"/>
			<point x="612" y="413" type="line"/>
			<point name="n06" x="276" y="413" type="line"/>
			<point x="328" y="635" type="line"/>
			<point name="n08" x="674" y="635" type="line"/>
			<point name="n09" x="694" y="722" type="line"/>
			<point x="247" y="722" type="line"/>
			<point x="80" y="0" type="line"/>
		</contour>
		<contour>
			<point x="684" y="991" type="line"/>
			<point x="583" y="991" type="line"/>
			<point x="443" y="820" type="line"/>
			<point x="504" y="820" type="line"/>
		</contour>
	</outline>
</glyph>
<glyph name="Idieresis" format="2">
	<unicode hex="00CF"/>
	<advance width="260"/>
	<outline>
		<contour>
			<point name="n00" x="181" y="0" type="line"/>
			<point name="n01" x="348" y="722" type="line"/>
			<point x="247" y="722" type="line"/>
			<point x="80" y="0" type="line"/>
		</contour>
		<contour>
			<point name="n04" x="272" y="850" type="line"/>
			<point name="n05" x="293" y="942" type="line"/>
			<point x="203" y="942" type="line"/>
			<point x="182" y="850" type="line"/>
		</contour>
		<contour>
			<point x="472" y="850" type="line"/>
			<point x="493" y="942" type="line"/>
			<point x="403" y="942" type="line"/>
			<point x="382" y="850" type="line"/>
		</contour>
	</outline>
</glyph>
<glyph name="Otilde" format="2">
	<unicode hex="00D5"/>
	<advance width="773"/>
	<outline>
		<contour>
			<point x="696" y="374" type="line"/>
			<point x="657" y="206"/>
			<point x="572" y="73"/>
			<point name="n03" x="403" y="73" type="curve" smooth="yes"/>
			<point x="239" y="73"/>
			<point x="209" y="204"/>
			<point x="248" y="375" type="curve" smooth="yes"/>
			<point x="290" y="558"/>
			<point x="386" y="649"/>
			<point name="n09" x="536" y="649" type="curve" smooth="yes"/>
			<point x="702" y="649"/>
			<point x="734" y="540"/>
			<point x="696" y="375" type="curve"/>
		</contour>
		<contour>
			<point x="801" y="375" type="line"/>
			<point x="850" y="588"/>
			<point x="773" y="735"/>
			<point name="n16" x="558" y="735" type="curve" smooth="yes"/>
			<point x="342" y="735"/>
			<point x="195" y="588"/>
			<point x="146" y="375" type="curve" smooth="yes"/>
			<point x="102" y="184"/>
			<point x="148" y="-14"/>
			<point name="n22" x="383" y="-14" type="curve" smooth="yes"/>
			<point x="586" y="-14"/>
			<point x="746" y="143"/>
			<point x="799" y="374" type="curve"/>
		</contour>
		<contour>
			<point x="437" y="840" type="curve"/>
			<point x="492" y="840" type="line"/>
			<point x="505" y="867"/>
			<point x="519" y="881"/>
			<point name="n30" x="533" y="881" type="curve" smooth="yes"/>
			<point x="541" y="881"/>
			<point name="hr01" x="603" y="845"/>
			<point name="n33" x="643" y="845" type="curve" smooth="yes"/>
			<point x="693" y="845"/>
			<point x="734" y="891"/>
			<point x="750" y="943" type="curve"/>
			<point x="695" y="943" type="line"/>
			<point x="682" y="916"/>
			<point x="668" y="902"/>
			<point name="n40" x="655" y="902" type="curve" smooth="yes"/>
			<point x="647" y="902"/>
			<point name="hr02" x="583" y="938"/>
			<point name="n43" x="544" y="938" type="curve" smooth="yes"/>
			<point x="495" y="938"/>
			<point x="453" y="890"/>
		</contour>
	</outline>
</glyph>
<glyph name="Odieresis" format="2">
	<unicode hex="00D6"/>
	<advance width="773"/>
	<outline>
		<contour>
			<point x="696" y="374" type="line"/>
			<point x="657" y="206"/>
			<point x="572" y="73"/>
			<point name="n03" x="403" y="73" type="curve" smooth="yes"/>
			<point x="239" y="73"/>
			<point x="209" y="204"/>
			<point x="248" y="375" type="curve" smooth="yes"/>
			<point x="290" y="558"/>
			<point x="386" y="649"/>
			<point name="n09" x="536" y="649" type="curve" smooth="yes"/>
			<point x="702" y="649"/>
			<point x="734" y="540"/>
			<point x="696" y="375" type="curve"/>
		</contour>
		<contour>
			<point x="801" y="375" type="line"/>
			<point x="850" y="588"/>
			<point x="773" y="735"/>
			<point name="n16" x="558" y="735" type="curve" smooth="yes"/>
			<point x="342" y="735"/>
			<point x="195" y="588"/>
			<point x="146" y="375" type="curve" smooth="yes"/>
			<point x="102" y="184"/>
			<point x="148" y="-14"/>
			<point name="n22" x="383" y="-14" type="curve" smooth="yes"/>
			<point x="586" y="-14"/>
			<point x="746" y="143"/>
			<point x="799" y="374" type="curve"/>
		</contour>
		<contour>
			<point name="n26" x="546" y="850" type="line"/>
			<point name="n27" x="567" y="942" type="line"/>
			<point x="477" y="942" type="line"/>
			<point x="456" y="850" type="line"/>
		</contour>
		<contour>
			<point x="746" y="850" type="line"/>
			<point x="767" y="942" type="line"/>
			<point x="677" y="942" type="line"/>
			<point x="656" y="850" type="line"/>
		</contour>
	</outline>
</glyph>
<glyph name="multiply" format="2">
  <advance width="640"/>
  <unicode hex="00D7"/>
  <outline>
    <contour>
      <point x="606" y="69" type="line"/>
      <point x="429" y="300" type="line"/>
      <point x="713" y="531" type="line"/>
      <point x="683" y="570" type="line"/>
      <point x="398" y="338" type="line"/>
      <point x="221" y="570" type="line"/>
      <point x="173" y="531" type="line"/>
      <point x="349" y="300" type="line"/>
      <point x="66" y="69" type="line"/>
      <point x="96" y="30" type="line"/>
      <point x="380" y="262" type="line"/>
      <point x="558" y="30" type="line"/>
    </contour>
  </outline>
</glyph>
<glyph name="Oslash" format="2">
  <advance width="774"/>
  <unicode hex="00D8"/>
  <anchor x="538" y="800" name="top"/>
  <outline>
    <component base="O" xOffset="9"/>
    <contour>
      <point x="111" y="-100" type="line"/>
      <point x="892" y="768" type="line"/>
      <point x="829" y="817" type="line"/>
      <point x="47" y="-51" type="line"/>
    </contour>
  </outline>
</glyph>
<glyph name="Thorn" format="2">
  <advance width="622"/>
  <unicode hex="00DE"/>
  <outline>
    <contour>
      <point x="80" y="0" type="line"/>
      <point x="181" y="0" type="line"/>
      <point x="221" y="172" type="line"/>
      <point x="324" y="172" type="line" smooth="yes"/>
      <point x="504" y="172"/>
      <point x="659" y="241"/>
      <point x="659" y="443" type="curve" smooth="yes"/>
      <point x="659" y="560"/>
      <point x="557" y="588"/>
      <point x="420" y="588" type="curve" smooth="yes"/>
      <point x="317" y="588" type="line"/>
      <point x="348" y="722" type="line"/>
      <point x="247" y="722" type="line"/>
    </contour>
    <contour>
      <point x="241" y="260" type="line"/>
      <point x="297" y="501" type="line"/>
      <point x="403" y="501" type="line" smooth="yes"/>
      <point x="496" y="501"/>
      <point x="558" y="484"/>
      <point x="558" y="415" type="curve" smooth="yes"/>
      <point x="558" y="288"/>
      <point x="455" y="260"/>
      <point x="347" y="260" type="curve" smooth="yes"/>
    </contour>
  </outline>
</glyph>
<glyph name="ae" format="2">
	<unicode hex="00E6"/>
	<advance width="905"/>
	<outline>
		<contour>
			<point x="460" y="242" type="line"/>
			<point x="456" y="225" type="line" smooth="yes"/>
			<point x="431" y="117"/>
			<point x="368" y="51"/>
			<point x="254" y="51" type="curve" smooth="yes"/>
			<point x="197" y="51"/>
			<point x="153" y="83"/>
			<point x="168" y="147" type="curve" smooth="yes"/>
			<point x="186" y="227"/>
			<point x="293" y="247"/>
			<point name="n10" x="386" y="247" type="curve" smooth="yes"/>
			<point x="412" y="247"/>
			<point x="437" y="245"/>
			<point x="460" y="243" type="curve"/>
		</contour>
		<contour>
			<point name="hr01" x="835" y="303" type="curve"/>
			<point name="n15" x="573" y="303" type="line"/>
			<point x="596" y="367"/>
			<point x="654" y="447"/>
			<point x="739" y="447" type="curve" smooth="yes"/>
			<point x="830" y="447"/>
			<point x="846" y="382"/>
		</contour>
		<contour>
			<point x="227" y="-14" type="line"/>
			<point x="377" y="-14"/>
			<point x="464" y="91"/>
			<point x="483" y="126" type="curve"/>
			<point x="480" y="37"/>
			<point x="545" y="-14"/>
			<point name="n27" x="653" y="-14" type="curve" smooth="yes"/>
			<point x="768" y="-14"/>
			<point x="856" y="54"/>
			<point x="893" y="157" type="curve"/>
			<point x="798" y="157" type="line"/>
			<point x="767" y="87"/>
			<point x="717" y="51"/>
			<point name="n34" x="648" y="51" type="curve" smooth="yes"/>
			<point x="563" y="51"/>
			<point x="532" y="140"/>
			<point name="n37" x="555" y="238" type="curve"/>
			<point x="919" y="238" type="line"/>
			<point x="930" y="280" type="line"/>
			<point x="960" y="410"/>
			<point x="907" y="511"/>
			<point x="769" y="511" type="curve" smooth="yes"/>
			<point x="666" y="511"/>
			<point x="599" y="472"/>
			<point x="549" y="390" type="curve"/>
			<point x="535" y="472"/>
			<point x="487" y="512"/>
			<point name="n48" x="393" y="512" type="curve" smooth="yes"/>
			<point x="266" y="512"/>
			<point x="174" y="467"/>
			<point name="n51" x="153" y="376" type="curve"/>
			<point name="n52" x="246" y="376" type="line"/>
			<point x="258" y="426"/>
			<point x="301" y="447"/>
			<point name="n55" x="374" y="447" type="curve" smooth="yes"/>
			<point x="457" y="447"/>
			<point x="486" y="387"/>
			<point x="468" y="301" type="curve"/>
			<point x="444" y="301"/>
			<point x="382" y="307"/>
			<point name="n61" x="352" y="307" type="curve" smooth="yes"/>
			<point x="191" y="307"/>
			<point x="96" y="247"/>
			<point x="70" y="136" type="curve" smooth="yes"/>
			<point x="47" y="37"/>
			<point x="122" y="-14"/>
			<point x="226" y="-14" type="curve"/>
		</contour>
	</outline>
</glyph>
<glyph name="igrave" format="2">
	<unicode hex="00EC"/>
	<advance width="229"/>
	<outline>
		<contour>
			<point name="n00" x="160" y="0" type="line"/>
			<point name="n01" x="275" y="500" type="line"/>
			<point x="185" y="500" type="line"/>
			<point name="n03" x="70" y="0" type="line"/>
		</contour>
		<contour>
			<point name="n04" x="315" y="600" type="line"/>
			<point x="248" y="771" type="line"/>
			<point x="153" y="771" type="line"/>
			<point x="254" y="600" type="line"/>
		</contour>
	</outline>
</glyph>
<glyph name="iacute" format="2">
	<unicode hex="00ED"/>
	<advance width="229"/>
	<outline>
		<contour>
			<point name="n00" x="160" y="0" type="line"/>
			<point name="n01" x="275" y="500" type="line"/>
			<point x="185" y="500" type="line"/>
			<point x="70" y="0" type="line"/>
		</contour>
		<contour>
			<point x="433" y="771" type="line"/>
			<point x="332" y="771" type="line"/>
			<point x="193" y="600" type="line"/>
			<point x="254" y="600" type="line"/>
		</contour>
	</outline>
</glyph>
<glyph name="idieresis" format="2">
	<unicode hex="00EF"/>
	<advance width="229"/>
	<outline>
		<contour>
			<point name="n00" x="160" y="0" type="line"/>
			<point name="n01" x="275" y="500" type="line"/>
			<point x="185" y="500" type="line"/>
			<point x="70" y="0" type="line"/>
		</contour>
		<contour>
			<point x="205" y="630" type="line"/>
			<point x="237" y="722" type="line"/>
			<point name="n06" x="137" y="722" type="line"/>
			<point name="n07" x="115" y="630" type="line"/>
		</contour>
		<contour>
			<point x="405" y="630" type="line"/>
			<point x="427" y="722" type="line"/>
			<point x="337" y="722" type="line"/>
			<point x="315" y="630" type="line"/>
		</contour>
	</outline>
</glyph>
<glyph name="eth" format="2">
  <advance width="587"/>
  <unicode hex="00F0"/>
  <outline>
    <contour>
      <point x="95" y="164" type="curve" smooth="yes"/>
      <point x="95" y="55"/>
      <point x="159" y="-12"/>
      <point x="285" y="-12" type="curve" smooth="yes"/>
      <point x="489" y="-12"/>
      <point x="608" y="162"/>
      <point x="608" y="342" type="curve" smooth="yes"/>
      <point x="608" y="491"/>
      <point x="528" y="586"/>
      <point x="465" y="627" type="curve"/>
      <point x="615" y="690" type="line"/>
      <point x="604" y="732" type="line"/>
      <point x="425" y="659" type="line"/>
      <point x="410.639" y="668.206"/>
      <point x="325.475" y="722.798"/>
      <point x="308" y="734" type="curve"/>
      <point x="252" y="705" type="line"/>
      <point x="266.443" y="693.767"/>
      <point x="333.828" y="641.356"/>
      <point x="351" y="628" type="curve"/>
      <point x="198" y="566" type="line"/>
      <point x="207" y="523" type="line"/>
      <point x="395" y="598" type="line"/>
      <point x="421" y="580"/>
      <point x="459" y="540"/>
      <point x="459" y="507" type="curve"/>
      <point x="446" y="510"/>
      <point x="419" y="513"/>
      <point x="394" y="513" type="curve" smooth="yes"/>
      <point x="207" y="513"/>
      <point x="95" y="343"/>
    </contour>
    <contour>
      <point x="189" y="184" type="curve" smooth="yes"/>
      <point x="189" y="295"/>
      <point x="269" y="441"/>
      <point x="399" y="441" type="curve" smooth="yes"/>
      <point x="475" y="441"/>
      <point x="511" y="393"/>
      <point x="511" y="315" type="curve" smooth="yes"/>
      <point x="511" y="203"/>
      <point x="437" y="70"/>
      <point x="299" y="70" type="curve" smooth="yes"/>
      <point x="226" y="70"/>
      <point x="189" y="108"/>
    </contour>
  </outline>
</glyph>
<glyph name="ocircumflex" format="2">
	<unicode hex="00F4"/>
	<advance width="580"/>
	<outline>
		<contour>
			<point x="503" y="248" type="curve" smooth="yes"/>
			<point x="480" y="148"/>
			<point x="405" y="51"/>
			<point name="n03" x="302" y="51" type="curve" smooth="yes"/>
			<point x="199" y="51"/>
			<point x="168" y="148"/>
			<point x="191" y="248" type="curve" smooth="yes"/>
			<point x="214" y="349"/>
			<point x="290" y="447"/>
			<point name="n09" x="393" y="447" type="curve" smooth="yes"/>
			<point x="496" y="447"/>
			<point x="526" y="349"/>
		</contour>
		<contour>
			<point x="598" y="250" type="line"/>
			<point x="635" y="410"/>
			<point x="564" y="512"/>
			<point name="n15" x="408" y="512" type="curve" smooth="yes"/>
			<point x="253" y="512"/>
			<point x="134" y="408"/>
			<point x="97" y="249" type="curve" smooth="yes"/>
			<point x="60" y="90"/>
			<point x="132" y="-14"/>
			<point name="n21" x="287" y="-14" type="curve" smooth="yes"/>
			<point x="443" y="-14"/>
			<point x="560" y="88"/>
			<point x="597" y="248" type="curve"/>
		</contour>
		<contour>
			<point x="580" y="600" type="line"/>
			<point x="529" y="770" type="line"/>
			<point x="419" y="770" type="line"/>
			<point x="290" y="600" type="line"/>
			<point x="350" y="600" type="line"/>
			<point x="460" y="710" type="line"/>
			<point x="520" y="600" type="line"/>
		</contour>
	</outline>
</glyph>
<glyph name="odieresis" format="2">
	<unicode hex="00F6"/>
	<advance width="580"/>
	<outline>
		<contour>
			<point x="503" y="248" type="curve" smooth="yes"/>
			<point x="480" y="148"/>
			<point x="405" y="51"/>
			<point name="n03" x="302" y="51" type="curve" smooth="yes"/>
			<point x="199" y="51"/>
			<point x="168" y="148"/>
			<point x="191" y="248" type="curve" smooth="yes"/>
			<point x="214" y="349"/>
			<point x="290" y="447"/>
			<point name="n09" x="393" y="447" type="curve" smooth="yes"/>
			<point x="496" y="447"/>
			<point x="526" y="349"/>
		</contour>
		<contour>
			<point x="598" y="250" type="line"/>
			<point x="635" y="410"/>
			<point x="564" y="512"/>
			<point name="n15" x="408" y="512" type="curve" smooth="yes"/>
			<point x="253" y="512"/>
			<point x="134" y="408"/>
			<point x="97" y="249" type="curve" smooth="yes"/>
			<point x="60" y="90"/>
			<point x="132" y="-14"/>
			<point name="n21" x="287" y="-14" type="curve" smooth="yes"/>
			<point x="443" y="-14"/>
			<point x="560" y="88"/>
			<point x="597" y="248" type="curve"/>
		</contour>
		<contour>
			<point name="n25" x="386" y="630" type="line"/>
			<point name="n26" x="408" y="722" type="line"/>
			<point x="318" y="722" type="line"/>
			<point x="296" y="630" type="line"/>
		</contour>
		<contour>
			<point x="586" y="630" type="line"/>
			<point x="608" y="722" type="line"/>
			<point x="518" y="722" type="line"/>
			<point x="496" y="630" type="line"/>
		</contour>
	</outline>
</glyph>
<glyph name="divide" format="2">
	<unicode hex="00F7"/>
	<advance width="1000"/>
	<outline>
		<contour>
			<point name="n00" x="546" y="199" type="curve" smooth="yes"/>
			<point x="513" y="199"/>
			<point x="480" y="172"/>
			<point x="472" y="139" type="curve" smooth="yes"/>
			<point x="464" y="106"/>
			<point x="486" y="80"/>
			<point name="n06" x="518" y="80" type="curve" smooth="yes"/>
			<point x="550" y="80"/>
			<point x="585" y="107"/>
			<point x="592" y="139" type="curve" smooth="yes"/>
			<point x="600" y="172"/>
			<point x="579" y="199"/>
		</contour>
		<contour>
			<point name="n12" x="862" y="269" type="line"/>
			<point name="n13" x="876" y="331" type="line"/>
			<point x="276" y="331" type="line"/>
			<point x="262" y="269" type="line"/>
		</contour>
		<contour>
			<point name="n16" x="620" y="521" type="curve" smooth="yes"/>
			<point x="588" y="521"/>
			<point x="554" y="494"/>
			<point x="546" y="461" type="curve" smooth="yes"/>
			<point x="538" y="428"/>
			<point x="560" y="401"/>
			<point name="n22" x="593" y="401" type="curve" smooth="yes"/>
			<point x="626" y="401"/>
			<point x="658" y="428"/>
			<point x="666" y="461" type="curve" smooth="yes"/>
			<point x="674" y="494"/>
			<point x="652" y="521"/>
		</contour>
	</outline>
</glyph>
<glyph name="thorn" format="2">
	<unicode hex="00FE"/>
	<advance width="598"/>
	<outline>
		<contour>
			<point x="607" y="250" type="curve" smooth="yes"/>
			<point x="643" y="407"/>
			<point x="598" y="514"/>
			<point name="n03" x="436" y="514" type="curve" smooth="yes"/>
			<point x="372" y="514"/>
			<point x="328" y="488"/>
			<point x="262" y="438" type="curve"/>
			<point name="n07" x="328" y="723" type="line"/>
			<point x="238" y="723" type="line"/>
			<point x="25" y="-200" type="line"/>
			<point x="115" y="-200" type="line"/>
			<point x="173" y="53" type="line"/>
			<point x="218" y="9"/>
			<point x="266" y="-13"/>
			<point name="n14" x="316" y="-13" type="curve" smooth="yes"/>
			<point x="478" y="-13"/>
			<point x="571" y="94"/>
		</contour>
		<contour>
			<point name="n17" x="411" y="449" type="curve" smooth="yes"/>
			<point x="510" y="449"/>
			<point x="537" y="361"/>
			<point x="511" y="250" type="curve" smooth="yes"/>
			<point x="485" y="139"/>
			<point x="418" y="51"/>
			<point name="n23" x="319" y="51" type="curve" smooth="yes"/>
			<point x="219" y="51"/>
			<point x="193" y="139"/>
			<point x="219" y="250" type="curve" smooth="yes"/>
			<point x="243" y="355"/>
			<point x="309" y="449"/>
		</contour>
	</outline>
</glyph>
<glyph name="ccaron" format="2">
	<unicode hex="010D"/>
	<advance width="501"/>
	<outline>
		<contour>
			<point name="n00" x="543" y="341" type="line"/>
			<point x="561" y="453"/>
			<point x="497" y="512"/>
			<point name="n03" x="386" y="512" type="curve" smooth="yes"/>
			<point x="237" y="512"/>
			<point x="132" y="399"/>
			<point x="96" y="244" type="curve" smooth="yes"/>
			<point x="58" y="79"/>
			<point x="118" y="-14"/>
			<point name="n09" x="262" y="-14" type="curve" smooth="yes"/>
			<point x="377" y="-14"/>
			<point x="476" y="58"/>
			<point name="n12" x="507" y="167" type="curve"/>
			<point name="n13" x="412" y="167" type="line"/>
			<point x="393" y="95"/>
			<point x="341" y="50"/>
			<point name="n16" x="276" y="50" type="curve" smooth="yes"/>
			<point x="190" y="50"/>
			<point x="162" y="118"/>
			<point x="194" y="255" type="curve" smooth="yes"/>
			<point x="214" y="342"/>
			<point x="262" y="447"/>
			<point name="n22" x="372" y="447" type="curve" smooth="yes"/>
			<point x="432" y="447"/>
			<point x="457" y="402"/>
			<point name="n25" x="448" y="341" type="curve"/>
		</contour>
		<contour>
			<point x="569" y="743" type="line"/>
			<point x="509" y="743" type="line"/>
			<point x="398" y="633" type="line"/>
			<point x="339" y="743" type="line"/>
			<point x="279" y="743" type="line"/>
			<point x="329" y="573" type="line"/>
			<point x="439" y="573" type="line"/>
		</contour>
	</outline>
</glyph>
<glyph name="dcaron" format="2">
	<unicode hex="010F"/>
	<advance width="561"/>
	<outline>
		<contour>
			<point x="189" y="248" type="curve" smooth="yes"/>
			<point x="212" y="346"/>
			<point x="271" y="449"/>
			<point name="n03" x="368" y="449" type="curve" smooth="yes"/>
			<point x="467" y="449"/>
			<point x="508" y="376"/>
			<point x="477" y="242" type="curve" smooth="yes"/>
			<point x="451" y="129"/>
			<point x="386" y="55"/>
			<point name="n09" x="289" y="55" type="curve" smooth="yes"/>
			<point x="197" y="55"/>
			<point x="167" y="152"/>
		</contour>
		<contour>
			<point name="n12" x="511" y="0" type="line"/>
			<point name="n13" x="678" y="722" type="line"/>
			<point x="588" y="722" type="line"/>
			<point x="521" y="435" type="line"/>
			<point x="498" y="479"/>
			<point x="459" y="513"/>
			<point name="n18" x="381" y="513" type="curve" smooth="yes"/>
			<point x="265" y="513"/>
			<point x="137" y="421"/>
			<point x="97" y="247" type="curve" smooth="yes"/>
			<point x="64" y="103"/>
			<point x="122" y="-13"/>
			<point name="n24" x="269" y="-13" type="curve" smooth="yes"/>
			<point x="329" y="-13"/>
			<point x="401" y="28"/>
			<point x="434" y="57" type="curve"/>
			<point x="421" y="0" type="line"/>
		</contour>
		<contour>
			<point name="hr03" x="948" y="722" type="line"/>
			<point x="828" y="722" type="line"/>
			<point x="710" y="472" type="line"/>
			<point x="780" y="472" type="line"/>
		</contour>
	</outline>
</glyph>
<glyph name="Dcroat" format="2">
  <advance width="719"/>
  <unicode hex="0110"/>
  <outline>
    <component base="D" xOffset="20"/>
    <contour>
      <point x="93" y="403" type="line"/>
      <point x="74" y="320" type="line"/>
      <point x="425" y="320" type="line"/>
      <point x="444" y="403" type="line"/>
    </contour>
  </outline>
</glyph>
<glyph name="Eogonek" format="2">
	<unicode hex="0118"/>
	<advance width="577"/>
	<outline>
		<contour>
			<point name="n00" x="247" y="-213" type="curve" smooth="yes"/>
			<point x="259" y="-213"/>
			<point x="283" y="-212"/>
			<point x="319" y="-209" type="curve"/>
			<point x="335" y="-139" type="line"/>
			<point name="n05" x="294" y="-143" type="line"/>
			<point x="261" y="-143"/>
			<point x="248" y="-132"/>
			<point x="253" y="-109" type="curve" smooth="yes"/>
			<point x="263" y="-65"/>
			<point x="304" y="-15"/>
			<point x="321" y="0" type="curve"/>
			<point name="n12" x="516" y="0" type="line"/>
			<point name="n13" x="536" y="87" type="line"/>
			<point x="180" y="87" type="line"/>
			<point name="n15" x="235" y="326" type="line"/>
			<point x="571" y="326" type="line"/>
			<point x="591" y="413" type="line"/>
			<point name="n18" x="255" y="413" type="line"/>
			<point x="307" y="635" type="line"/>
			<point name="n20" x="653" y="635" type="line"/>
			<point name="n21" x="673" y="722" type="line"/>
			<point x="226" y="722" type="line"/>
			<point x="59" y="0" type="line"/>
			<point x="281" y="0" type="line"/>
			<point x="266" y="-12" type="line"/>
			<point x="237" y="-32"/>
			<point x="188" y="-85"/>
			<point x="178" y="-128" type="curve" smooth="yes"/>
			<point x="165" y="-183"/>
			<point x="192" y="-213"/>
		</contour>
	</outline>
</glyph>
<glyph name="eogonek" format="2">
	<unicode hex="0119"/>
	<advance width="537"/>
	<outline>
		<contour>
			<point x="470" y="302" type="curve"/>
			<point name="n01" x="206" y="302" type="line"/>
			<point x="231" y="399"/>
			<point x="298" y="447"/>
			<point name="n04" x="370" y="447" type="curve" smooth="yes"/>
			<point x="478" y="447"/>
			<point x="484" y="362"/>
		</contour>
		<contour>
			<point name="n07" x="205" y="-226" type="line"/>
			<point x="217" y="-226"/>
			<point x="241" y="-225"/>
			<point x="277" y="-222" type="curve"/>
			<point x="293" y="-152" type="line"/>
			<point name="n12" x="252" y="-156" type="line"/>
			<point x="219" y="-156"/>
			<point x="206" y="-145"/>
			<point x="211" y="-122" type="curve" smooth="yes"/>
			<point x="221" y="-78"/>
			<point x="263" y="-28"/>
			<point name="n18" x="278" y="-14" type="curve"/>
			<point x="399" y="-11"/>
			<point x="488" y="57"/>
			<point name="n21" x="532" y="160" type="curve"/>
			<point name="n22" x="436" y="160" type="line"/>
			<point x="416" y="98"/>
			<point x="362" y="51"/>
			<point name="n25" x="294" y="51" type="curve" smooth="yes"/>
			<point x="198" y="51"/>
			<point x="166" y="134"/>
			<point name="n28" x="190" y="236" type="curve"/>
			<point x="548" y="236" type="line"/>
			<point x="559" y="283" type="line" smooth="yes"/>
			<point x="591" y="423"/>
			<point x="532" y="512"/>
			<point name="n33" x="387" y="512" type="curve" smooth="yes"/>
			<point x="234" y="512"/>
			<point x="134" y="405"/>
			<point x="98" y="251" type="curve" smooth="yes"/>
			<point x="66" y="112"/>
			<point x="100" y="2"/>
			<point x="239" y="-12" type="curve"/>
			<point x="224" y="-24" type="line"/>
			<point x="195" y="-44"/>
			<point x="147" y="-97"/>
			<point x="137" y="-140" type="curve" smooth="yes"/>
			<point x="124" y="-195"/>
			<point x="150" y="-225"/>
			<point x="205" y="-225" type="curve"/>
		</contour>
	</outline>
</glyph>
<glyph name="Gbreve" format="2">
	<unicode hex="011E"/>
	<advance width="735"/>
	<outline>
		<contour>
			<point x="676" y="36" type="curve"/>
			<point x="757" y="385" type="line"/>
			<point name="n02" x="492" y="385" type="line"/>
			<point name="n03" x="472" y="298" type="line"/>
			<point x="636" y="298" type="line"/>
			<point x="590" y="98" type="line"/>
			<point x="533" y="85"/>
			<point x="474" y="74"/>
			<point name="n08" x="410" y="74" type="curve" smooth="yes"/>
			<point x="232" y="74"/>
			<point x="199" y="211"/>
			<point x="240" y="388" type="curve" smooth="yes"/>
			<point x="278" y="551"/>
			<point x="388" y="649"/>
			<point name="n14" x="555" y="649" type="curve" smooth="yes"/>
			<point x="655" y="649"/>
			<point x="708" y="593"/>
			<point x="696" y="542" type="curve"/>
			<point x="797" y="542" type="line"/>
			<point x="826" y="669"/>
			<point x="701" y="736"/>
			<point name="n21" x="566" y="736" type="curve" smooth="yes"/>
			<point x="361" y="736"/>
			<point x="183" y="591"/>
			<point x="137" y="390" type="curve" smooth="yes"/>
			<point x="75" y="121"/>
			<point x="163" y="-14"/>
			<point name="n27" x="401" y="-14" type="curve" smooth="yes"/>
			<point x="514" y="-14"/>
			<point x="604" y="12"/>
		</contour>
		<contour>
			<point name="n30" x="595" y="859" type="curve" smooth="yes"/>
			<point x="558" y="859"/>
			<point x="520" y="883"/>
			<point name="n33" x="520" y="913" type="curve"/>
			<point name="n34" x="468" y="913" type="line"/>
			<point x="461" y="849"/>
			<point x="508" y="796"/>
			<point name="n37" x="581" y="796" type="curve" smooth="yes"/>
			<point x="655" y="796"/>
			<point x="725" y="850"/>
			<point x="749" y="913" type="curve"/>
			<point x="697" y="913" type="line"/>
			<point x="683" y="882"/>
			<point x="633" y="859"/>
		</contour>
	</outline>
</glyph>
<glyph name="Gdotaccent" format="2">
	<unicode hex="0120"/>
	<advance width="735"/>
	<outline>
		<contour>
			<point x="679" y="36" type="curve"/>
			<point x="760" y="385" type="line"/>
			<point name="n02" x="495" y="385" type="line"/>
			<point name="n03" x="475" y="298" type="line"/>
			<point x="639" y="298" type="line"/>
			<point x="593" y="98" type="line"/>
			<point x="536" y="85"/>
			<point x="477" y="74"/>
			<point name="n08" x="413" y="74" type="curve" smooth="yes"/>
			<point x="235" y="74"/>
			<point x="202" y="211"/>
			<point x="243" y="388" type="curve" smooth="yes"/>
			<point x="281" y="551"/>
			<point x="391" y="649"/>
			<point name="n14" x="558" y="649" type="curve" smooth="yes"/>
			<point x="658" y="649"/>
			<point x="711" y="593"/>
			<point x="699" y="542" type="curve"/>
			<point x="800" y="542" type="line"/>
			<point x="829" y="669"/>
			<point x="704" y="736"/>
			<point name="n21" x="569" y="736" type="curve" smooth="yes"/>
			<point x="364" y="736"/>
			<point x="186" y="591"/>
			<point x="140" y="390" type="curve" smooth="yes"/>
			<point x="78" y="121"/>
			<point x="166" y="-14"/>
			<point name="n27" x="404" y="-14" type="curve" smooth="yes"/>
			<point x="517" y="-14"/>
			<point x="607" y="12"/>
		</contour>
		<contour>
			<point name="n30" x="628" y="796" type="line"/>
			<point name="n31" x="651" y="896" type="line"/>
			<point x="561" y="896" type="line"/>
			<point x="538" y="796" type="line"/>
		</contour>
	</outline>
</glyph>
<glyph name="hcircumflex" format="2">
	<unicode hex="0125"/>
	<advance width="533"/>
	<outline>
		<contour>
			<point name="n00" x="414" y="513" type="line"/>
			<point x="340" y="513"/>
			<point x="261" y="473"/>
			<point x="240" y="436" type="curve"/>
			<point name="n04" x="305" y="721" type="line"/>
			<point x="215" y="721" type="line"/>
			<point x="49" y="-1" type="line"/>
			<point x="139" y="-1" type="line"/>
			<point x="217" y="340" type="line" smooth="yes"/>
			<point x="228" y="389"/>
			<point x="302" y="446"/>
			<point name="n11" x="390" y="446" type="curve" smooth="yes"/>
			<point x="457" y="446"/>
			<point x="481" y="387"/>
			<point x="464" y="313" type="curve" smooth="yes"/>
			<point x="392" y="-2" type="line"/>
			<point x="482" y="-2" type="line"/>
			<point x="553" y="309" type="line" smooth="yes"/>
			<point x="585" y="446"/>
			<point x="549" y="511"/>
			<point x="414" y="511" type="curve"/>
		</contour>
		<contour>
			<point x="592" y="782" type="line"/>
			<point x="541" y="952" type="line"/>
			<point x="431" y="952" type="line"/>
			<point x="302" y="782" type="line"/>
			<point x="362" y="782" type="line"/>
			<point x="472" y="892" type="line"/>
			<point x="532" y="782" type="line"/>
		</contour>
	</outline>
</glyph>
<glyph name="Hbar" format="2">
  <advance width="669"/>
  <unicode hex="0126"/>
  <outline>
    <component base="H" xOffset="-10"/>
    <contour>
      <point x="134" y="517" type="line"/>
      <point x="787" y="517" type="line"/>
      <point x="802" y="581" type="line"/>
      <point x="149" y="581" type="line"/>
    </contour>
  </outline>
</glyph>
<glyph name="hbar" format="2">
  <advance width="583"/>
  <unicode hex="0127"/>
  <outline>
    <component base="h"/>
    <contour>
      <point x="94.2862" y="567" type="line"/>
      <point x="466.039" y="567" type="line"/>
      <point x="474.579" y="631" type="line"/>
      <point x="102.826" y="631" type="line"/>
    </contour>
  </outline>
</glyph>
<glyph name="Itilde" format="2">
	<unicode hex="0128"/>
	<advance width="261"/>
	<outline>
		<contour>
			<point name="n00" x="182" y="0" type="line"/>
			<point name="n01" x="349" y="722" type="line"/>
			<point x="248" y="722" type="line"/>
			<point x="81" y="0" type="line"/>
		</contour>
		<contour>
			<point x="171" y="796" type="line"/>
			<point x="265" y="796" type="line"/>
			<point x="251" y="809"/>
			<point x="247" y="819"/>
			<point x="249" y="826" type="curve" smooth="yes"/>
			<point x="251" y="833"/>
			<point x="257" y="837"/>
			<point name="n11" x="264" y="837" type="curve" smooth="yes"/>
			<point x="272" y="837"/>
			<point name="hr01" x="337" y="801"/>
			<point name="n14" x="374" y="801" type="curve" smooth="yes"/>
			<point x="423" y="801"/>
			<point x="466" y="849"/>
			<point x="482" y="899" type="curve"/>
			<point x="427" y="899" type="line"/>
			<point x="414" y="872"/>
			<point x="400" y="858"/>
			<point name="n21" x="387" y="858" type="curve" smooth="yes"/>
			<point x="379" y="858"/>
			<point name="hr02" x="314" y="894"/>
			<point name="n24" x="275" y="894" type="curve" smooth="yes"/>
			<point x="227" y="894"/>
			<point x="185" y="845"/>
			<point x="170" y="796" type="curve"/>
		</contour>
	</outline>
</glyph>
<glyph name="itilde" format="2">
	<unicode hex="0129"/>
	<advance width="229"/>
	<outline>
		<contour>
			<point name="n00" x="162" y="0" type="line"/>
			<point name="n01" x="277" y="500" type="line"/>
			<point x="187" y="500" type="line"/>
			<point x="72" y="0" type="line"/>
		</contour>
		<contour>
			<point x="104" y="573" type="curve"/>
			<point x="157" y="573" type="line"/>
			<point x="170" y="600"/>
			<point x="185" y="614"/>
			<point name="n08" x="199" y="614" type="curve" smooth="yes"/>
			<point x="207" y="614"/>
			<point name="hr01" x="271" y="578"/>
			<point name="n11" x="308" y="578" type="curve" smooth="yes"/>
			<point x="357" y="578"/>
			<point x="400" y="626"/>
			<point x="416" y="676" type="curve"/>
			<point x="361" y="676" type="line"/>
			<point x="348" y="649"/>
			<point x="335" y="635"/>
			<point name="n18" x="322" y="635" type="curve" smooth="yes"/>
			<point x="314" y="635"/>
			<point name="hr02" x="249" y="671"/>
			<point name="n21" x="210" y="671" type="curve" smooth="yes"/>
			<point x="162" y="671"/>
			<point x="119" y="622"/>
		</contour>
	</outline>
</glyph>
<glyph name="imacron" format="2">
	<unicode hex="012B"/>
	<advance width="229"/>
	<outline>
		<contour>
			<point name="n00" x="160" y="0" type="line"/>
			<point name="n01" x="275" y="500" type="line"/>
			<point x="185" y="500" type="line"/>
			<point name="n03" x="70" y="0" type="line"/>
		</contour>
		<contour>
			<point name="n04" x="378" y="573" type="line"/>
			<point name="n05" x="394" y="642" type="line"/>
			<point x="132" y="642" type="line"/>
			<point x="116" y="573" type="line"/>
		</contour>
	</outline>
</glyph>
<glyph name="Ibreve" format="2">
	<unicode hex="012C"/>
	<advance width="261"/>
	<outline>
		<contour>
			<point name="n00" x="179" y="0" type="line"/>
			<point name="n01" x="346" y="722" type="line"/>
			<point x="245" y="722" type="line"/>
			<point x="78" y="0" type="line"/>
		</contour>
		<contour>
			<point name="n04" x="327" y="859" type="curve" smooth="yes"/>
			<point x="290" y="859"/>
			<point x="252" y="883"/>
			<point name="n07" x="252" y="913" type="curve"/>
			<point name="n08" x="200" y="913" type="line"/>
			<point x="193" y="849"/>
			<point x="240" y="796"/>
			<point name="n11" x="313" y="796" type="curve" smooth="yes"/>
			<point x="387" y="796"/>
			<point x="457" y="850"/>
			<point x="481" y="913" type="curve"/>
			<point x="429" y="913" type="line"/>
			<point x="415" y="882"/>
			<point x="365" y="859"/>
		</contour>
	</outline>
</glyph>
<glyph name="iogonek" format="2">
	<unicode hex="012F"/>
	<advance width="246"/>
	<outline>
		<contour>
			<point name="n00" x="321" y="630" type="line"/>
			<point name="n01" x="343" y="722" type="line"/>
			<point x="237" y="722" type="line"/>
			<point x="215" y="630" type="line"/>
		</contour>
		<contour>
			<point name="n04" x="62" y="-213" type="curve" smooth="yes"/>
			<point x="74" y="-213"/>
			<point x="98" y="-212"/>
			<point x="134" y="-209" type="curve"/>
			<point x="150" y="-139" type="line"/>
			<point name="n09" x="109" y="-143" type="line"/>
			<point x="76" y="-143"/>
			<point x="63" y="-132"/>
			<point x="68" y="-109" type="curve" smooth="yes"/>
			<point x="78" y="-65"/>
			<point x="119" y="-15"/>
			<point x="136" y="0" type="curve"/>
			<point x="168" y="0" type="line"/>
			<point name="n17" x="283" y="500" type="line"/>
			<point x="193" y="500" type="line"/>
			<point x="78" y="0" type="line"/>
			<point x="96" y="0" type="line"/>
			<point x="81" y="-12" type="line"/>
			<point x="52" y="-32"/>
			<point x="3" y="-85"/>
			<point x="-7" y="-128" type="curve" smooth="yes"/>
			<point x="-20" y="-183"/>
			<point x="7" y="-213"/>
		</contour>
	</outline>
</glyph>
<glyph name="Idotaccent" format="2">
	<unicode hex="0130"/>
	<advance width="261"/>
	<outline>
		<contour>
			<point name="n00" x="180" y="0" type="line"/>
			<point name="n01" x="347" y="722" type="line"/>
			<point x="246" y="722" type="line"/>
			<point name="n03" x="79" y="0" type="line"/>
		</contour>
		<contour>
			<point name="n04" x="359" y="796" type="line"/>
			<point name="n05" x="382" y="896" type="line"/>
			<point x="292" y="896" type="line"/>
			<point x="269" y="796" type="line"/>
		</contour>
	</outline>
</glyph>
<glyph name="dotlessi" format="2">
	<unicode hex="0131"/>
	<advance width="229"/>
	<outline>
		<contour>
			<point name="n00" x="160" y="0" type="line"/>
			<point name="n01" x="275" y="500" type="line"/>
			<point x="185" y="500" type="line"/>
			<point name="n03" x="70" y="0" type="line"/>
		</contour>
	</outline>
</glyph>
<glyph name="IJ" format="2">
	<unicode hex="0132"/>
	<advance width="800"/>
	<outline>
		<contour>
			<point name="n00" x="181" y="0" type="line"/>
			<point name="n01" x="348" y="722" type="line"/>
			<point x="247" y="722" type="line"/>
			<point x="80" y="0" type="line"/>
		</contour>
		<contour>
			<point name="n04" x="541" y="74" type="curve" smooth="yes"/>
			<point x="466" y="74"/>
			<point x="438" y="114"/>
			<point name="n07" x="454" y="194" type="curve"/>
			<point name="n08" x="356" y="194" type="line"/>
			<point x="328" y="72"/>
			<point x="393" y="-14"/>
			<point name="n11" x="516" y="-14" type="curve" smooth="yes"/>
			<point x="649" y="-14"/>
			<point x="759" y="81"/>
			<point x="790" y="215" type="curve" smooth="yes"/>
			<point x="907" y="722" type="line"/>
			<point x="806" y="722" type="line"/>
			<point x="689" y="215" type="line" smooth="yes"/>
			<point x="671" y="135"/>
			<point x="615" y="74"/>
		</contour>
	</outline>
</glyph>
<glyph name="Jcircumflex" format="2">
	<unicode hex="0134"/>
	<advance width="539"/>
	<outline>
		<contour>
			<point name="n00" x="279" y="74" type="curve" smooth="yes"/>
			<point x="204" y="74"/>
			<point x="176" y="114"/>
			<point name="n03" x="192" y="194" type="curve"/>
			<point name="n04" x="94" y="194" type="line"/>
			<point x="66" y="72"/>
			<point x="131" y="-14"/>
			<point name="n07" x="254" y="-14" type="curve" smooth="yes"/>
			<point x="387" y="-14"/>
			<point x="497" y="81"/>
			<point x="528" y="215" type="curve" smooth="yes"/>
			<point name="n11" x="645" y="722" type="line"/>
			<point x="544" y="722" type="line"/>
			<point x="427" y="215" type="line" smooth="yes"/>
			<point x="409" y="135"/>
			<point x="353" y="74"/>
		</contour>
		<contour>
			<point x="757" y="796" type="line"/>
			<point x="706" y="966" type="line"/>
			<point x="596" y="966" type="line"/>
			<point x="467" y="796" type="line"/>
			<point x="527" y="796" type="line"/>
			<point x="637" y="906" type="line"/>
			<point x="697" y="796" type="line"/>
		</contour>
	</outline>
</glyph>
<glyph name="kgreenlandic" format="2">
  <advance width="479"/>
  <unicode hex="0138"/>
  <anchor x="222" y="-60" name="bottom"/>
  <anchor x="266" y="800" name="top"/>
  <outline>
    <contour>
      <point x="459" y="0" type="line"/>
      <point x="308" y="282" type="line"/>
      <point x="558" y="500" type="line"/>
      <point x="445" y="500" type="line"/>
      <point x="207" y="292" type="line"/>
      <point x="255" y="500" type="line"/>
      <point x="159" y="470" type="line"/>
      <point x="50" y="0" type="line"/>
      <point x="140" y="0" type="line"/>
      <point x="202" y="267" type="line"/>
      <point x="340" y="0" type="line"/>
    </contour>
  </outline>
</glyph>
<glyph name="Lacute" format="2">
	<unicode hex="0139"/>
	<advance width="495"/>
	<outline>
		<contour>
			<point name="n00" x="479" y="0" type="line"/>
			<point name="n01" x="499" y="87" type="line"/>
			<point x="180" y="87" type="line"/>
			<point name="n03" x="327" y="722" type="line"/>
			<point x="226" y="722" type="line"/>
			<point x="59" y="0" type="line"/>
		</contour>
		<contour>
			<point x="503" y="967" type="line"/>
			<point x="402" y="967" type="line"/>
			<point x="263" y="796" type="line"/>
			<point x="324" y="796" type="line"/>
		</contour>
	</outline>
</glyph>
<glyph name="lcedilla" format="2">
	<unicode hex="013C"/>
	<advance width="230"/>
	<outline>
		<contour>
			<point name="n00" x="160" y="0" type="line"/>
			<point name="n01" x="327" y="722" type="line"/>
			<point x="237" y="722" type="line"/>
			<point x="70" y="0" type="line"/>
		</contour>
		<contour>
			<point x="191" y="-60" type="line"/>
			<point x="71" y="-60" type="line"/>
			<point x="-47" y="-310" type="line"/>
			<point x="23" y="-310" type="line"/>
		</contour>
	</outline>
</glyph>
<glyph name="lcaron" format="2">
	<unicode hex="013E"/>
	<advance width="392"/>
	<outline>
		<contour>
			<point name="n00" x="160" y="0" type="line"/>
			<point name="n01" x="327" y="722" type="line"/>
			<point x="237" y="722" type="line"/>
			<point x="70" y="0" type="line"/>
		</contour>
		<contour>
			<point x="552" y="722" type="line"/>
			<point x="432" y="722" type="line"/>
			<point x="314" y="472" type="line"/>
			<point x="384" y="472" type="line"/>
		</contour>
	</outline>
</glyph>
<glyph name="ldot" format="2">
	<unicode hex="0140"/>
	<advance width="419"/>
	<outline>
		<contour>
			<point name="n00" x="160" y="0" type="line"/>
			<point name="n01" x="327" y="722" type="line"/>
			<point x="237" y="722" type="line"/>
			<point x="70" y="0" type="line"/>
		</contour>
		<contour>
			<point name="n04" x="416" y="278" type="line"/>
			<point name="n05" x="445" y="401" type="line"/>
			<point x="337" y="401" type="line"/>
			<point x="308" y="278" type="line"/>
		</contour>
	</outline>
</glyph>
<glyph name="Lslash" format="2">
	<unicode hex="0141"/>
	<advance width="590"/>
	<outline>
		<contour>
			<point name="n00" x="561" y="0" type="line"/>
			<point name="n01" x="581" y="87" type="line"/>
			<point x="262" y="87" type="line"/>
			<point x="334" y="398" type="line"/>
			<point x="464" y="502" type="line"/>
			<point x="483" y="584" type="line"/>
			<point x="353" y="479" type="line"/>
			<point name="n07" x="409" y="722" type="line"/>
			<point x="308" y="722" type="line"/>
			<point x="229" y="380" type="line"/>
			<point x="98" y="275" type="line"/>
			<point x="80" y="196" type="line"/>
			<point x="210" y="300" type="line"/>
			<point x="141" y="0" type="line"/>
		</contour>
	</outline>
</glyph>
<glyph name="lslash" format="2">
	<unicode hex="0142"/>
	<advance width="343"/>
	<outline>
		<contour>
			<point x="421" y="483" type="line"/>
			<point x="439" y="565" type="line"/>
			<point x="326" y="474" type="line"/>
			<point name="n03" x="384" y="722" type="line"/>
			<point x="294" y="722" type="line"/>
			<point x="216" y="385" type="line"/>
			<point x="103" y="294" type="line"/>
			<point x="85" y="215" type="line"/>
			<point x="197" y="305" type="line"/>
			<point name="n09" x="127" y="0" type="line"/>
			<point x="217" y="0" type="line"/>
			<point x="308" y="393" type="line"/>
		</contour>
	</outline>
</glyph>
<glyph name="nacute" format="2">
	<unicode hex="0144"/>
	<advance width="534"/>
	<outline>
		<contour>
			<point name="n00" x="378" y="453" type="line"/>
			<point x="445" y="453"/>
			<point x="487" y="398"/>
			<point x="472" y="331" type="curve" smooth="yes"/>
			<point name="n04" x="396" y="0" type="line"/>
			<point x="485" y="0" type="line"/>
			<point x="561" y="329" type="line" smooth="yes"/>
			<point x="589" y="452"/>
			<point x="539" y="513"/>
			<point name="n09" x="411" y="513" type="curve" smooth="yes"/>
			<point x="311" y="513"/>
			<point x="287" y="473"/>
			<point x="241" y="436" type="curve"/>
			<point name="n13" x="255" y="500" type="line"/>
			<point x="165" y="500" type="line"/>
			<point x="50" y="0" type="line"/>
			<point x="140" y="0" type="line"/>
			<point x="215" y="323" type="line" smooth="yes"/>
			<point x="232" y="398"/>
			<point name="hr02" x="303" y="453"/>
			<point x="377" y="453" type="curve"/>
		</contour>
		<contour>
			<point x="610" y="744" type="line"/>
			<point x="509" y="744" type="line"/>
			<point x="369" y="573" type="line"/>
			<point x="430" y="573" type="line"/>
		</contour>
	</outline>
</glyph>
<glyph name="ncedilla" format="2">
	<unicode hex="0146"/>
	<advance width="534"/>
	<outline>
		<contour>
			<point name="n00" x="377" y="453" type="line"/>
			<point x="444" y="453"/>
			<point x="486" y="398"/>
			<point x="471" y="331" type="curve" smooth="yes"/>
			<point name="n04" x="395" y="0" type="line"/>
			<point x="484" y="0" type="line"/>
			<point x="560" y="329" type="line" smooth="yes"/>
			<point x="588" y="452"/>
			<point x="538" y="513"/>
			<point name="n09" x="410" y="513" type="curve" smooth="yes"/>
			<point x="310" y="513"/>
			<point x="286" y="473"/>
			<point x="240" y="436" type="curve"/>
			<point name="n13" x="254" y="500" type="line"/>
			<point x="164" y="500" type="line"/>
			<point x="49" y="0" type="line"/>
			<point x="139" y="0" type="line"/>
			<point x="214" y="323" type="line" smooth="yes"/>
			<point x="231" y="398"/>
			<point name="hr02" x="302" y="453"/>
			<point x="376" y="453" type="curve"/>
		</contour>
		<contour>
			<point x="343" y="-60" type="line"/>
			<point x="223" y="-60" type="line"/>
			<point x="105" y="-310" type="line"/>
			<point x="175" y="-310" type="line"/>
		</contour>
	</outline>
</glyph>
<glyph name="napostrophe" format="2">
  <advance width="680"/>
  <unicode hex="0149"/>
  <outline>
    <component base="n" xOffset="100"/>
    <contour>
      <point x="292" y="722" type="line"/>
      <point x="186" y="722" type="line"/>
      <point x="142" y="434" type="line"/>
      <point x="202" y="434" type="line"/>
    </contour>
  </outline>
</glyph>
<glyph name="Eng" format="2">
  <advance width="683"/>
  <unicode hex="014A"/>
  <outline>
    <component base="N"/>
    <contour>
      <point x="538" y="19" type="line"/>
      <point x="520" y="-63" type="line" smooth="yes"/>
      <point x="511" y="-102"/>
      <point x="479" y="-131"/>
      <point x="439" y="-131" type="curve" smooth="yes"/>
      <point x="413" y="-131"/>
      <point x="382" y="-118"/>
      <point x="368" y="-94" type="curve"/>
      <point x="307" y="-144" type="line"/>
      <point x="333" y="-181"/>
      <point x="375" y="-200"/>
      <point x="429" y="-200" type="curve" smooth="yes"/>
      <point x="518" y="-200"/>
      <point x="591" y="-147"/>
      <point x="609" y="-63" type="curve" smooth="yes"/>
      <point x="627" y="19" type="line"/>
    </contour>
  </outline>
</glyph>
<glyph name="eng" format="2">
	<unicode hex="014B"/>
	<advance width="574"/>
	<outline>
		<contour>
			<point x="490" y="-60" type="line"/>
			<point x="580" y="329" type="line" smooth="yes"/>
			<point x="608" y="451"/>
			<point x="558" y="512"/>
			<point name="n04" x="430" y="512" type="curve" smooth="yes"/>
			<point x="346" y="512"/>
			<point x="311" y="477"/>
			<point x="261" y="436" type="curve"/>
			<point name="n08" x="275" y="500" type="line"/>
			<point x="185" y="500" type="line"/>
			<point name="n10" x="70" y="0" type="line"/>
			<point x="160" y="0" type="line"/>
			<point x="235" y="323" type="line" smooth="yes"/>
			<point x="252" y="398"/>
			<point name="hr02" x="323" y="452"/>
			<point name="n15" x="397" y="452" type="curve" smooth="yes"/>
			<point x="463" y="452"/>
			<point x="506" y="396"/>
			<point x="491" y="329" type="curve" smooth="yes"/>
			<point x="401" y="-62" type="line" smooth="yes"/>
			<point x="392" y="-101"/>
			<point x="360" y="-130"/>
			<point name="n22" x="323" y="-130" type="curve" smooth="yes"/>
			<point x="294" y="-130"/>
			<point x="272" y="-115"/>
			<point x="258" y="-86" type="curve"/>
			<point x="188" y="-143" type="line"/>
			<point x="214" y="-181"/>
			<point x="256" y="-200"/>
			<point name="n29" x="313" y="-200" type="curve" smooth="yes"/>
			<point x="399" y="-200"/>
			<point x="471" y="-146"/>
			<point x="490" y="-62" type="curve"/>
		</contour>
	</outline>
</glyph>
<glyph name="Obreve" format="2">
	<unicode hex="014E"/>
	<advance width="754"/>
	<outline>
		<contour>
			<point x="685" y="375" type="curve" smooth="yes"/>
			<point x="646" y="207"/>
			<point x="560" y="74"/>
			<point name="n03" x="392" y="74" type="curve" smooth="yes"/>
			<point x="224" y="74"/>
			<point x="198" y="208"/>
			<point x="237" y="375" type="curve" smooth="yes"/>
			<point x="279" y="558"/>
			<point x="375" y="649"/>
			<point name="n09" x="525" y="649" type="curve" smooth="yes"/>
			<point x="691" y="649"/>
			<point x="723" y="540"/>
		</contour>
		<contour>
			<point x="788" y="375" type="curve" smooth="yes"/>
			<point x="837" y="589"/>
			<point x="759" y="736"/>
			<point name="n15" x="545" y="736" type="curve" smooth="yes"/>
			<point x="330" y="736"/>
			<point x="183" y="589"/>
			<point x="134" y="375" type="curve" smooth="yes"/>
			<point x="84" y="158"/>
			<point x="154" y="-14"/>
			<point name="n21" x="372" y="-14" type="curve" smooth="yes"/>
			<point x="589" y="-14"/>
			<point x="738" y="157"/>
		</contour>
		<contour>
			<point name="n24" x="574" y="859" type="curve" smooth="yes"/>
			<point x="537" y="859"/>
			<point x="499" y="883"/>
			<point name="n27" x="499" y="913" type="curve"/>
			<point name="n28" x="447" y="913" type="line"/>
			<point x="440" y="849"/>
			<point x="487" y="796"/>
			<point name="n31" x="560" y="796" type="curve" smooth="yes"/>
			<point x="634" y="796"/>
			<point x="704" y="850"/>
			<point x="728" y="913" type="curve"/>
			<point x="676" y="913" type="line"/>
			<point x="662" y="882"/>
			<point x="612" y="859"/>
		</contour>
	</outline>
</glyph>
<glyph name="oe" format="2">
	<unicode hex="0153"/>
	<advance width="935"/>
	<outline>
		<contour>
			<point name="n00" x="485" y="249" type="line"/>
			<point x="461" y="144"/>
			<point x="394" y="50"/>
			<point name="n03" x="295" y="50" type="curve" smooth="yes"/>
			<point x="195" y="50"/>
			<point x="173" y="143"/>
			<point x="197" y="247" type="curve" smooth="yes"/>
			<point x="221" y="352"/>
			<point x="285" y="446"/>
			<point name="n09" x="385" y="446" type="curve" smooth="yes"/>
			<point x="484" y="446"/>
			<point x="508" y="352"/>
			<point name="n12" x="484" y="247" type="curve"/>
		</contour>
		<contour>
			<point x="855" y="300" type="curve"/>
			<point name="n14" x="583" y="300" type="line"/>
			<point x="599" y="370"/>
			<point x="673" y="448"/>
			<point x="763" y="448" type="curve" smooth="yes"/>
			<point x="847" y="448"/>
			<point x="878" y="399"/>
		</contour>
		<contour>
			<point x="571" y="406" type="line"/>
			<point x="556" y="477"/>
			<point x="500" y="513"/>
			<point name="n23" x="404" y="513" type="curve" smooth="yes"/>
			<point x="263" y="513"/>
			<point x="147" y="421"/>
			<point x="108" y="250" type="curve" smooth="yes"/>
			<point x="69" y="80"/>
			<point x="145" y="-13"/>
			<point name="n29" x="284" y="-13" type="curve" smooth="yes"/>
			<point x="377" y="-13"/>
			<point x="448" y="27"/>
			<point x="499" y="108" type="curve"/>
			<point x="505" y="27"/>
			<point x="558" y="-13"/>
			<point x="657" y="-13" type="curve" smooth="yes"/>
			<point x="775" y="-13"/>
			<point x="883" y="56"/>
			<point name="n38" x="922" y="159" type="curve"/>
			<point name="n39" x="825" y="159" type="line"/>
			<point x="804" y="95"/>
			<point x="745" y="52"/>
			<point x="673" y="52" type="curve" smooth="yes"/>
			<point x="564" y="52"/>
			<point x="550" y="155"/>
			<point name="n45" x="569" y="236" type="curve"/>
			<point x="938" y="236" type="line"/>
			<point x="951" y="281" type="line"/>
			<point x="980" y="407"/>
			<point x="934" y="512"/>
			<point x="783" y="512" type="curve" smooth="yes"/>
			<point x="684" y="512"/>
			<point x="625" y="476"/>
			<point x="571" y="407" type="curve"/>
		</contour>
	</outline>
</glyph>
<glyph name="racute" format="2">
	<unicode hex="0155"/>
	<advance width="343"/>
	<outline>
		<contour>
			<point x="420" y="420" type="line"/>
			<point name="n01" x="438" y="500" type="line"/>
			<point x="318" y="500"/>
			<point x="280" y="481"/>
			<point x="241" y="432" type="curve"/>
			<point x="256" y="500" type="line"/>
			<point x="166" y="500" type="line"/>
			<point name="n07" x="51" y="0" type="line"/>
			<point x="141" y="0" type="line"/>
			<point x="206" y="280" type="line" smooth="yes"/>
			<point x="227" y="373"/>
			<point x="299" y="420"/>
			<point x="421" y="420" type="curve"/>
		</contour>
		<contour>
			<point x="529" y="744" type="line"/>
			<point x="428" y="744" type="line"/>
			<point x="288" y="573" type="line"/>
			<point x="349" y="573" type="line"/>
		</contour>
	</outline>
</glyph>
<glyph name="rcedilla" format="2">
	<unicode hex="0157"/>
	<advance width="343"/>
	<outline>
		<contour>
			<point x="420" y="420" type="line"/>
			<point name="n01" x="438" y="500" type="line"/>
			<point x="318" y="500"/>
			<point x="280" y="481"/>
			<point x="241" y="432" type="curve"/>
			<point x="256" y="500" type="line"/>
			<point x="166" y="500" type="line"/>
			<point name="n07" x="51" y="0" type="line"/>
			<point x="141" y="0" type="line"/>
			<point x="206" y="280" type="line" smooth="yes"/>
			<point x="227" y="373"/>
			<point x="299" y="420"/>
			<point x="421" y="420" type="curve"/>
		</contour>
		<contour>
			<point x="171" y="-60" type="line"/>
			<point x="51" y="-60" type="line"/>
			<point x="-67" y="-310" type="line"/>
			<point x="3" y="-310" type="line"/>
		</contour>
	</outline>
</glyph>
<glyph name="Rcaron" format="2">
	<unicode hex="0158"/>
	<advance width="617"/>
	<outline>
		<contour>
			<point x="380" y="414" type="curve" smooth="yes"/>
			<point name="n01" x="255" y="414" type="line"/>
			<point x="305" y="634" type="line"/>
			<point name="n03" x="430" y="634" type="line" smooth="yes"/>
			<point x="524" y="634"/>
			<point x="588" y="613"/>
			<point x="567" y="524" type="curve" smooth="yes"/>
			<point x="547" y="436"/>
			<point x="474" y="414"/>
		</contour>
		<contour>
			<point x="567" y="0" type="line"/>
			<point x="557" y="77"/>
			<point x="576" y="275"/>
			<point name="n12" x="573" y="292" type="curve" smooth="yes"/>
			<point x="565" y="340"/>
			<point x="525" y="365"/>
			<point x="497" y="369" type="curve"/>
			<point x="597" y="412"/>
			<point x="654" y="464"/>
			<point x="668" y="525" type="curve" smooth="yes"/>
			<point x="701" y="668"/>
			<point x="629" y="722"/>
			<point name="n21" x="454" y="722" type="curve" smooth="yes"/>
			<point x="225" y="722" type="line"/>
			<point x="58" y="0" type="line"/>
			<point x="159" y="0" type="line"/>
			<point name="n25" x="235" y="328" type="line"/>
			<point x="354" y="328" type="line" smooth="yes"/>
			<point x="381" y="328"/>
			<point x="397" y="327"/>
			<point x="422" y="320" type="curve" smooth="yes"/>
			<point x="503" y="298"/>
			<point x="463" y="131"/>
			<point name="n32" x="463" y="-1" type="curve"/>
		</contour>
		<contour>
			<point x="543" y="966" type="line"/>
			<point x="483" y="966" type="line"/>
			<point x="373" y="856" type="line"/>
			<point x="313" y="966" type="line"/>
			<point x="253" y="966" type="line"/>
			<point x="304" y="796" type="line"/>
			<point x="414" y="796" type="line"/>
		</contour>
	</outline>
</glyph>
<glyph name="Scircumflex" format="2">
	<unicode hex="015C"/>
	<advance width="642"/>
	<outline>
		<contour>
			<point x="587" y="540" type="line"/>
			<point x="688" y="540" type="line"/>
			<point x="720" y="678"/>
			<point x="623" y="737"/>
			<point name="n04" x="475" y="737" type="curve" smooth="yes"/>
			<point x="382" y="737"/>
			<point x="215" y="680"/>
			<point x="182" y="538" type="curve" smooth="yes"/>
			<point x="113" y="237"/>
			<point x="587" y="418"/>
			<point x="535" y="193" type="curve" smooth="yes"/>
			<point x="511" y="90"/>
			<point x="404" y="73"/>
			<point name="n13" x="302" y="73" type="curve" smooth="yes"/>
			<point x="224" y="73"/>
			<point x="182" y="136"/>
			<point x="200" y="214" type="curve"/>
			<point x="98" y="214" type="line"/>
			<point x="66" y="75"/>
			<point x="146" y="-15"/>
			<point name="n20" x="285" y="-15" type="curve" smooth="yes"/>
			<point x="430" y="-15"/>
			<point x="598" y="32"/>
			<point x="637" y="199" type="curve" smooth="yes"/>
			<point x="705" y="494"/>
			<point x="238" y="341"/>
			<point x="282" y="533" type="curve" smooth="yes"/>
			<point x="300" y="609"/>
			<point x="354" y="647"/>
			<point name="n29" x="447" y="647" type="curve" smooth="yes"/>
			<point x="538" y="647"/>
			<point x="605" y="630"/>
			<point x="584" y="538" type="curve"/>
		</contour>
		<contour>
			<point x="635" y="796" type="line"/>
			<point x="584" y="966" type="line"/>
			<point x="474" y="966" type="line"/>
			<point x="345" y="796" type="line"/>
			<point x="405" y="796" type="line"/>
			<point x="515" y="906" type="line"/>
			<point x="575" y="796" type="line"/>
		</contour>
	</outline>
</glyph>
<glyph name="Scedilla" format="2">
	<unicode hex="015E"/>
	<advance width="642"/>
	<outline>
		<contour>
			<point x="589" y="540" type="line"/>
			<point x="690" y="540" type="line"/>
			<point x="722" y="678"/>
			<point x="625" y="737"/>
			<point name="n04" x="477" y="737" type="curve" smooth="yes"/>
			<point x="384" y="737"/>
			<point x="217" y="680"/>
			<point x="184" y="538" type="curve" smooth="yes"/>
			<point x="115" y="237"/>
			<point x="589" y="418"/>
			<point x="537" y="193" type="curve" smooth="yes"/>
			<point x="513" y="90"/>
			<point x="406" y="73"/>
			<point name="n13" x="304" y="73" type="curve" smooth="yes"/>
			<point x="226" y="73"/>
			<point x="184" y="136"/>
			<point x="202" y="214" type="curve"/>
			<point x="100" y="214" type="line"/>
			<point x="70" y="82"/>
			<point x="140" y="-6"/>
			<point name="n20" x="266" y="-15" type="curve"/>
			<point x="244" y="-107" type="line"/>
			<point name="n22" x="278" y="-107" type="line" smooth="yes"/>
			<point x="315" y="-107"/>
			<point x="361" y="-126"/>
			<point x="352" y="-166" type="curve" smooth="yes"/>
			<point x="346" y="-191"/>
			<point x="317" y="-203"/>
			<point x="270" y="-203" type="curve" smooth="yes"/>
			<point name="n29" x="264" y="-203" type="line" smooth="yes"/>
			<point x="234" y="-203"/>
			<point x="202" y="-199"/>
			<point x="168" y="-191" type="curve"/>
			<point x="156" y="-241" type="line"/>
			<point x="194" y="-247"/>
			<point x="225" y="-250"/>
			<point name="n36" x="250" y="-250" type="curve" smooth="yes"/>
			<point x="314" y="-250"/>
			<point x="409" y="-224"/>
			<point x="423" y="-165" type="curve"/>
			<point x="421" y="-165" type="line"/>
			<point x="438" y="-93"/>
			<point x="396" y="-57"/>
			<point name="n43" x="296" y="-57" type="curve"/>
			<point x="305" y="-16" type="line"/>
			<point x="445" y="-12"/>
			<point x="602" y="38"/>
			<point x="639" y="198" type="curve" smooth="yes"/>
			<point x="707" y="493"/>
			<point x="240" y="340"/>
			<point x="284" y="532" type="curve" smooth="yes"/>
			<point x="302" y="608"/>
			<point x="356" y="646"/>
			<point name="n53" x="449" y="646" type="curve" smooth="yes"/>
			<point x="540" y="646"/>
			<point x="607" y="629"/>
			<point x="586" y="537" type="curve"/>
		</contour>
	</outline>
</glyph>
<glyph name="Tbar" format="2">
	<unicode hex="0166"/>
	<advance width="622"/>
	<outline>
		<contour>
			<point name="n00" x="740" y="635" type="line"/>
			<point name="n01" x="760" y="722" type="line"/>
			<point x="187" y="722" type="line"/>
			<point x="167" y="635" type="line"/>
			<point x="403" y="635" type="line"/>
			<point x="340" y="363" type="line"/>
			<point name="n06" x="242" y="363" type="line"/>
			<point name="n07" x="227" y="298" type="line"/>
			<point x="325" y="298" type="line"/>
			<point name="n09" x="256" y="0" type="line"/>
			<point x="357" y="0" type="line"/>
			<point x="426" y="298" type="line"/>
			<point x="527" y="298" type="line"/>
			<point x="542" y="363" type="line"/>
			<point x="441" y="363" type="line"/>
			<point x="504" y="635" type="line"/>
		</contour>
	</outline>
</glyph>
<glyph name="tbar" format="2">
  <advance width="370"/>
  <unicode hex="0167"/>
  <outline>
    <component base="t"/>
    <contour>
      <point x="129" y="313" type="line"/>
      <point x="114" y="248" type="line"/>
      <point x="354" y="248" type="line"/>
      <point x="369" y="313" type="line"/>
    </contour>
  </outline>
</glyph>
<glyph name="utilde" format="2">
	<unicode hex="0169"/>
	<advance width="533"/>
	<outline>
		<contour>
			<point name="n00" x="273" y="48" type="line"/>
			<point x="207" y="48"/>
			<point x="165" y="103"/>
			<point x="180" y="169" type="curve" smooth="yes"/>
			<point name="n04" x="256" y="500" type="line"/>
			<point x="166" y="500" type="line"/>
			<point x="90" y="171" type="line" smooth="yes"/>
			<point x="61" y="46"/>
			<point x="111" y="-13"/>
			<point name="n09" x="239" y="-13" type="curve" smooth="yes"/>
			<point x="308" y="-13"/>
			<point x="365" y="13"/>
			<point x="410" y="64" type="curve"/>
			<point name="n13" x="395" y="0" type="line"/>
			<point x="485" y="0" type="line"/>
			<point x="600" y="500" type="line"/>
			<point x="510" y="500" type="line"/>
			<point x="436" y="178" type="line" smooth="yes"/>
			<point x="419" y="103"/>
			<point name="hr02" x="348" y="48"/>
			<point x="274" y="48" type="curve"/>
		</contour>
		<contour>
			<point x="255" y="573" type="curve"/>
			<point x="308" y="573" type="line"/>
			<point x="321" y="600"/>
			<point x="336" y="614"/>
			<point name="n25" x="350" y="614" type="curve" smooth="yes"/>
			<point x="358" y="614"/>
			<point name="hr03" x="422" y="578"/>
			<point name="n28" x="459" y="578" type="curve" smooth="yes"/>
			<point x="508" y="578"/>
			<point x="551" y="626"/>
			<point x="567" y="676" type="curve"/>
			<point x="512" y="676" type="line"/>
			<point x="499" y="649"/>
			<point x="486" y="635"/>
			<point name="n35" x="473" y="635" type="curve" smooth="yes"/>
			<point x="465" y="635"/>
			<point name="hr04" x="400" y="671"/>
			<point name="n38" x="361" y="671" type="curve" smooth="yes"/>
			<point x="313" y="671"/>
			<point x="270" y="622"/>
		</contour>
	</outline>
</glyph>
<glyph name="Ubreve" format="2">
	<unicode hex="016C"/>
	<advance width="697"/>
	<outline>
		<contour>
			<point x="343" y="-14" type="line"/>
			<point x="560" y="-14"/>
			<point x="657" y="96"/>
			<point x="709" y="322" type="curve" smooth="yes"/>
			<point name="n04" x="802" y="722" type="line"/>
			<point x="701" y="722" type="line"/>
			<point x="608" y="322" type="line" smooth="yes"/>
			<point x="570" y="157"/>
			<point x="505" y="74"/>
			<point name="n09" x="363" y="74" type="curve" smooth="yes"/>
			<point x="214" y="74"/>
			<point x="197" y="168"/>
			<point x="233" y="322" type="curve" smooth="yes"/>
			<point x="326" y="722" type="line"/>
			<point x="225" y="722" type="line"/>
			<point x="132" y="322" type="line" smooth="yes"/>
			<point x="80" y="96"/>
			<point x="127" y="-14"/>
			<point name="n18" x="344" y="-14" type="curve"/>
		</contour>
		<contour>
			<point name="n19" x="545" y="859" type="curve" smooth="yes"/>
			<point x="508" y="859"/>
			<point x="470" y="883"/>
			<point name="n22" x="470" y="913" type="curve"/>
			<point name="n23" x="418" y="913" type="line"/>
			<point x="411" y="849"/>
			<point x="458" y="796"/>
			<point name="n26" x="531" y="796" type="curve" smooth="yes"/>
			<point x="605" y="796"/>
			<point x="675" y="850"/>
			<point x="699" y="913" type="curve"/>
			<point x="647" y="913" type="line"/>
			<point x="633" y="882"/>
			<point x="583" y="859"/>
		</contour>
	</outline>
</glyph>
<glyph name="Wcircumflex" format="2">
	<unicode hex="0174"/>
	<advance width="972"/>
	<outline>
		<contour>
			<point name="n00" x="1124" y="722" type="line"/>
			<point x="1018" y="722" type="line"/>
			<point x="733" y="150" type="line"/>
			<point name="n03" x="713" y="722" type="line"/>
			<point x="593" y="722" type="line"/>
			<point x="309" y="150" type="line"/>
			<point name="n06" x="288" y="722" type="line"/>
			<point name="n07" x="182" y="722" type="line"/>
			<point name="n08" x="229" y="0" type="line"/>
			<point x="319" y="0" type="line"/>
			<point name="n10" x="625" y="602" type="line"/>
			<point x="653" y="0" type="line"/>
			<point x="743" y="0" type="line"/>
		</contour>
		<contour>
			<point x="815" y="796" type="line"/>
			<point x="764" y="966" type="line"/>
			<point x="654" y="966" type="line"/>
			<point x="525" y="796" type="line"/>
			<point x="585" y="796" type="line"/>
			<point x="695" y="906" type="line"/>
			<point x="755" y="796" type="line"/>
		</contour>
	</outline>
</glyph>
<glyph name="Zcaron" format="2">
	<unicode hex="017D"/>
	<advance width="615"/>
	<outline>
		<contour>
			<point name="n00" x="571" y="0" type="line"/>
			<point name="n01" x="591" y="87" type="line"/>
			<point x="175" y="87" type="line"/>
			<point x="702" y="612" type="line"/>
			<point x="728" y="722" type="line"/>
			<point name="n05" x="232" y="722" type="line"/>
			<point name="n06" x="212" y="635" type="line"/>
			<point x="598" y="635" type="line"/>
			<point x="70" y="110" type="line"/>
			<point x="45" y="0" type="line"/>
		</contour>
		<contour>
			<point x="672" y="992" type="line"/>
			<point x="612" y="992" type="line"/>
			<point x="502" y="882" type="line"/>
			<point x="442" y="992" type="line"/>
			<point x="382" y="992" type="line"/>
			<point x="433" y="822" type="line"/>
			<point x="543" y="822" type="line"/>
		</contour>
	</outline>
</glyph>
<glyph name="longs" format="2">
	<unicode hex="017F"/>
	<advance width="340"/>
	<outline>
		<contour>
			<point x="243" y="575" type="curve" smooth="yes"/>
			<point x="225" y="500" type="line"/>
			<point name="n02" x="125" y="500" type="line"/>
			<point name="n03" x="110" y="435" type="line"/>
			<point x="210" y="435" type="line"/>
			<point x="101" y="-39" type="line" smooth="yes"/>
			<point x="87" y="-98"/>
			<point x="62" y="-126"/>
			<point x="8" y="-126" type="curve" smooth="yes"/>
			<point name="n09" x="-1" y="-126" type="line" smooth="yes"/>
			<point x="-20" y="-126"/>
			<point x="-35" y="-122"/>
			<point x="-47" y="-114" type="curve"/>
			<point x="-64" y="-188" type="line"/>
			<point x="-46" y="-195"/>
			<point x="-25" y="-198"/>
			<point name="n16" x="-2" y="-198" type="curve" smooth="yes"/>
			<point x="4" y="-198" type="line" smooth="yes"/>
			<point x="111" y="-198"/>
			<point x="165" y="-154"/>
			<point x="191" y="-41" type="curve" smooth="yes"/>
			<point x="332" y="573" type="line" smooth="yes"/>
			<point x="346" y="632"/>
			<point x="371" y="660"/>
			<point x="425" y="660" type="curve" smooth="yes"/>
			<point name="n25" x="434" y="660" type="line" smooth="yes"/>
			<point x="453" y="660"/>
			<point x="469" y="656"/>
			<point x="481" y="648" type="curve"/>
			<point x="498" y="722" type="line"/>
			<point x="480" y="729"/>
			<point x="458" y="732"/>
			<point name="n32" x="435" y="732" type="curve" smooth="yes"/>
			<point x="429" y="732" type="line" smooth="yes"/>
			<point x="322" y="732"/>
			<point x="269" y="688"/>
		</contour>
	</outline>
</glyph>
<glyph name="uni019E" format="2">
  <advance width="615"/>
  <unicode hex="019E"/>
  <outline>
    <contour>
      <point x="93" y="0" type="line"/>
      <point x="183" y="0" type="line"/>
      <point x="258" y="323" type="line" smooth="yes"/>
      <point x="275" y="398"/>
      <point x="347" y="452"/>
      <point x="418" y="452" type="curve" smooth="yes"/>
      <point x="479" y="452"/>
      <point x="518" y="412"/>
      <point x="518" y="358" type="curve" smooth="yes"/>
      <point x="518" y="349"/>
      <point x="517" y="340"/>
      <point x="515" y="331" type="curve" smooth="yes"/>
      <point x="399" y="-200" type="line"/>
      <point x="489" y="-200" type="line"/>
      <point x="605" y="329" type="line" smooth="yes"/>
      <point x="610" y="351"/>
      <point x="612" y="371"/>
      <point x="612" y="387" type="curve" smooth="yes"/>
      <point x="612" y="472"/>
      <point x="559" y="512"/>
      <point x="458" y="512" type="curve" smooth="yes"/>
      <point x="364" y="512"/>
      <point x="325" y="478"/>
      <point x="284" y="436" type="curve"/>
      <point x="298" y="500" type="line"/>
      <point x="208" y="500" type="line"/>
    </contour>
  </outline>
</glyph>
<glyph name="uni01C0" format="2">
  <advance width="344"/>
  <unicode hex="01C0"/>
  <outline>
    <contour>
      <point x="138" y="-258" type="line"/>
      <point x="382" y="796" type="line"/>
      <point x="331" y="796" type="line"/>
      <point x="87" y="-258" type="line"/>
    </contour>
  </outline>
</glyph>
<glyph name="uni01C1" format="2">
	<unicode hex="01C1"/>
	<advance width="688"/>
	<outline>
		<contour>
			<point x="138" y="-258" type="line"/>
			<point name="n01" x="382" y="796" type="line"/>
			<point x="331" y="796" type="line"/>
			<point name="n03" x="87" y="-258" type="line"/>
		</contour>
		<contour>
			<point x="482" y="-258" type="line"/>
			<point name="n05" x="726" y="796" type="line"/>
			<point x="675" y="796" type="line"/>
			<point name="n07" x="431" y="-258" type="line"/>
		</contour>
	</outline>
</glyph>
<glyph name="uni01CA" format="2">
	<unicode hex="01CA"/>
	<advance width="1222"/>
	<outline>
		<contour>
			<point name="n00" x="623" y="0" type="line"/>
			<point name="n01" x="790" y="722" type="line"/>
			<point x="689" y="722" type="line"/>
			<point x="552" y="130" type="line"/>
			<point x="370" y="722" type="line"/>
			<point x="227" y="722" type="line"/>
			<point x="60" y="0" type="line"/>
			<point x="161" y="0" type="line"/>
			<point x="298" y="592" type="line"/>
			<point x="479" y="0" type="line"/>
		</contour>
		<contour>
			<point name="n10" x="963" y="74" type="curve" smooth="yes"/>
			<point x="888" y="74"/>
			<point x="860" y="114"/>
			<point name="n13" x="876" y="194" type="curve"/>
			<point name="n14" x="778" y="194" type="line"/>
			<point x="750" y="72"/>
			<point x="815" y="-14"/>
			<point name="n17" x="938" y="-14" type="curve" smooth="yes"/>
			<point x="1071" y="-14"/>
			<point x="1181" y="81"/>
			<point x="1212" y="215" type="curve" smooth="yes"/>
			<point x="1329" y="722" type="line"/>
			<point x="1228" y="722" type="line"/>
			<point x="1111" y="215" type="line" smooth="yes"/>
			<point x="1093" y="135"/>
			<point x="1037" y="74"/>
		</contour>
	</outline>
</glyph>
<glyph name="Icaron" format="2">
	<unicode hex="01CF"/>
	<advance width="261"/>
	<outline>
		<contour>
			<point name="n00" x="180" y="0" type="line"/>
			<point name="n01" x="347" y="722" type="line"/>
			<point x="246" y="722" type="line"/>
			<point x="79" y="0" type="line"/>
		</contour>
		<contour>
			<point x="498" y="966" type="line"/>
			<point x="438" y="966" type="line"/>
			<point x="328" y="856" type="line"/>
			<point x="268" y="966" type="line"/>
			<point x="208" y="966" type="line"/>
			<point x="259" y="796" type="line"/>
			<point x="369" y="796" type="line"/>
		</contour>
	</outline>
</glyph>
<glyph name="ucaron" format="2">
	<unicode hex="01D4"/>
	<advance width="533"/>
	<outline>
		<contour>
			<point name="n00" x="271" y="48" type="line"/>
			<point x="205" y="48"/>
			<point x="163" y="103"/>
			<point x="178" y="169" type="curve" smooth="yes"/>
			<point name="n04" x="254" y="500" type="line"/>
			<point x="164" y="500" type="line"/>
			<point x="88" y="171" type="line" smooth="yes"/>
			<point x="59" y="46"/>
			<point x="109" y="-13"/>
			<point name="n09" x="237" y="-13" type="curve" smooth="yes"/>
			<point x="306" y="-13"/>
			<point x="363" y="13"/>
			<point x="408" y="64" type="curve"/>
			<point name="n13" x="393" y="0" type="line"/>
			<point x="483" y="0" type="line"/>
			<point x="598" y="500" type="line"/>
			<point x="508" y="500" type="line"/>
			<point x="434" y="178" type="line" smooth="yes"/>
			<point x="417" y="103"/>
			<point name="hr02" x="346" y="48"/>
			<point x="272" y="48" type="curve"/>
		</contour>
		<contour>
			<point x="583" y="743" type="line"/>
			<point x="523" y="743" type="line"/>
			<point x="412" y="633" type="line"/>
			<point x="353" y="743" type="line"/>
			<point x="293" y="743" type="line"/>
			<point x="343" y="573" type="line"/>
			<point x="453" y="573" type="line"/>
		</contour>
	</outline>
</glyph>
<glyph name="uni01D6" format="2">
	<unicode hex="01D6"/>
	<advance width="572"/>
	<outline>
		<contour>
			<point name="n00" x="292" y="48" type="line"/>
			<point x="226" y="48"/>
			<point x="184" y="103"/>
			<point x="199" y="169" type="curve" smooth="yes"/>
			<point name="n04" x="275" y="500" type="line"/>
			<point x="185" y="500" type="line"/>
			<point x="109" y="171" type="line" smooth="yes"/>
			<point x="80" y="46"/>
			<point x="130" y="-13"/>
			<point name="n09" x="258" y="-13" type="curve" smooth="yes"/>
			<point x="327" y="-13"/>
			<point x="384" y="13"/>
			<point x="429" y="64" type="curve"/>
			<point name="n13" x="414" y="0" type="line"/>
			<point x="504" y="0" type="line"/>
			<point x="619" y="500" type="line"/>
			<point x="529" y="500" type="line"/>
			<point x="455" y="178" type="line" smooth="yes"/>
			<point x="438" y="103"/>
			<point name="hr02" x="367" y="48"/>
			<point x="293" y="48" type="curve"/>
		</contour>
		<contour>
			<point name="n21" x="377" y="630" type="line"/>
			<point name="n22" x="399" y="722" type="line"/>
			<point x="309" y="722" type="line"/>
			<point x="287" y="630" type="line"/>
		</contour>
		<contour>
			<point x="577" y="630" type="line"/>
			<point x="599" y="722" type="line"/>
			<point x="509" y="722" type="line"/>
			<point x="487" y="630" type="line"/>
		</contour>
		<contour>
			<point name="n29" x="599" y="782" type="line"/>
			<point name="n30" x="614" y="851" type="line"/>
			<point x="352" y="851" type="line"/>
			<point x="337" y="782" type="line"/>
		</contour>
	</outline>
</glyph>
<glyph name="uni01D8" format="2">
	<unicode hex="01D8"/>
	<advance width="572"/>
	<outline>
		<contour>
			<point name="n00" x="291" y="48" type="line"/>
			<point x="225" y="48"/>
			<point x="183" y="103"/>
			<point x="198" y="169" type="curve" smooth="yes"/>
			<point name="n04" x="274" y="500" type="line"/>
			<point x="184" y="500" type="line"/>
			<point x="108" y="171" type="line" smooth="yes"/>
			<point x="79" y="46"/>
			<point x="129" y="-13"/>
			<point name="n09" x="257" y="-13" type="curve" smooth="yes"/>
			<point x="326" y="-13"/>
			<point x="383" y="13"/>
			<point x="428" y="64" type="curve"/>
			<point name="n13" x="413" y="0" type="line"/>
			<point x="503" y="0" type="line"/>
			<point x="618" y="500" type="line"/>
			<point x="528" y="500" type="line"/>
			<point x="454" y="178" type="line" smooth="yes"/>
			<point x="437" y="103"/>
			<point name="hr02" x="366" y="48"/>
			<point x="292" y="48" type="curve"/>
		</contour>
		<contour>
			<point name="n21" x="376" y="630" type="line"/>
			<point name="n22" x="398" y="722" type="line"/>
			<point x="308" y="722" type="line"/>
			<point x="286" y="630" type="line"/>
		</contour>
		<contour>
			<point x="576" y="630" type="line"/>
			<point x="598" y="722" type="line"/>
			<point x="508" y="722" type="line"/>
			<point x="486" y="630" type="line"/>
		</contour>
		<contour>
			<point x="677" y="953" type="line"/>
			<point x="561" y="953" type="line"/>
			<point x="437" y="782" type="line"/>
			<point x="498" y="782" type="line"/>
		</contour>
	</outline>
</glyph>
<glyph name="Gcaron" format="2">
	<unicode hex="01E6"/>
	<advance width="735"/>
	<outline>
		<contour>
			<point x="679" y="36" type="curve"/>
			<point x="760" y="385" type="line"/>
			<point name="n02" x="495" y="385" type="line"/>
			<point name="n03" x="475" y="298" type="line"/>
			<point x="639" y="298" type="line"/>
			<point x="593" y="98" type="line"/>
			<point x="536" y="85"/>
			<point x="477" y="74"/>
			<point name="n08" x="413" y="74" type="curve" smooth="yes"/>
			<point x="235" y="74"/>
			<point x="202" y="211"/>
			<point x="243" y="388" type="curve" smooth="yes"/>
			<point x="281" y="551"/>
			<point x="391" y="649"/>
			<point name="n14" x="558" y="649" type="curve" smooth="yes"/>
			<point x="658" y="649"/>
			<point x="711" y="593"/>
			<point x="699" y="542" type="curve"/>
			<point x="800" y="542" type="line"/>
			<point x="829" y="669"/>
			<point x="704" y="736"/>
			<point name="n21" x="569" y="736" type="curve" smooth="yes"/>
			<point x="364" y="736"/>
			<point x="186" y="591"/>
			<point x="140" y="390" type="curve" smooth="yes"/>
			<point x="78" y="121"/>
			<point x="166" y="-14"/>
			<point name="n27" x="404" y="-14" type="curve" smooth="yes"/>
			<point x="517" y="-14"/>
			<point x="607" y="12"/>
		</contour>
		<contour>
			<point x="767" y="966" type="line"/>
			<point x="707" y="966" type="line"/>
			<point x="597" y="856" type="line"/>
			<point x="537" y="966" type="line"/>
			<point x="477" y="966" type="line"/>
			<point x="528" y="796" type="line"/>
			<point x="638" y="796" type="line"/>
		</contour>
	</outline>
</glyph>
<glyph name="uni01EB" format="2">
	<unicode hex="01EB"/>
	<advance width="580"/>
	<outline>
		<contour>
			<point x="503" y="248" type="curve" smooth="yes"/>
			<point x="480" y="148"/>
			<point x="405" y="51"/>
			<point name="n03" x="302" y="51" type="curve" smooth="yes"/>
			<point x="199" y="51"/>
			<point x="168" y="148"/>
			<point x="191" y="248" type="curve" smooth="yes"/>
			<point x="214" y="349"/>
			<point x="290" y="447"/>
			<point name="n09" x="393" y="447" type="curve" smooth="yes"/>
			<point x="496" y="447"/>
			<point x="526" y="349"/>
		</contour>
		<contour>
			<point x="598" y="250" type="line"/>
			<point x="635" y="410"/>
			<point x="564" y="512"/>
			<point name="n15" x="408" y="512" type="curve" smooth="yes"/>
			<point x="253" y="512"/>
			<point x="134" y="408"/>
			<point x="97" y="249" type="curve" smooth="yes"/>
			<point x="63" y="101"/>
			<point x="122" y="1"/>
			<point x="255" y="-12" type="curve"/>
			<point x="240" y="-24" type="line"/>
			<point x="211" y="-44"/>
			<point x="163" y="-97"/>
			<point x="153" y="-140" type="curve" smooth="yes"/>
			<point x="140" y="-195"/>
			<point x="166" y="-225"/>
			<point name="n28" x="221" y="-225" type="curve" smooth="yes"/>
			<point x="233" y="-225"/>
			<point x="257" y="-224"/>
			<point x="293" y="-221" type="curve"/>
			<point x="309" y="-151" type="line"/>
			<point name="n33" x="268" y="-155" type="line"/>
			<point x="235" y="-155"/>
			<point x="222" y="-144"/>
			<point x="227" y="-121" type="curve" smooth="yes"/>
			<point x="237" y="-77"/>
			<point x="279" y="-27"/>
			<point name="n39" x="294" y="-13" type="curve"/>
			<point x="446" y="-13"/>
			<point x="561" y="94"/>
			<point x="597" y="249" type="curve"/>
		</contour>
	</outline>
</glyph>
<glyph name="uni01F2" format="2">
	<unicode hex="01F2"/>
	<advance width="1138"/>
	<outline>
		<contour>
			<point name="n00" x="307" y="87" type="curve" smooth="yes"/>
			<point x="181" y="87" type="line"/>
			<point x="308" y="635" type="line"/>
			<point name="n03" x="434" y="635" type="line" smooth="yes"/>
			<point x="598" y="635"/>
			<point x="664" y="530"/>
			<point x="625" y="362" type="curve" smooth="yes"/>
			<point x="587" y="196"/>
			<point x="470" y="87"/>
		</contour>
		<contour>
			<point x="724" y="362" type="curve" smooth="yes"/>
			<point x="777" y="593"/>
			<point x="686" y="722"/>
			<point name="n12" x="452" y="722" type="curve" smooth="yes"/>
			<point x="227" y="722" type="line"/>
			<point x="60" y="0" type="line"/>
			<point name="n15" x="285" y="0" type="line" smooth="yes"/>
			<point x="514" y="0"/>
			<point x="671" y="134"/>
		</contour>
		<contour>
			<point name="n18" x="1098" y="0" type="line"/>
			<point name="n19" x="1114" y="70" type="line"/>
			<point x="846" y="70" type="line"/>
			<point name="hr01" x="1194" y="417" type="line"/>
			<point x="1213" y="500" type="line"/>
			<point name="n23" x="865" y="500" type="line"/>
			<point name="n24" x="849" y="430" type="line"/>
			<point x="1095" y="430" type="line"/>
			<point x="749" y="83" type="line"/>
			<point x="730" y="0" type="line"/>
		</contour>
	</outline>
</glyph>
<glyph name="uni01F3" format="2">
	<unicode hex="01F3"/>
	<advance width="1009"/>
	<outline>
		<contour>
			<point x="189" y="248" type="curve" smooth="yes"/>
			<point x="212" y="346"/>
			<point x="271" y="449"/>
			<point name="n03" x="368" y="449" type="curve" smooth="yes"/>
			<point x="467" y="449"/>
			<point x="508" y="376"/>
			<point x="477" y="242" type="curve" smooth="yes"/>
			<point x="451" y="129"/>
			<point x="386" y="55"/>
			<point name="n09" x="289" y="55" type="curve" smooth="yes"/>
			<point x="197" y="55"/>
			<point x="167" y="152"/>
		</contour>
		<contour>
			<point x="511" y="0" type="line"/>
			<point name="n13" x="678" y="722" type="line"/>
			<point x="588" y="722" type="line"/>
			<point x="521" y="435" type="line"/>
			<point x="498" y="479"/>
			<point x="459" y="513"/>
			<point name="n18" x="381" y="513" type="curve" smooth="yes"/>
			<point x="265" y="513"/>
			<point x="137" y="421"/>
			<point x="97" y="247" type="curve" smooth="yes"/>
			<point x="64" y="103"/>
			<point x="122" y="-13"/>
			<point name="n24" x="269" y="-13" type="curve" smooth="yes"/>
			<point x="329" y="-13"/>
			<point x="401" y="28"/>
			<point x="434" y="57" type="curve"/>
			<point x="421" y="0" type="line"/>
		</contour>
		<contour>
			<point name="n29" x="969" y="0" type="line"/>
			<point name="n30" x="985" y="70" type="line"/>
			<point x="717" y="70" type="line"/>
			<point x="1065" y="417" type="line"/>
			<point x="1084" y="500" type="line"/>
			<point name="n34" x="736" y="500" type="line"/>
			<point name="n35" x="720" y="430" type="line"/>
			<point x="966" y="430" type="line"/>
			<point x="620" y="83" type="line"/>
			<point x="601" y="0" type="line"/>
		</contour>
	</outline>
</glyph>
<glyph name="Gacute" format="2">
	<unicode hex="01F4"/>
	<advance width="1000"/>
	<outline>
		<contour>
			<point x="678" y="36" type="curve"/>
			<point x="759" y="385" type="line"/>
			<point name="n02" x="494" y="385" type="line"/>
			<point name="n03" x="474" y="298" type="line"/>
			<point x="638" y="298" type="line"/>
			<point x="592" y="98" type="line"/>
			<point x="535" y="85"/>
			<point x="476" y="74"/>
			<point name="n08" x="412" y="74" type="curve" smooth="yes"/>
			<point x="234" y="74"/>
			<point x="201" y="211"/>
			<point x="242" y="388" type="curve" smooth="yes"/>
			<point x="280" y="551"/>
			<point x="390" y="649"/>
			<point name="n14" x="557" y="649" type="curve" smooth="yes"/>
			<point x="657" y="649"/>
			<point x="710" y="593"/>
			<point x="698" y="542" type="curve"/>
			<point x="799" y="542" type="line"/>
			<point x="828" y="669"/>
			<point x="703" y="736"/>
			<point name="n21" x="568" y="736" type="curve" smooth="yes"/>
			<point x="363" y="736"/>
			<point x="185" y="591"/>
			<point x="139" y="390" type="curve" smooth="yes"/>
			<point x="77" y="121"/>
			<point x="165" y="-14"/>
			<point name="n27" x="403" y="-14" type="curve" smooth="yes"/>
			<point x="516" y="-14"/>
			<point x="606" y="12"/>
		</contour>
		<contour>
			<point x="792" y="967" type="line"/>
			<point x="691" y="967" type="line"/>
			<point x="552" y="796" type="line"/>
			<point x="613" y="796" type="line"/>
		</contour>
	</outline>
</glyph>
<glyph name="uni0204" format="2">
	<unicode hex="0204"/>
	<advance width="577"/>
	<outline>
		<contour>
			<point name="n00" x="517" y="0" type="line"/>
			<point name="n01" x="537" y="87" type="line"/>
			<point x="181" y="87" type="line"/>
			<point name="n03" x="236" y="326" type="line"/>
			<point x="572" y="326" type="line"/>
			<point x="592" y="413" type="line"/>
			<point name="n06" x="256" y="413" type="line"/>
			<point x="308" y="635" type="line"/>
			<point name="n08" x="654" y="635" type="line"/>
			<point name="n09" x="674" y="722" type="line"/>
			<point x="227" y="722" type="line"/>
			<point x="60" y="0" type="line"/>
		</contour>
		<contour>
			<point x="423" y="796" type="line"/>
			<point x="392" y="967" type="line"/>
			<point x="302" y="967" type="line"/>
			<point x="373" y="796" type="line"/>
		</contour>
		<contour>
			<point x="563" y="796" type="line"/>
			<point x="532" y="967" type="line"/>
			<point x="442" y="967" type="line"/>
			<point x="513" y="796" type="line"/>
		</contour>
	</outline>
</glyph>
<glyph name="uni0206" format="2">
	<unicode hex="0206"/>
	<advance width="577"/>
	<outline>
		<contour>
			<point name="n00" x="518" y="0" type="line"/>
			<point name="n01" x="538" y="87" type="line"/>
			<point x="182" y="87" type="line"/>
			<point name="n03" x="237" y="326" type="line"/>
			<point x="573" y="326" type="line"/>
			<point x="593" y="413" type="line"/>
			<point name="n06" x="257" y="413" type="line"/>
			<point x="309" y="635" type="line"/>
			<point name="n08" x="655" y="635" type="line"/>
			<point name="n09" x="675" y="722" type="line"/>
			<point x="228" y="722" type="line"/>
			<point x="61" y="0" type="line"/>
		</contour>
		<contour>
			<point name="n12" x="608" y="796" type="line"/>
			<point x="612" y="861"/>
			<point x="563" y="913"/>
			<point name="n15" x="494" y="913" type="curve" smooth="yes"/>
			<point x="423" y="913"/>
			<point x="349" y="862"/>
			<point x="326" y="796" type="curve"/>
			<point x="378" y="796" type="line"/>
			<point x="391" y="827"/>
			<point x="444" y="849"/>
			<point name="n22" x="480" y="849" type="curve" smooth="yes"/>
			<point x="516" y="849"/>
			<point x="559" y="827"/>
			<point name="n25" x="558" y="796" type="curve"/>
		</contour>
	</outline>
</glyph>
<glyph name="uni0207" format="2">
	<unicode hex="0207"/>
	<advance width="537"/>
	<outline>
		<contour>
			<point x="472" y="302" type="curve"/>
			<point name="n01" x="208" y="302" type="line"/>
			<point x="233" y="399"/>
			<point x="300" y="447"/>
			<point name="n04" x="372" y="447" type="curve" smooth="yes"/>
			<point x="480" y="447"/>
			<point x="486" y="362"/>
		</contour>
		<contour>
			<point name="n07" x="548" y="573" type="line"/>
			<point x="552" y="638"/>
			<point x="503" y="690"/>
			<point name="n10" x="434" y="690" type="curve" smooth="yes"/>
			<point x="363" y="690"/>
			<point x="289" y="639"/>
			<point x="266" y="573" type="curve"/>
			<point x="318" y="573" type="line"/>
			<point x="331" y="604"/>
			<point x="385" y="626"/>
			<point name="n17" x="421" y="626" type="curve" smooth="yes"/>
			<point x="457" y="626"/>
			<point x="499" y="604"/>
			<point name="n20" x="498" y="573" type="curve"/>
		</contour>
		<contour>
			<point name="n21" x="192" y="236" type="curve"/>
			<point x="550" y="236" type="line"/>
			<point x="561" y="283" type="line" smooth="yes"/>
			<point x="593" y="423"/>
			<point x="534" y="512"/>
			<point name="n26" x="389" y="512" type="curve" smooth="yes"/>
			<point x="236" y="512"/>
			<point x="136" y="405"/>
			<point x="100" y="251" type="curve" smooth="yes"/>
			<point x="66" y="102"/>
			<point x="108" y="-14"/>
			<point name="n32" x="273" y="-14" type="curve" smooth="yes"/>
			<point x="397" y="-14"/>
			<point x="490" y="55"/>
			<point name="n35" x="534" y="160" type="curve"/>
			<point name="n36" x="438" y="160" type="line"/>
			<point x="418" y="98"/>
			<point x="364" y="51"/>
			<point name="n39" x="296" y="51" type="curve" smooth="yes"/>
			<point x="200" y="51"/>
			<point x="168" y="134"/>
		</contour>
	</outline>
</glyph>
<glyph name="uni020A" format="2">
	<unicode hex="020A"/>
	<advance width="261"/>
	<outline>
		<contour>
			<point name="n00" x="182" y="0" type="line"/>
			<point name="n01" x="349" y="722" type="line"/>
			<point x="248" y="722" type="line"/>
			<point x="81" y="0" type="line"/>
		</contour>
		<contour>
			<point name="n04" x="455" y="796" type="line"/>
			<point x="459" y="861"/>
			<point x="410" y="913"/>
			<point name="n07" x="341" y="913" type="curve" smooth="yes"/>
			<point x="270" y="913"/>
			<point x="196" y="862"/>
			<point x="173" y="796" type="curve"/>
			<point x="225" y="796" type="line"/>
			<point x="238" y="827"/>
			<point x="291" y="849"/>
			<point name="n14" x="327" y="849" type="curve" smooth="yes"/>
			<point x="363" y="849"/>
			<point x="406" y="827"/>
			<point name="n17" x="405" y="796" type="curve"/>
		</contour>
	</outline>
</glyph>
<glyph name="uni020D" format="2">
	<unicode hex="020D"/>
	<advance width="580"/>
	<outline>
		<contour>
			<point x="503" y="248" type="curve" smooth="yes"/>
			<point x="480" y="148"/>
			<point x="405" y="51"/>
			<point name="n03" x="302" y="51" type="curve" smooth="yes"/>
			<point x="199" y="51"/>
			<point x="168" y="148"/>
			<point x="191" y="248" type="curve" smooth="yes"/>
			<point x="214" y="349"/>
			<point x="290" y="447"/>
			<point name="n09" x="393" y="447" type="curve" smooth="yes"/>
			<point x="496" y="447"/>
			<point x="526" y="349"/>
		</contour>
		<contour>
			<point x="598" y="250" type="line"/>
			<point x="635" y="410"/>
			<point x="564" y="512"/>
			<point name="n15" x="408" y="512" type="curve" smooth="yes"/>
			<point x="253" y="512"/>
			<point x="134" y="408"/>
			<point x="97" y="249" type="curve" smooth="yes"/>
			<point x="60" y="90"/>
			<point x="132" y="-14"/>
			<point name="n21" x="287" y="-14" type="curve" smooth="yes"/>
			<point x="443" y="-14"/>
			<point x="560" y="88"/>
			<point x="597" y="248" type="curve"/>
		</contour>
		<contour>
			<point x="372" y="573" type="line"/>
			<point x="342" y="744" type="line"/>
			<point x="252" y="744" type="line"/>
			<point x="322" y="573" type="line"/>
		</contour>
		<contour>
			<point x="512" y="573" type="line"/>
			<point x="482" y="744" type="line"/>
			<point x="392" y="744" type="line"/>
			<point x="462" y="573" type="line"/>
		</contour>
	</outline>
</glyph>
<glyph name="uni0215" format="2">
	<unicode hex="0215"/>
	<advance width="533"/>
	<outline>
		<contour>
			<point name="n00" x="271" y="48" type="line"/>
			<point x="205" y="48"/>
			<point x="163" y="103"/>
			<point x="178" y="169" type="curve" smooth="yes"/>
			<point name="n04" x="254" y="500" type="line"/>
			<point x="164" y="500" type="line"/>
			<point x="88" y="171" type="line" smooth="yes"/>
			<point x="59" y="46"/>
			<point x="109" y="-13"/>
			<point name="n09" x="237" y="-13" type="curve" smooth="yes"/>
			<point x="306" y="-13"/>
			<point x="363" y="13"/>
			<point x="408" y="64" type="curve"/>
			<point name="n13" x="393" y="0" type="line"/>
			<point x="483" y="0" type="line"/>
			<point x="598" y="500" type="line"/>
			<point x="508" y="500" type="line"/>
			<point x="434" y="178" type="line" smooth="yes"/>
			<point x="417" y="103"/>
			<point name="hr02" x="346" y="48"/>
			<point x="272" y="48" type="curve"/>
		</contour>
		<contour>
			<point x="353" y="573" type="line"/>
			<point x="323" y="744" type="line"/>
			<point x="233" y="744" type="line"/>
			<point x="303" y="573" type="line"/>
		</contour>
		<contour>
			<point x="493" y="573" type="line"/>
			<point x="463" y="744" type="line"/>
			<point x="373" y="744" type="line"/>
			<point x="443" y="573" type="line"/>
		</contour>
	</outline>
</glyph>
<glyph name="uni021B" format="2">
	<unicode hex="021B"/>
	<advance width="370"/>
	<outline>
		<contour>
			<point x="250" y="131" type="line"/>
			<point name="n01" x="321" y="436" type="line"/>
			<point x="431" y="436" type="line"/>
			<point x="445" y="500" type="line"/>
			<point name="n04" x="335" y="500" type="line"/>
			<point x="367" y="636" type="line"/>
			<point x="268" y="599" type="line"/>
			<point x="245" y="500" type="line"/>
			<point x="155" y="500" type="line"/>
			<point x="141" y="436" type="line"/>
			<point x="231" y="436" type="line"/>
			<point x="160" y="131" type="line" smooth="yes"/>
			<point x="138" y="35"/>
			<point x="154" y="-14"/>
			<point x="240" y="-14" type="curve" smooth="yes"/>
			<point name="n15" x="252" y="-14" type="line"/>
			<point x="281" y="-13"/>
			<point x="307" y="-9"/>
			<point x="330" y="-2" type="curve"/>
			<point x="344" y="62" type="line"/>
			<point x="327" y="57"/>
			<point x="308" y="54"/>
			<point x="287" y="53" type="curve"/>
			<point name="n23" x="281" y="53" type="line" smooth="yes"/>
			<point x="243" y="53"/>
			<point x="240" y="83"/>
			<point x="250" y="128" type="curve"/>
		</contour>
		<contour>
			<point x="328" y="-73" type="line"/>
			<point x="208" y="-73" type="line"/>
			<point x="90" y="-323" type="line"/>
			<point x="160" y="-323" type="line"/>
		</contour>
	</outline>
</glyph>
<glyph name="uni022A" format="2">
	<unicode hex="022A"/>
	<advance width="773"/>
	<outline>
		<contour>
			<point x="696" y="374" type="line"/>
			<point x="657" y="206"/>
			<point x="572" y="73"/>
			<point name="n03" x="403" y="73" type="curve" smooth="yes"/>
			<point x="239" y="73"/>
			<point x="209" y="204"/>
			<point x="248" y="375" type="curve" smooth="yes"/>
			<point x="290" y="558"/>
			<point x="386" y="649"/>
			<point name="n09" x="536" y="649" type="curve" smooth="yes"/>
			<point x="702" y="649"/>
			<point x="734" y="540"/>
			<point x="696" y="375" type="curve"/>
		</contour>
		<contour>
			<point x="801" y="375" type="line"/>
			<point x="850" y="588"/>
			<point x="773" y="735"/>
			<point name="n16" x="558" y="735" type="curve" smooth="yes"/>
			<point x="342" y="735"/>
			<point x="195" y="588"/>
			<point x="146" y="375" type="curve" smooth="yes"/>
			<point x="102" y="184"/>
			<point x="148" y="-14"/>
			<point name="n22" x="383" y="-14" type="curve" smooth="yes"/>
			<point x="586" y="-14"/>
			<point x="746" y="143"/>
			<point x="799" y="374" type="curve"/>
		</contour>
		<contour>
			<point name="n26" x="546" y="850" type="line"/>
			<point name="n27" x="567" y="942" type="line"/>
			<point x="477" y="942" type="line"/>
			<point x="456" y="850" type="line"/>
		</contour>
		<contour>
			<point x="746" y="850" type="line"/>
			<point x="767" y="942" type="line"/>
			<point x="677" y="942" type="line"/>
			<point x="656" y="850" type="line"/>
		</contour>
		<contour>
			<point name="n34" x="767" y="1002" type="line"/>
			<point name="n35" x="783" y="1071" type="line"/>
			<point x="521" y="1071" type="line"/>
			<point x="505" y="1002" type="line"/>
		</contour>
	</outline>
</glyph>
<glyph name="j.dotless" format="2">
	<unicode hex="0237"/>
	<advance width="235"/>
	<outline>
		<contour>
			<point x="24" y="-134" type="line"/>
			<point x="13" y="-134"/>
			<point x="-2" y="-134"/>
			<point name="n03" x="-21" y="-135" type="curve"/>
			<point name="n04" x="-36" y="-199" type="line"/>
			<point name="n05" x="-25" y="-199" type="line" smooth="yes"/>
			<point x="-17" y="-199"/>
			<point x="-9" y="-199"/>
			<point x="0" y="-200" type="curve"/>
			<point x="9" y="-200" type="line" smooth="yes"/>
			<point x="79" y="-200"/>
			<point x="139" y="-161"/>
			<point x="159" y="-74" type="curve" smooth="yes"/>
			<point name="n13" x="291" y="500" type="line"/>
			<point x="201" y="500" type="line"/>
			<point x="76" y="-44" type="line" smooth="yes"/>
			<point x="65" y="-91"/>
			<point x="55" y="-134"/>
			<point x="23" y="-134" type="curve"/>
		</contour>
	</outline>
</glyph>
<glyph name="uni0252" format="2">
	<unicode hex="0252"/>
	<advance width="586"/>
	<outline>
		<contour>
			<point x="325" y="52" type="line"/>
			<point name="n01" x="312" y="52" type="line" smooth="yes"/>
			<point x="230" y="52"/>
			<point x="196" y="142"/>
			<point x="222" y="253" type="curve" smooth="yes"/>
			<point x="247" y="360"/>
			<point x="318" y="444"/>
			<point name="n07" x="399" y="444" type="curve" smooth="yes"/>
			<point x="483" y="444"/>
			<point x="523" y="357"/>
			<point x="497" y="244" type="curve" smooth="yes"/>
			<point x="473" y="141"/>
			<point x="403" y="60"/>
			<point x="324" y="53" type="curve"/>
		</contour>
		<contour>
			<point x="595" y="255" type="line"/>
			<point x="624" y="379"/>
			<point x="562" y="513"/>
			<point x="450" y="513" type="curve" smooth="yes"/>
			<point name="n18" x="447" y="513" type="line"/>
			<point x="383" y="511"/>
			<point x="328" y="483"/>
			<point x="262" y="446" type="curve"/>
			<point name="n22" x="274" y="500" type="line"/>
			<point x="184" y="500" type="line"/>
			<point name="n24" x="69" y="0" type="line"/>
			<point x="159" y="0" type="line"/>
			<point x="174" y="63" type="line"/>
			<point x="219" y="12" type="line"/>
			<point x="240" y="-5"/>
			<point name="hr02" x="271" y="-13"/>
			<point name="n30" x="312" y="-13" type="curve" smooth="yes"/>
			<point x="449" y="-13"/>
			<point x="555" y="92"/>
			<point x="593" y="255" type="curve"/>
		</contour>
	</outline>
</glyph>
<glyph name="uni0255" format="2">
  <advance width="555"/>
  <unicode hex="0255"/>
  <outline>
    <contour>
      <point x="313" y="53" type="curve" smooth="yes"/>
      <point x="295" y="53"/>
      <point x="258" y="56"/>
      <point x="234" y="71" type="curve"/>
      <point x="268" y="112"/>
      <point x="357" y="175"/>
      <point x="406" y="175" type="curve" smooth="yes"/>
      <point x="432" y="175"/>
      <point x="448" y="159"/>
      <point x="448" y="135" type="curve" smooth="yes"/>
      <point x="448" y="84"/>
      <point x="369" y="53"/>
    </contour>
    <contour>
      <point x="537" y="149" type="curve" smooth="yes"/>
      <point x="537" y="203"/>
      <point x="493" y="234"/>
      <point x="436" y="234" type="curve" smooth="yes"/>
      <point x="306" y="234"/>
      <point x="126" y="68"/>
      <point x="30" y="-133" type="curve"/>
      <point x="77" y="-150" type="line"/>
      <point x="110" y="-89"/>
      <point x="143" y="-37"/>
      <point x="184" y="8" type="curve"/>
      <point x="212" y="-7"/>
      <point x="258" y="-16"/>
      <point x="311" y="-16" type="curve" smooth="yes"/>
      <point x="398" y="-16"/>
      <point x="537" y="55"/>
    </contour>
    <contour>
      <point x="107" y="164" type="curve" smooth="yes"/>
      <point x="107" y="106"/>
      <point x="130" y="59"/>
      <point x="161" y="27" type="curve"/>
      <point x="221" y="86" type="line"/>
      <point x="205" y="115"/>
      <point x="201" y="147"/>
      <point x="201" y="174" type="curve" smooth="yes"/>
      <point x="201" y="274"/>
      <point x="257" y="447"/>
      <point x="389" y="447" type="curve" smooth="yes"/>
      <point x="448" y="447"/>
      <point x="474" y="413"/>
      <point x="474" y="366" type="curve" smooth="yes"/>
      <point x="474" y="357"/>
      <point x="473" y="349"/>
      <point x="472" y="341" type="curve"/>
      <point x="565" y="341" type="line"/>
      <point x="567" y="354"/>
      <point x="568" y="366"/>
      <point x="568" y="377" type="curve" smooth="yes"/>
      <point x="568" y="466"/>
      <point x="508" y="512"/>
      <point x="413" y="512" type="curve" smooth="yes"/>
      <point x="219" y="512"/>
      <point x="107" y="326"/>
    </contour>
  </outline>
</glyph>
<glyph name="uni0256" format="2">
  <advance width="591"/>
  <unicode hex="0256"/>
  <outline>
    <component base="d" xOffset="-8"/>
    <contour>
      <point x="440.85" y="36" type="line"/>
      <point x="530.85" y="36" type="line"/>
      <point x="508.153" y="-62" type="line" smooth="yes"/>
      <point x="497.635" y="-106"/>
      <point x="522.978" y="-131"/>
      <point x="566.978" y="-131" type="curve" smooth="yes"/>
      <point x="591.978" y="-131"/>
      <point x="612.708" y="-123"/>
      <point x="627.635" y="-106" type="curve"/>
      <point x="667.989" y="-161" type="line"/>
      <point x="634.865" y="-187"/>
      <point x="591.803" y="-200"/>
      <point x="542.803" y="-200" type="curve" smooth="yes"/>
      <point x="444.803" y="-200"/>
      <point x="398.517" y="-147"/>
      <point x="418.153" y="-62" type="curve" smooth="yes"/>
    </contour>
  </outline>
</glyph>
<glyph name="uni0257" format="2">
	<unicode hex="0257"/>
	<advance width="591"/>
	<outline>
		<contour>
			<point x="298" y="57" type="line"/>
			<point x="292" y="56"/>
			<point x="286" y="55"/>
			<point name="n03" x="281" y="55" type="curve" smooth="yes"/>
			<point x="210" y="55"/>
			<point x="175" y="151"/>
			<point x="200" y="260" type="curve" smooth="yes"/>
			<point x="225" y="368"/>
			<point x="301" y="451"/>
			<point name="n09" x="389" y="451" type="curve" smooth="yes"/>
			<point x="465" y="451"/>
			<point x="502" y="340"/>
			<point x="478" y="238" type="curve" smooth="yes"/>
			<point x="455" y="138"/>
			<point x="387" y="72"/>
			<point x="296" y="55" type="curve"/>
		</contour>
		<contour>
			<point x="865" y="697" type="line"/>
			<point x="844" y="724"/>
			<point x="807" y="737"/>
			<point name="n19" x="755" y="737" type="curve" smooth="yes"/>
			<point x="660" y="737"/>
			<point x="589" y="682"/>
			<point x="569" y="597" type="curve" smooth="yes"/>
			<point x="534" y="445" type="line"/>
			<point x="511" y="490"/>
			<point x="458" y="512"/>
			<point name="n26" x="375" y="512" type="curve" smooth="yes"/>
			<point x="247" y="512"/>
			<point x="141" y="400"/>
			<point x="104" y="239" type="curve" smooth="yes"/>
			<point x="73" y="103"/>
			<point x="155" y="-14"/>
			<point name="n32" x="278" y="-14" type="curve" smooth="yes"/>
			<point x="333" y="-14"/>
			<point x="388" y="9"/>
			<point x="444" y="56" type="curve"/>
			<point name="n36" x="431" y="-1" type="line"/>
			<point x="521" y="-1" type="line"/>
			<point x="659" y="597" type="line" smooth="yes"/>
			<point x="669" y="641"/>
			<point x="706" y="667"/>
			<point name="n41" x="748" y="667" type="curve" smooth="yes"/>
			<point x="775" y="667"/>
			<point x="792" y="659"/>
			<point x="799" y="642" type="curve"/>
		</contour>
	</outline>
</glyph>
<glyph name="uni0258" format="2">
	<unicode hex="0258"/>
	<advance width="554"/>
	<outline>
		<contour>
			<point x="560" y="243" type="line"/>
			<point x="598" y="406"/>
			<point x="535" y="513"/>
			<point name="n03" x="388" y="513" type="curve" smooth="yes"/>
			<point x="245" y="513"/>
			<point x="147" y="428"/>
			<point x="113" y="281" type="curve" smooth="yes"/>
			<point x="109" y="264"/>
			<point x="106" y="249"/>
			<point x="105" y="236" type="curve"/>
			<point name="n10" x="462" y="236" type="line"/>
			<point x="431" y="115"/>
			<point x="368" y="51"/>
			<point name="n13" x="285" y="51" type="curve" smooth="yes"/>
			<point x="213" y="51"/>
			<point x="179" y="87"/>
			<point name="n16" x="183" y="159" type="curve"/>
			<point name="n17" x="86" y="159" type="line"/>
			<point x="84" y="46"/>
			<point x="152" y="-13"/>
			<point name="n20" x="270" y="-13" type="curve" smooth="yes"/>
			<point x="409" y="-13"/>
			<point x="524" y="92"/>
			<point name="n23" x="559" y="243" type="curve"/>
		</contour>
		<contour>
			<point name="n24" x="473" y="300" type="curve"/>
			<point x="215" y="300" type="line"/>
			<point x="216" y="307"/>
			<point x="217" y="315"/>
			<point x="219" y="324" type="curve" smooth="yes"/>
			<point x="237" y="403"/>
			<point x="289" y="444"/>
			<point x="375" y="447" type="curve"/>
			<point name="n32" x="378" y="447" type="line" smooth="yes"/>
			<point x="449" y="447"/>
			<point x="481" y="398"/>
		</contour>
	</outline>
</glyph>
